<?xml version="1.0" encoding="UTF-8" standalone="no"?>
<!-- Created with Inkscape (http://www.inkscape.org/) -->

<svg
   xmlns:dc="http://purl.org/dc/elements/1.1/"
   xmlns:cc="http://creativecommons.org/ns#"
   xmlns:rdf="http://www.w3.org/1999/02/22-rdf-syntax-ns#"
   xmlns:svg="http://www.w3.org/2000/svg"
   xmlns="http://www.w3.org/2000/svg"
   xmlns:sodipodi="http://sodipodi.sourceforge.net/DTD/sodipodi-0.dtd"
   xmlns:inkscape="http://www.inkscape.org/namespaces/inkscape"
   width="195.64972mm"
   height="102.77192mm"
   viewBox="0 0 195.64972 102.77192"
   version="1.1"
   id="svg922"
   inkscape:version="0.92.1 r15371"
   sodipodi:docname="bluePanties.svg">
  <defs
     id="defs916" />
  <sodipodi:namedview
     id="base"
     pagecolor="#ffffff"
     bordercolor="#666666"
     borderopacity="1.0"
     inkscape:pageopacity="0.0"
     inkscape:pageshadow="2"
     inkscape:zoom="0.9899495"
     inkscape:cx="437.99673"
     inkscape:cy="147.61314"
     inkscape:document-units="mm"
     inkscape:current-layer="layer1"
     showgrid="false"
     inkscape:window-width="1920"
     inkscape:window-height="1056"
     inkscape:window-x="0"
     inkscape:window-y="24"
     inkscape:window-maximized="1"
     inkscape:snap-grids="true"
     inkscape:snap-to-guides="true"
     fit-margin-top="0"
     fit-margin-left="0"
     fit-margin-right="0"
     fit-margin-bottom="0" />
  <metadata
     id="metadata919">
    <rdf:RDF>
      <cc:Work
         rdf:about="">
        <dc:format>image/svg+xml</dc:format>
        <dc:type
           rdf:resource="http://purl.org/dc/dcmitype/StillImage" />
        <dc:title></dc:title>
      </cc:Work>
    </rdf:RDF>
  </metadata>
  <g
     inkscape:label="Layer 1"
     inkscape:groupmode="layer"
     id="layer1"
     transform="translate(-6.8745371,-5.6084172)">
    <path
       inkscape:connector-curvature="0"
       style="fill:#4767ff;fill-opacity:1;stroke:#000000;stroke-width:0.83700681;stroke-linecap:butt;stroke-linejoin:miter;stroke-miterlimit:4;stroke-dasharray:none;stroke-opacity:1"
       d="m 194.87145,20.369108 c -7.92809,1.854659 -20.63852,4.936216 -25.18869,6.852974 -7.91088,3.332548 -14.12072,7.602343 -18.10026,10.698008 -0.70891,0.826177 -1.42301,1.512718 -2.11869,1.935581 -0.68508,0.417992 -1.24056,0.815928 -1.59554,1.124716 -0.30527,0.265733 -0.59923,0.534693 -0.91548,0.837028 -0.32084,0.306542 -0.63842,0.627668 -0.96777,0.967775 -0.28725,0.293572 -0.57155,0.59945 -0.86316,0.915483 -1.03042,1.127056 -2.08012,2.356927 -3.11262,3.68806 -0.65826,0.851042 -1.30235,1.749126 -1.93559,2.641799 -1.26603,1.786012 -2.45164,3.600179 -3.47882,5.362085 -1.03428,1.770479 -1.89506,3.46089 -2.51102,4.943555 -0.59215,1.425374 -1.20745,3.046252 -1.80478,4.838972 -0.89561,2.68808 -1.75583,5.73509 -2.51102,9.07627 -0.002,0.009 0.002,0.019 0,0.0253 -0.2496,1.10605 -0.51134,2.23789 -0.73238,3.40034 -0.002,0.009 0.002,0.019 0,0.0253 -0.44333,2.3345 -0.81092,4.7813 -1.09858,7.29767 -0.1876,1.64229 -0.37788,3.45826 -0.54928,5.25743 -0.0433,0.45621 -0.0879,0.87711 -0.13065,1.33398 -0.0126,0.13066 -0.0158,0.26162 -0.0253,0.39234 -0.19392,2.12912 -0.36874,4.19504 -0.52315,6.12063 1.50728,-5.77894 6.2484,-14.20904 10.54107,-22.75613 7.52917,-14.991369 14.53415,-25.147724 25.92104,-34.264967 6.44065,-5.156869 8.37452,-6.413091 16.40011,-11.325739 6.75165,-4.132847 10.7254,-6.519605 15.30155,-9.390188 z M 25.456034,37.213872 c -1.104722,0.02214 -2.164302,0.07403 -3.112622,0.156909 -0.637886,0.05568 -1.257961,0.09079 -1.883257,0.130652 4.190676,1.594874 7.115291,2.129947 13.653657,4.917393 7.462326,3.181365 14.143459,6.739279 16.217001,8.317766 8.445159,6.428877 21.104594,14.611782 32.067828,27.987432 8.508145,10.38027 18.155929,23.564266 20.009709,26.548796 -0.0158,-0.0851 -0.0348,-0.22429 -0.0522,-0.31382 -0.12243,-0.63184 -0.27586,-1.39481 -0.47083,-2.24946 -0.0221,-0.0917 -0.0566,-0.21955 -0.0785,-0.31382 -0.1819,-0.78331 -0.40011,-1.69088 -0.65392,-2.667956 -0.0987,-0.37753 -0.22967,-0.84927 -0.34001,-1.25549 -0.0126,-0.0465 -0.0395,-0.11009 -0.0522,-0.15691 -0.002,-0.006 0.002,-0.019 0,-0.0253 -0.0285,-0.10218 -0.0497,-0.21006 -0.0785,-0.31382 -0.16957,-0.61315 -0.35039,-1.26315 -0.54931,-1.93558 -0.0221,-0.0718 -0.0573,-0.16292 -0.0785,-0.23536 -0.100917,-0.34403 -0.229988,-0.73602 -0.340014,-1.09859 -0.168298,-0.55892 -0.336216,-1.15414 -0.523146,-1.75248 -0.140459,-0.44947 -0.294838,-0.94297 -0.444661,-1.41243 -0.171461,-0.53311 -0.389489,-1.16439 -0.575432,-1.72635 -0.369781,-1.11551 -0.77224,-2.29878 -1.203202,-3.53112 -0.557281,-1.59367 -1.073562,-3.041 -1.569376,-4.34195 -2.475874,-6.49569 -4.309085,-9.71186 -6.722228,-13.31365 -0.0032,-0.006 0.0032,-0.0221 0,-0.0253 -0.96768,-1.44372 -2.036971,-2.93088 -3.26953,-4.73432 -0.769235,-1.125442 -1.603605,-2.249873 -2.458728,-3.348016 -0.427546,-0.549087 -0.84016,-1.086311 -1.281657,-1.6217 -0.06643,-0.08067 -0.142673,-0.155327 -0.209423,-0.235364 -0.02847,-0.03353 -0.05062,-0.07118 -0.07845,-0.104711 -0.353325,-0.423675 -0.713741,-0.817624 -1.072418,-1.229384 -0.450418,-0.517168 -0.905802,-1.048856 -1.360142,-1.543246 -0.645858,-0.702769 -1.267927,-1.368494 -1.90942,-2.014036 -0.268264,-0.270162 -0.518875,-0.499958 -0.784672,-0.758542 -0.04524,-0.04397 -0.08573,-0.08731 -0.130652,-0.130652 -0.401162,-0.388034 -0.811245,-0.766356 -1.203202,-1.124716 -0.0063,-0.0063 0.0063,-0.02214 0,-0.02531 -0.698309,-0.637947 -1.38738,-1.223478 -2.040198,-1.752476 -0.320968,-0.260039 -0.635387,-0.528177 -0.941645,-0.758542 -0.0063,-0.0032 -0.01898,0.0032 -0.02531,0 -0.147418,-0.110722 -0.274907,-0.210372 -0.418498,-0.313818 -0.15944,-0.113886 -0.316475,-0.235364 -0.470822,-0.340044 -0.151848,-0.103763 -0.298001,-0.193289 -0.44466,-0.287561 -0.02531,-0.01582 -0.05378,-0.0095 -0.07846,-0.02531 -0.397904,-0.252763 -0.771702,-0.473954 -1.124716,-0.653894 -0.06738,-0.03448 -0.140142,-0.09269 -0.209106,-0.130652 C 65.008903,45.383238 53.71657,40.695262 48.108777,39.310317 44.045463,38.307301 33.190294,37.068826 25.457394,37.218333 Z"
       id="path3769" />
    <path
       inkscape:connector-curvature="0"
       style="fill:none;stroke:#000000;stroke-width:0.83700681px;stroke-linecap:butt;stroke-linejoin:miter;stroke-opacity:1"
       d="m 84.793846,80.010014 c 0,0 14.040356,-0.59493 20.016384,-0.82586 5.97602,-0.23094 19.52136,-1.54318 24.47225,-1.40927 4.9509,0.13381 7.34699,0.13097 7.34699,0.13097"
       id="path4260" />
    <path
       inkscape:connector-curvature="0"
       style="fill:#479fff;fill-opacity:1;stroke:#000000;stroke-width:0.83700681;stroke-linecap:butt;stroke-linejoin:miter;stroke-miterlimit:4;stroke-dasharray:none;stroke-opacity:1"
       d="m 8.3203555,26.8778 c 0,0 48.5213315,-2.434306 55.2010745,-2.540125 6.679741,-0.105977 64.35646,-7.510158 69.5723,-7.965859 5.2158,-0.455732 67.57184,-8.2109034 67.57184,-8.2109034 0,0 0.16735,1.472447 0.5401,5.7399014 0.39357,4.504589 0.3744,4.900152 0.3744,4.900152 0,0 -25.19938,5.598081 -31.90184,8.421559 -11.10217,4.676873 -18.9357,11.241432 -21.80853,13.74059 -4.8844,4.249073 -11.34551,13.463973 -13.79538,19.361194 -2.36857,5.701465 -4.99209,14.581195 -6.14673,24.682155 -0.99065,8.66619 -1.83033,21.196516 -1.83033,21.196516 0,0 -6.59689,1.05417 -10.86438,1.42702 -4.26745,0.37288 -12.41113,0.12876 -12.41113,0.12876 0,0 -0.539,-6.32543 -5.839165,-21.481966 C 92.52412,73.527264 90.340616,71.073244 85.410284,63.859474 80.479921,56.645707 73.375165,49.621904 69.374678,47.582497 65.374223,45.543121 53.789014,40.721108 48.099033,39.315853 43.455093,38.168962 29.939586,36.71189 22.352966,37.374767 14.766315,38.037613 7.8023655,37.523451 7.8023655,37.523451 c 0,0 -0.29547,-1.307375 -0.35874,-4.838716 -0.06327,-3.53131 0.87673,-5.807093 0.87673,-5.807093 z"
       id="path3767"
       sodipodi:nodetypes="cssczcsszscscszsssczc" />
    <path
       inkscape:connector-curvature="0"
       style="fill:none;stroke:#000000;stroke-width:0.83700681px;stroke-linecap:butt;stroke-linejoin:miter;stroke-opacity:1"
       d="m 92.679827,71.435944 c 0,0 12.529693,-0.79824 15.363803,-0.97879 2.83411,-0.18063 22.58495,-1.97585 22.58495,-1.97585"
       id="path4262"
       sodipodi:nodetypes="csc" />
    <path
       inkscape:connector-curvature="0"
       style="color:#000000;font-style:normal;font-variant:normal;font-weight:normal;font-stretch:normal;font-size:medium;line-height:normal;font-family:'AR PL UMing CN';-inkscape-font-specification:'AR PL UMing CN';text-indent:0;text-align:start;text-decoration:none;text-decoration-line:none;letter-spacing:normal;word-spacing:normal;text-transform:none;writing-mode:lr-tb;direction:ltr;text-anchor:start;display:inline;overflow:visible;visibility:visible;fill:#479fff;fill-opacity:1;fill-rule:nonzero;stroke:#000000;stroke-width:0.83700681;stroke-linecap:butt;stroke-linejoin:miter;stroke-miterlimit:4;stroke-dasharray:none;stroke-dashoffset:0;stroke-opacity:1;marker:none;enable-background:accumulate"
       d="m 198.80835,18.022874 -5.06165,0.567593 c -4.5565,2.858277 -8.51786,5.253735 -15.27536,9.390157 -8.0334,4.917456 -10.13861,6.301736 -16.60937,11.482711 -11.65189,9.32945 -18.87765,19.827209 -26.47035,34.945019 -4.26296,8.48803 -9.04568,16.83971 -10.69797,23.17463 l 4.0281,1.04626 c 1.36223,-5.22289 6.06179,-13.73145 10.3841,-22.33763 7.46568,-14.864923 14.24988,-24.679811 25.37179,-33.584878 6.41053,-5.132764 8.17307,-6.260959 16.19084,-11.16883 6.7458,-4.129241 10.73189,-6.507237 15.32768,-9.390157 l -1.12471,-1.778641 1.88325,0.941645 z m -177.615815,17.516974 -1.46476,3.923487 c 4.347743,1.654664 7.155025,2.154179 13.575202,4.891263 7.359038,3.137328 14.216695,6.871955 15.772341,8.056176 8.566163,6.520998 20.973784,14.55895 31.701623,27.64739 4.224557,5.15412 8.758598,11.00933 12.450486,15.95544 3.691888,4.946116 6.605204,9.074696 7.402273,10.357966 l 3.84501,-1.49093 c 0.006,0.0316 -0.01,-0.10123 -0.0522,-0.31381 l -1.25553,0.23536 1.0201,-0.62776 c -1.05667,-1.70123 -3.88904,-5.658566 -7.611512,-10.645646 -3.722477,-4.98712 -8.271513,-10.9124 -12.5551,-16.13855 C 72.821839,63.727404 59.910622,55.399545 51.586465,49.062789 48.995029,47.090036 42.490355,43.708835 34.924804,40.483466 28.268187,37.645594 25.226301,37.074995 21.192661,35.53988 Z"
       id="path3729"
       sodipodi:nodetypes="ccccccccsccccccccccsccccccccscc" />
    <path
       inkscape:connector-curvature="0"
       style="color:#000000;font-style:normal;font-variant:normal;font-weight:normal;font-stretch:normal;font-size:medium;line-height:normal;font-family:'AR PL UMing CN';-inkscape-font-specification:'AR PL UMing CN';text-indent:0;text-align:start;text-decoration:none;text-decoration-line:none;letter-spacing:normal;word-spacing:normal;text-transform:none;writing-mode:lr-tb;direction:ltr;text-anchor:start;display:inline;overflow:visible;visibility:visible;fill:#479fff;fill-opacity:1;fill-rule:nonzero;stroke:#000000;stroke-width:0.83700681;stroke-linecap:butt;stroke-linejoin:miter;stroke-miterlimit:4;stroke-dasharray:none;stroke-dashoffset:0;stroke-opacity:1;marker:none;enable-background:accumulate"
       d="m 201.13778,16.747797 c 0,0 -6.33273,1.406013 -13.49674,3.164946 -7.16401,1.758901 -15.02045,3.80435 -18.78032,5.388215 -11.42327,4.812143 -19.43879,11.527664 -22.36379,14.072186 -5.32523,4.632552 -11.70624,13.752769 -14.3599,20.140489 -2.45386,5.906771 -5.098,14.948311 -6.27754,25.267151 -1.00134,8.75973 -1.85713,21.291356 -1.85713,21.291356 l 4.18505,0.26162 c 0,0 0.85101,-12.509476 1.83096,-21.082126 1.12972,-9.88309 3.70654,-18.62008 5.98982,-24.116238 2.24608,-5.40669 8.79166,-14.731711 13.23516,-18.597274 2.82072,-2.453793 10.45793,-8.850466 21.23907,-13.3921 2.94252,-1.239582 11.04128,-3.406826 18.15259,-5.152819 7.11127,-1.745994 13.39209,-3.138784 13.39209,-3.138784 z M 28.975923,35.135807 c -2.452685,-0.05441 -4.784115,-0.01898 -6.80065,0.156909 -7.382574,0.645036 -14.2291265,0.156909 -14.2291265,0.156909 l -0.287561,4.158851 c 0,0 7.0923235,0.523779 14.8830195,-0.156909 7.107098,-0.620961 20.93095,0.864044 25.057882,1.883289 5.250097,1.29662 17.087404,6.205377 20.820544,8.108501 1.580828,0.805868 4.337589,2.984152 7.140726,5.806745 2.803169,2.822561 5.75518,6.300977 8.134662,9.782492 4.968009,7.26888 6.883787,9.31771 11.299609,21.94529 5.254872,15.027026 5.754412,20.951326 5.754412,20.951326 l 4.15889,-0.34005 c 0,0 -0.59208,-6.71153 -5.937529,-21.997576 C 94.469698,72.720094 92.04077,69.837214 87.148084,62.678515 84.597204,58.946261 81.498375,55.297016 78.516438,52.294421 75.5345,49.291794 72.749142,46.962643 70.329451,45.729134 66.061712,43.553475 54.723319,38.794479 48.593455,37.28059 44.722767,36.324647 36.334234,35.29879 28.976082,35.135775 Z"
       id="path2917" />
    <path
       inkscape:connector-curvature="0"
       style="color:#000000;font-style:normal;font-variant:normal;font-weight:normal;font-stretch:normal;font-size:medium;line-height:normal;font-family:'AR PL UMing CN';-inkscape-font-specification:'AR PL UMing CN';text-indent:0;text-align:start;text-decoration:none;text-decoration-line:none;letter-spacing:normal;word-spacing:normal;text-transform:none;writing-mode:lr-tb;direction:ltr;text-anchor:start;display:inline;overflow:visible;visibility:visible;fill:#479fff;fill-opacity:1;fill-rule:nonzero;stroke:#000000;stroke-width:0.83700681;stroke-linecap:butt;stroke-linejoin:miter;stroke-miterlimit:4;stroke-dasharray:none;stroke-dashoffset:0;stroke-opacity:1;marker:none;enable-background:accumulate"
       d="m 200.41018,6.0753816 c 0,0 -15.58082,1.939916 -31.81987,3.9354464 -16.23905,1.99553 -33.37347,4.071222 -35.67636,4.27242 -2.92057,0.255294 -18.39712,2.205111 -34.297586,4.125698 -7.950257,0.960278 -15.962777,1.896892 -22.378335,2.611651 -6.415559,0.714759 -11.42773,1.19871 -12.758927,1.21981 -7.02741,0.111355 -55.2569095,2.543668 -55.2569095,2.543668 l -0.834371,4.273876 c 0,0 49.8368695,-2.52301 56.1689445,-2.623356 2.008658,-0.03164 6.709257,-0.53637 13.149776,-1.253945 6.440486,-0.717542 14.448483,-1.652987 22.40437,-2.613928 15.911788,-1.921979 31.872068,-3.913776 34.167308,-4.11431 2.91291,-0.254661 19.56372,-2.287804 35.80663,-4.283809 16.24292,-1.996004 31.84595,-3.937754 31.84595,-3.937754 z"
       id="path4128"
       sodipodi:nodetypes="csssssccssssscc" />
  </g>
</svg>
