<?xml version="1.0" encoding="UTF-8" standalone="no"?>
<!-- Created with Inkscape (http://www.inkscape.org/) -->

<svg
   xmlns:dc="http://purl.org/dc/elements/1.1/"
   xmlns:cc="http://creativecommons.org/ns#"
   xmlns:rdf="http://www.w3.org/1999/02/22-rdf-syntax-ns#"
   xmlns:svg="http://www.w3.org/2000/svg"
   xmlns="http://www.w3.org/2000/svg"
   xmlns:sodipodi="http://sodipodi.sourceforge.net/DTD/sodipodi-0.dtd"
   xmlns:inkscape="http://www.inkscape.org/namespaces/inkscape"
   width="100mm"
   height="100mm"
   viewBox="0 0 100 99.999999"
   version="1.1"
   id="svg8"
   inkscape:version="0.92.2 (5c3e80d, 2017-08-06)"
   sodipodi:docname="strangeCurrency.svg">
  <defs
     id="defs2" />
  <sodipodi:namedview
     id="base"
     pagecolor="#ffffff"
     bordercolor="#666666"
     borderopacity="1.0"
     inkscape:pageopacity="0.0"
     inkscape:pageshadow="2"
     inkscape:zoom="1.7130767"
     inkscape:cx="123.7279"
     inkscape:cy="229.48835"
     inkscape:document-units="mm"
     inkscape:current-layer="layer1"
     showgrid="false"
     inkscape:pagecheckerboard="true"
     inkscape:window-width="1920"
     inkscape:window-height="1056"
     inkscape:window-x="0"
     inkscape:window-y="24"
     inkscape:window-maximized="1"
     fit-margin-top="0"
     fit-margin-left="0"
     fit-margin-right="0"
     fit-margin-bottom="0" />
  <metadata
     id="metadata5">
    <rdf:RDF>
      <cc:Work
         rdf:about="">
        <dc:format>image/svg+xml</dc:format>
        <dc:type
           rdf:resource="http://purl.org/dc/dcmitype/StillImage" />
        <dc:title></dc:title>
      </cc:Work>
    </rdf:RDF>
  </metadata>
  <g
     inkscape:label="Layer 1"
     inkscape:groupmode="layer"
     id="layer1"
     transform="translate(96.527105,-179.758)">
    <g
       id="g4524"
       transform="matrix(3.9915916,0,0,3.9915916,288.76968,-849.0336)">
      <path
         sodipodi:nodetypes="ccccc"
         inkscape:connector-curvature="0"
         transform="matrix(0.92624854,0.3769133,-0.42896596,0.90332066,0,0)"
         id="rect3696"
         d="m 29.38924,276.42108 c 7.707902,1.23181 17.069771,-0.77718 21.461897,0 v 12.06066 c -7.153944,-3.5e-4 -14.201217,-1.74358 -21.461897,0 z"
         style="opacity:1;vector-effect:none;fill:#007f01;fill-opacity:1;stroke:none;stroke-width:81.26972198px;stroke-linecap:butt;stroke-linejoin:round;stroke-miterlimit:4;stroke-dasharray:none;stroke-dashoffset:0;stroke-opacity:1" />
      <path
         sodipodi:nodetypes="csscsssscssccc"
         inkscape:connector-curvature="0"
         id="path4514"
         transform="matrix(0.26458333,0,0,0.26458333,0,197)"
         d="m -323.26758,260.40234 c -5.4239,0.0265 -9.4777,2.82797 -11.85156,6.78711 -0.86178,1.43729 -8.84686,4.7907 -7.30954,5.81663 0.28535,0.19043 5.42421,-1.29876 6.46864,0.15581 2.77078,2.01891 4.48071,4.46717 9.06099,5.79174 1.35294,0.39126 0.23919,-2.68864 0.93995,-3.68439 2.57633,-3.66085 10.89278,-2.27287 11.42929,1.25807 0.73764,4.85469 -3.18728,3.79728 -3.40072,5.06147 -0.22967,1.36024 11.72334,2.1058 9.47674,-8.93116 -0.67043,-3.14792 6.25284,0.84028 7.94592,-0.4915 0.7713,-0.60671 -2.65779,-3.71278 -2.16797,-4.2385 0.19448,-0.20872 -6.48302,2.4738 -6.30854,2.26965 -0.73967,-5.21118 -3.04571,-7.73628 -10.31445,-9.34961 -1.39385,-0.30938 -2.71708,-0.45142 -3.96875,-0.44532 z"
         style="opacity:1;vector-effect:none;fill:#ffe400;fill-opacity:1;stroke:none;stroke-width:684.50317383px;stroke-linecap:butt;stroke-linejoin:round;stroke-miterlimit:4;stroke-dasharray:none;stroke-dashoffset:0;stroke-opacity:1" />
      <path
         sodipodi:nodetypes="ccccccccc"
         inkscape:connector-curvature="0"
         id="path4518"
         d="m -90.263786,262.35247 c -0.378055,0.51414 -0.868042,0.75354 -1.528969,0.57336 l -2.757603,6.47082 c 0.825631,0.33212 1.314815,0.8685 1.419756,1.63818 5.658559,1.9365 10.192191,4.20387 14.634419,6.49812 0.371398,-0.78126 1.025095,-0.9838 1.911213,-0.70988 l 3.221754,-6.60733 c -0.745355,-0.31928 -0.972831,-0.91188 -0.791787,-1.72009 -5.410466,-1.67988 -10.770879,-3.81024 -16.108783,-6.14318 z"
         style="fill:none;stroke:#ffe300;stroke-width:0.26458332px;stroke-linecap:butt;stroke-linejoin:miter;stroke-opacity:1" />
    </g>
  </g>
</svg>
