<?xml version="1.0" encoding="UTF-8" standalone="no"?>
<svg
   xmlns:dc="http://purl.org/dc/elements/1.1/"
   xmlns:cc="http://creativecommons.org/ns#"
   xmlns:rdf="http://www.w3.org/1999/02/22-rdf-syntax-ns#"
   xmlns:svg="http://www.w3.org/2000/svg"
   xmlns="http://www.w3.org/2000/svg"
   xmlns:sodipodi="http://sodipodi.sourceforge.net/DTD/sodipodi-0.dtd"
   xmlns:inkscape="http://www.inkscape.org/namespaces/inkscape"
   version="1.0"
   width="217.000000pt"
   height="322.000000pt"
   viewBox="0 0 217.000000 322.000000"
   preserveAspectRatio="xMidYMid meet"
   id="svg26"
   sodipodi:docname="shirt.svg"
   inkscape:version="0.92.1 r15371">
  <defs
     id="defs30" />
  <sodipodi:namedview
     pagecolor="#ffffff"
     bordercolor="#666666"
     borderopacity="1"
     objecttolerance="10"
     gridtolerance="10"
     guidetolerance="10"
     inkscape:pageopacity="0"
     inkscape:pageshadow="2"
     inkscape:window-width="1920"
     inkscape:window-height="1056"
     id="namedview28"
     showgrid="false"
     inkscape:pagecheckerboard="true"
     inkscape:zoom="2.1987578"
     inkscape:cx="144.97715"
     inkscape:cy="297.32924"
     inkscape:window-x="0"
     inkscape:window-y="24"
     inkscape:window-maximized="1"
     inkscape:current-layer="svg26" />
  <metadata
     id="metadata2">
Created by potrace 1.13, written by Peter Selinger 2001-2015
<rdf:RDF>
  <cc:Work
     rdf:about="">
    <dc:format>image/svg+xml</dc:format>
    <dc:type
       rdf:resource="http://purl.org/dc/dcmitype/StillImage" />
    <dc:title></dc:title>
  </cc:Work>
</rdf:RDF>
</metadata>
  <path
     style="opacity:1;vector-effect:none;fill:#f2f2f2;fill-opacity:1;stroke:none;stroke-width:513.37738037px;stroke-linecap:butt;stroke-linejoin:round;stroke-miterlimit:4;stroke-dasharray:none;stroke-dashoffset:0;stroke-opacity:1"
     d="m 33.5,1.7 23.631692,2.6571364 c 1.017964,29.8710866 4.083435,58.4159466 44.354658,62.8616286 60.95316,27.605206 60.27632,-20.266441 65.47549,-56.518221 l 23.714,-4.2196027 C 193.87907,8.6599057 202.20642,44.539262 200.47732,54.99969 184.39197,152.30985 202.04641,219.08423 212.7,312.7 143.14601,324.29156 78.186507,318.53167 2.2085894,296.58467 14.720354,204.04627 47.513349,116.96977 33.5,1.7 Z"
     id="rect4508"
     inkscape:connector-curvature="0"
     sodipodi:nodetypes="cccccsccc" />
  <g
     transform="translate(0.000000,322.000000) scale(0.100000,-0.100000)"
     fill="#000000"
     stroke="none"
     id="g24">
    <path
       d="M335 3203 c-16 -15 -16 -34 -9 -202 14 -301 9 -874 -10 -1029 -17 -143 -82 -476 -141 -718 -47 -196 -135 -671 -171 -927 -11 -78 25 -105 173 -131 51 -8 134 -29 185 -45 185 -60 280 -83 395 -96 65 -8 145 -19 178 -25 34 -5 156 -14 273 -19 205 -9 356 -3 497 19 33 6 94 10 135 10 68 0 272 38 287 53 3 4 -4 89 -16 189 -30 253 -53 473 -56 538 -4 67 -20 223 -40 390 -40 325 -46 392 -55 635 -11 276 -7 328 47 660 24 151 13 433 -23 547 -14 46 -34 92 -45 103 -18 18 -23 18 -121 6 -102 -13 -152 -31 -163 -60 -4 -9 -11 -65 -16 -126 -5 -60 -13 -126 -18 -145 -29 -108 -38 -130 -70 -180 -19 -30 -57 -79 -84 -107 l-50 -53 -76 0 c-92 0 -160 14 -356 75 -154 48 -231 87 -264 134 -39 56 -104 187 -117 235 -10 35 -12 78 -8 139 6 75 4 90 -11 107 -35 39 -218 56 -250 23z m173 -32 c23 -5 45 -10 47 -13 2 -2 -5 -69 -16 -148 -25 -174 -22 -286 9 -345 59 -113 121 -172 253 -242 113 -61 182 -76 339 -77 125 -1 139 1 184 24 63 31 199 165 256 249 56 84 99 234 100 352 0 78 10 118 30 129 9 5 56 14 104 20 73 10 90 10 98 -1 5 -8 7 -53 3 -104 -19 -276 -23 -480 -14 -700 5 -132 13 -352 19 -490 5 -137 18 -320 29 -405 18 -144 40 -329 57 -495 4 -38 8 -92 9 -120 2 -57 56 -552 71 -647 l5 -36 -73 -18 c-40 -9 -129 -20 -198 -25 -69 -4 -165 -12 -215 -19 -118 -16 -577 -7 -690 13 -44 8 -114 18 -155 22 -79 7 -249 48 -390 95 -47 16 -128 36 -180 46 -52 9 -108 23 -123 31 -26 13 -28 18 -23 51 57 374 123 734 170 927 56 231 134 632 147 760 15 141 18 776 5 1013 l-8 162 53 0 c30 -1 73 -5 97 -9z m1468 -382 c5 -138 3 -195 -9 -274 -9 -55 -18 -113 -20 -130 -2 -16 -5 69 -5 190 -2 243 7 425 19 403 4 -8 11 -93 15 -189z m-1284 -126 c27 -33 131 -89 212 -115 281 -87 325 -98 408 -98 l63 0 -36 -25 c-56 -37 -118 -49 -229 -42 -127 8 -205 28 -302 80 -94 50 -172 122 -213 197 -25 48 -30 68 -33 150 l-3 95 61 -115 c34 -63 66 -120 72 -127z"
       id="path4" />
    <path
       d="M514 1918 c-40 -80 -56 -130 -44 -142 14 -14 33 9 54 67 10 27 21 45 24 42 4 -3 9 -29 12 -58 5 -51 6 -52 40 -54 34 -3 36 0 72 65 l37 67 1 -57 c0 -65 7 -88 25 -88 20 0 27 34 20 95 -8 61 -33 102 -57 92 -9 -3 -33 -38 -54 -77 l-39 -72 -10 74 c-17 116 -39 129 -81 46z"
       id="path6" />
    <path
       d="M896 1930 c-43 -8 -58 -23 -87 -85 -38 -81 -15 -108 86 -103 45 2 60 7 60 18 0 11 -15 16 -63 18 -60 3 -63 4 -56 25 3 12 15 36 26 54 17 28 25 32 76 38 31 3 64 7 72 8 8 1 15 9 15 17 0 18 -66 23 -129 10z"
       id="path8" />
    <path
       d="M1565 1908 c-64 -35 -80 -80 -50 -137 13 -27 85 -71 113 -71 7 0 12 -4 12 -10 0 -17 41 -33 53 -21 16 16 -35 66 -83 80 -72 21 -94 88 -39 117 l32 16 -6 -31 c-7 -34 7 -49 28 -31 21 17 19 64 -3 83 -22 20 -30 20 -57 5z"
       id="path10" />
    <path
       d="M1256 1895 c-31 -31 -42 -79 -37 -153 2 -20 126 -12 126 8 0 10 -13 16 -42 18 -41 3 -43 5 -43 36 0 53 17 67 68 55 43 -9 62 -6 62 11 0 14 -29 27 -76 34 -32 6 -45 3 -58 -9z"
       id="path12" />
    <path
       d="M1025 1851 c-20 -40 -24 -96 -6 -96 15 0 54 93 46 113 -8 20 -24 14 -40 -17z"
       id="path14" />
    <path
       d="M599 1667 c-15 -18 -37 -56 -49 -85 -38 -87 -50 -87 -50 1 0 76 -16 113 -44 104 -16 -5 -157 -219 -153 -232 8 -22 32 -7 63 40 19 28 47 70 64 95 l30 44 0 -66 c0 -75 12 -118 34 -118 20 0 65 56 89 110 31 70 49 94 58 78 5 -7 9 -30 9 -51 0 -64 22 -181 36 -197 23 -24 34 0 23 49 -5 24 -14 87 -19 138 -12 129 -39 156 -91 90z"
       id="path16" />
    <path
       d="M813 1628 c-29 -14 -32 -23 -43 -135 -14 -129 0 -149 96 -141 58 5 53 32 -6 36 -25 2 -49 7 -53 11 -4 4 -5 26 -1 48 6 39 7 40 38 33 17 -5 45 -14 61 -20 28 -12 30 -15 27 -60 -3 -42 -1 -50 21 -65 32 -21 112 -17 112 5 0 10 -14 17 -45 20 -40 4 -45 8 -48 32 -2 14 8 68 22 119 14 51 22 96 18 100 -10 8 -119 29 -151 28 -14 0 -36 -5 -48 -11z m110 -37 c21 -5 40 -11 43 -13 3 -4 -15 -79 -20 -85 -2 -2 -24 4 -50 13 -26 9 -56 14 -67 11 -18 -5 -19 -2 -13 31 10 54 28 61 107 43z"
       id="path18" />
    <path
       d="M1191 1576 c-23 -24 -23 -30 -19 -151 5 -156 8 -160 111 -160 57 0 72 3 72 15 0 11 -13 16 -45 18 -79 4 -89 9 -96 48 -3 19 -4 37 -1 41 3 3 41 8 84 12 60 5 78 9 78 21 0 12 -16 15 -82 15 l-83 -1 0 59 0 59 42 -7 c23 -4 62 -16 87 -27 45 -19 71 -18 71 2 0 13 -89 54 -135 63 -16 3 -37 8 -45 12 -10 3 -25 -4 -39 -19z"
       id="path20" />
    <path
       d="M1553 1559 c-34 -10 -83 -64 -83 -92 0 -21 55 -66 110 -90 52 -23 80 -45 80 -63 0 -10 -24 -14 -87 -16 -70 -2 -88 -6 -88 -18 0 -12 17 -16 81 -18 103 -4 134 7 134 47 0 21 -11 38 -40 65 -22 20 -45 36 -52 36 -6 0 -31 11 -54 25 -40 24 -43 27 -32 50 7 16 24 29 47 35 52 14 65 13 95 -11 19 -15 31 -18 38 -11 16 16 3 37 -35 55 -39 19 -66 20 -114 6z"
       id="path22" />
  </g>
</svg>
