<?xml version="1.0" encoding="UTF-8" standalone="no"?>
<!-- Created with Inkscape (http://www.inkscape.org/) -->

<svg
   xmlns:dc="http://purl.org/dc/elements/1.1/"
   xmlns:cc="http://creativecommons.org/ns#"
   xmlns:rdf="http://www.w3.org/1999/02/22-rdf-syntax-ns#"
   xmlns:svg="http://www.w3.org/2000/svg"
   xmlns="http://www.w3.org/2000/svg"
   xmlns:sodipodi="http://sodipodi.sourceforge.net/DTD/sodipodi-0.dtd"
   xmlns:inkscape="http://www.inkscape.org/namespaces/inkscape"
   width="100mm"
   height="100mm"
   viewBox="0 0 100 100"
   version="1.1"
   id="svg8"
   inkscape:version="0.92.1 r15371"
   sodipodi:docname="bed01.svg">
  <defs
     id="defs2" />
  <sodipodi:namedview
     id="base"
     pagecolor="#ffffff"
     bordercolor="#666666"
     borderopacity="1.0"
     inkscape:pageopacity="0.0"
     inkscape:pageshadow="2"
     inkscape:zoom="1.4142136"
     inkscape:cx="186.33785"
     inkscape:cy="137.21778"
     inkscape:document-units="mm"
     inkscape:current-layer="layer1"
     showgrid="false"
     inkscape:pagecheckerboard="true"
     inkscape:window-width="1920"
     inkscape:window-height="1056"
     inkscape:window-x="0"
     inkscape:window-y="24"
     inkscape:window-maximized="1" />
  <metadata
     id="metadata5">
    <rdf:RDF>
      <cc:Work
         rdf:about="">
        <dc:format>image/svg+xml</dc:format>
        <dc:type
           rdf:resource="http://purl.org/dc/dcmitype/StillImage" />
        <dc:title></dc:title>
      </cc:Work>
    </rdf:RDF>
  </metadata>
  <g
     inkscape:label="Layer 1"
     inkscape:groupmode="layer"
     id="layer1"
     transform="translate(0,-197)">
    <g
       id="g4534"
       transform="translate(4.120134e-4,-2.499581)">
      <path
         inkscape:connector-curvature="0"
         id="railingA"
         d="m 50.641868,202.00073 c -10.185092,-0.0528 -19.8458,1.15136 -23.832653,3.13159 -1.272442,0.63201 -2.101425,1.22382 -2.059305,1.86759 v 80.00028 h 2.249993 v -80.00028 c 0.995022,-2.17853 1.062369,-2.00601 5.095812,-2.95176 4.307316,-1.00996 4.304165,-1.03191 4.948018,2.95176 h 1.636593 c -0.343461,-3.95021 -0.307782,-3.91351 5.627047,-4.34444 5.181198,-0.37621 5.16572,-0.2412 5.130954,4.34444 h 1.77715 c -0.573653,-4.99928 -0.721794,-4.73146 6.363954,-4.36149 5.189519,0.27096 5.226508,0.367 4.8612,4.36149 h 1.964741 c 0.107749,-3.68167 0.05155,-3.67477 4.256069,-2.75953 4.030461,0.87736 4.09395,0.89662 4.838464,2.75953 v 80.00028 h 1.750282 v -80.00028 c 0.07623,-2.13341 -6.969196,-4.07024 -17.536398,-4.75579 -2.342986,-0.152 -4.721513,-0.2312 -7.071921,-0.24339 z"
         style="opacity:1;vector-effect:none;fill:#999999;fill-opacity:1;stroke:none;stroke-width:184.07461548px;stroke-linecap:butt;stroke-linejoin:round;stroke-miterlimit:4;stroke-dasharray:none;stroke-dashoffset:0;stroke-opacity:1" />
      <rect
         y="207"
         x="25"
         height="84"
         width="50"
         id="color"
         style="opacity:1;vector-effect:none;fill:#cccccc;fill-opacity:1;stroke:none;stroke-width:134.29920959px;stroke-linecap:butt;stroke-linejoin:round;stroke-miterlimit:4;stroke-dasharray:none;stroke-dashoffset:0;stroke-opacity:1" />
      <rect
         y="288.5"
         x="25"
         height="2.5"
         width="50"
         id="rect4518"
         style="opacity:0.5;vector-effect:none;fill:#b3b3b3;fill-opacity:1;stroke:none;stroke-width:354.22546387px;stroke-linecap:butt;stroke-linejoin:round;stroke-miterlimit:4;stroke-dasharray:none;stroke-dashoffset:0;stroke-opacity:1" />
      <path
         sodipodi:nodetypes="csccccccccscccccccccccsccccscccccc"
         inkscape:connector-curvature="0"
         id="railingB"
         d="m 50.641868,282.0005 c -10.185092,-0.0528 -19.8458,1.15136 -23.832653,3.13159 C 25.536776,285.7641 24.70788,286.35623 24.75,287 v 10.0001 h 2.374959 L 27.045377,292.5 h 46.454528 v 4.5001 h 1.750094 v -9.99991 c 0.07623,-2.13341 -6.969008,-4.07075 -17.53621,-4.7563 -2.342986,-0.152 -4.72151,-0.2312 -7.071921,-0.24339 z m 5.129922,0.59066 c 0.54274,-0.003 1.143352,0.0129 1.807641,0.0475 5.189519,0.27097 5.226511,4.36683 4.8612,8.36131 H 51.215477 c -0.519872,-4.53059 -0.690181,-8.37767 4.556313,-8.40885 z m -10.552329,0.0227 c 4.267348,-0.0586 4.251454,4.08709 4.218866,8.38612 H 38.680326 c -0.343461,-3.95021 -0.307782,-7.91384 5.627047,-8.34477 0.323824,-0.0235 0.6276,-0.0374 0.912088,-0.0414 z m -11.122835,1.17461 c 2.327958,0.0618 2.423978,3.97477 2.947107,7.21151 H 27.032458 l -0.03255,-3.99982 c 0.995014,-2.17852 1.062369,-2.00652 5.095812,-2.95228 0.807622,-0.18936 1.463691,-0.27369 2.000911,-0.25941 z M 66.985575,284.02 c 0.465791,0.006 1.01891,0.0777 1.675866,0.22066 4.030461,0.87735 4.09395,0.89661 4.838464,2.75952 V 291 h -9.094533 c 0.0909,-3.10642 0.06493,-7.01054 2.580203,-6.98 z"
         style="opacity:1;vector-effect:none;fill:#999999;fill-opacity:1;stroke:none;stroke-width:184.07461548px;stroke-linecap:butt;stroke-linejoin:round;stroke-miterlimit:4;stroke-dasharray:none;stroke-dashoffset:0;stroke-opacity:1" />
    </g>
  </g>
</svg>
