<?xml version="1.0" encoding="UTF-8" standalone="no"?>
<svg
   xmlns:dc="http://purl.org/dc/elements/1.1/"
   xmlns:cc="http://creativecommons.org/ns#"
   xmlns:rdf="http://www.w3.org/1999/02/22-rdf-syntax-ns#"
   xmlns:svg="http://www.w3.org/2000/svg"
   xmlns="http://www.w3.org/2000/svg"
   xmlns:sodipodi="http://sodipodi.sourceforge.net/DTD/sodipodi-0.dtd"
   xmlns:inkscape="http://www.inkscape.org/namespaces/inkscape"
   version="1.0"
   width="162.000000pt"
   height="162.000000pt"
   viewBox="0 0 162.000000 162.000000"
   preserveAspectRatio="xMidYMid meet"
   id="svg38"
   sodipodi:docname="alBuilding (copy).svg"
   inkscape:version="0.92.1 r15371">
  <defs
     id="defs42" />
  <sodipodi:namedview
     pagecolor="#ffffff"
     bordercolor="#666666"
     borderopacity="1"
     objecttolerance="10"
     gridtolerance="10"
     guidetolerance="10"
     inkscape:pageopacity="0"
     inkscape:pageshadow="2"
     inkscape:window-width="730"
     inkscape:window-height="480"
     id="namedview40"
     showgrid="false"
     inkscape:zoom="0.77257963"
     inkscape:cx="51.458813"
     inkscape:cy="96.860457"
     inkscape:window-x="776"
     inkscape:window-y="223"
     inkscape:window-maximized="0"
     inkscape:current-layer="svg38"
     inkscape:pagecheckerboard="true" />
  <metadata
     id="metadata32">
Created by potrace 1.13, written by Peter Selinger 2001-2015
<rdf:RDF>
  <cc:Work
     rdf:about="">
    <dc:format>image/svg+xml</dc:format>
    <dc:type
       rdf:resource="http://purl.org/dc/dcmitype/StillImage" />
    <dc:title />
  </cc:Work>
</rdf:RDF>
</metadata>
  <g
     transform="matrix(0.1,0,0,-0.1,-7.5,157.5)"
     id="g36"
     style="fill:#ffffff;stroke:none">
    <path
       d="m 745,1490 -39,-40 H 520 334 l -42,-43 -42,-43 V 712 60 h 214 c 133,0 217,4 221,10 3,5 17,10 31,10 30,0 33,-29 4,-50 C 709,22 700,12 700,8 700,4 745,0 801,0 h 101 l 38,40 38,40 h 244 c 243,0 245,0 266,23 l 22,23 v 662 662 h -173 -173 l -39,40 -39,40 H 935 784 Z"
       id="path34"
       inkscape:connector-curvature="0" />
  </g>
  <path
     style="fill:#d16d59;stroke:none;stroke-width:0.1"
     id="path4"
     d="M 86.5,4 H 70.4 l -3.9,4 -3.9,4 H 44 25.4 L 21.2,16.3 17,20.6 V 86.8 153 h 22 c 15.5,0 22.6,-0.4 24,-1.2 1,-0.7 2.2,-0.9 2.6,-0.5 0.4,0.4 -0.3,1.5 -1.4,2.6 -1.2,1 -2.2,2.3 -2.2,3 0,0.7 3.6,1.1 11.5,1.1 h 11.4 l 3.5,-3.5 3.5,-3.5 h 24.4 c 24.2,0 24.4,0 26.5,-2.3 l 2.2,-2.3 V 79.2 12 h -17.3 -17.3 l -3.9,-4 -3.9,-4 z m 0,3 h 14.1 l 3.9,4 3.9,4 h 14.9 c 9.6,0 14.6,0.4 14.2,1 -0.4,0.6 -13.3,1 -35.4,1 -33.5,0 -34.9,0.1 -36.6,2 -1.7,1.9 -3.1,2 -22.8,2 H 21.6 l 2.9,-3 2.9,-3 H 46 64.6 l 3.9,-4 3.9,-4 z m 54.7,11 c 0.4,0 0.8,28.5 0.8,63.3 0,47.9 -0.3,63.6 -1.2,64.5 -0.7,0.7 -1.6,1.2 -2,1.2 -0.4,0 -0.8,-28.5 -0.8,-63.3 0,-47.9 0.3,-63.6 1.2,-64.5 0.7,-0.7 1.6,-1.2 2,-1.2 z m -39.5,3 H 135 V 84.5 148 H 110 85 V 136.5 125 H 76.5 68 v 11.5 c 0,9.6 -0.3,11.5 -1.5,11.5 -1.3,0 -1.5,-7.5 -1.5,-61.7 0,-56 0.2,-61.8 1.7,-63.5 1.5,-1.7 3.9,-1.8 35,-1.8 z M 41,24 h 21 v 61.8 c 0,46.7 -0.3,62.1 -1.2,63 -0.9,0.9 -6.9,1.2 -21,1.2 H 20 V 87 24 Z M 76.5,128 H 82 v 10 10 H 76.5 71 v -10 -10 z"
     inkscape:connector-curvature="0" />
  <rect
     style="opacity:1;vector-effect:none;fill:#1a1a1a;fill-opacity:1;stroke-width:0.84104967;stroke-linecap:butt;stroke-linejoin:miter;stroke-miterlimit:4;stroke-dasharray:none;stroke-dashoffset:0;stroke-opacity:1"
     id="rect4509"
     width="12"
     height="16"
     x="71"
     y="40" />
  <path
     style="fill:#d16d59;stroke:none;stroke-width:0.1"
     id="path6"
     d="m 77,40 h -6 v 8 8 h 6 6 v -8 -8 z m 0,3 c 2.9,0 3,0.1 3,5 0,4.9 -0.1,5 -3,5 -2.9,0 -3,-0.1 -3,-5 0,-4.9 0.1,-5 3,-5 z"
     inkscape:connector-curvature="0" />
  <rect
     style="opacity:1;vector-effect:none;fill:#1a1a1a;fill-opacity:1;stroke-width:0.84104967;stroke-linecap:butt;stroke-linejoin:miter;stroke-miterlimit:4;stroke-dasharray:none;stroke-dashoffset:0;stroke-opacity:1"
     id="rect4505"
     width="12"
     height="16"
     x="106"
     y="40" />
  <path
     style="fill:#d16d59;stroke:none;stroke-width:0.1"
     id="path8"
     d="m 112,40 h -6 v 8 8 h 6 6 v -8 -8 z m 0,3 c 2.9,0 3,0.1 3,5 0,4.9 -0.1,5 -3,5 -2.9,0 -3,-0.1 -3,-5 0,-4.9 0.1,-5 3,-5 z"
     inkscape:connector-curvature="0" />
  <rect
     style="opacity:1;vector-effect:none;fill:#1a1a1a;fill-opacity:1;stroke-width:0.84104967;stroke-linecap:butt;stroke-linejoin:miter;stroke-miterlimit:4;stroke-dasharray:none;stroke-dashoffset:0;stroke-opacity:1"
     id="rect4511"
     width="12"
     height="16"
     x="71"
     y="84" />
  <path
     style="fill:#d16d59;stroke:none;stroke-width:0.1"
     id="path10"
     d="m 77,84 h -6 v 8 8 h 6 6 v -8 -8 z m 0,3 c 2.9,0 3,0.1 3,5 0,4.9 -0.1,5 -3,5 -2.9,0 -3,-0.1 -3,-5 0,-4.9 0.1,-5 3,-5 z"
     inkscape:connector-curvature="0" />
  <path
     style="fill:#d16d59;stroke:none;stroke-width:0.1"
     id="path12"
     d="m 112,84 h -6 v 8 8 h 6 6 v -8 -8 z m 0,3 c 2.9,0 3,0.1 3,5 0,4.9 -0.1,5 -3,5 -2.9,0 -3,-0.1 -3,-5 0,-4.9 0.1,-5 3,-5 z"
     inkscape:connector-curvature="0" />
  <path
     style="fill:#d16d59;stroke:none;stroke-width:0.1"
     id="path14"
     d="m 112,125 h -6 v 8 8 h 6 6 v -8 -8 z m 0,3 c 2.9,0 3,0.1 3,5 0,4.9 -0.1,5 -3,5 -2.9,0 -3,-0.1 -3,-5 0,-4.9 0.1,-5 3,-5 z"
     inkscape:connector-curvature="0" />
  <path
     style="fill:#d16d59;stroke:none;stroke-width:0.1"
     id="path16"
     d="m 41,42 h -6 v 8 8 h 6 6 v -8 -8 z m 0,3 c 2.9,0 3,0.1 3,5 0,4.9 -0.1,5 -3,5 -2.9,0 -3,-0.1 -3,-5 0,-4.9 0.1,-5 3,-5 z"
     inkscape:connector-curvature="0" />
  <path
     style="fill:#d16d59;stroke:none;stroke-width:0.1"
     id="path18"
     d="m 41,86 h -6 v 8 8 h 6 6 v -8 -8 z m 0,3 c 2.9,0 3,0.1 3,5 0,4.9 -0.1,5 -3,5 -2.9,0 -3,-0.1 -3,-5 0,-4.9 0.1,-5 3,-5 z"
     inkscape:connector-curvature="0" />
  <path
     style="fill:#d16d59;stroke:none;stroke-width:0.1"
     id="path20"
     d="m 41,127 h -6 v 8 8 h 6 6 v -8 -8 z m 0,3 c 2.9,0 3,0.1 3,5 0,4.9 -0.1,5 -3,5 -2.9,0 -3,-0.1 -3,-5 0,-4.9 0.1,-5 3,-5 z"
     inkscape:connector-curvature="0" />
  <rect
     style="opacity:1;vector-effect:none;fill:#ffffea;fill-opacity:1;stroke-width:0.84104967;stroke-linecap:butt;stroke-linejoin:miter;stroke-miterlimit:4;stroke-dasharray:none;stroke-dashoffset:0;stroke-opacity:1"
     id="rect4507"
     width="11"
     height="20"
     x="71"
     y="128" />
  <path
     style="fill:#d16d59;stroke:none;stroke-width:0.1"
     id="path22"
     d="m 73,138 c -0.5,0 -1,0.4 -1,1 0,0.5 0.5,1 1,1 0.6,0 1,-0.5 1,-1 0,-0.6 -0.4,-1 -1,-1 z"
     inkscape:connector-curvature="0" />
</svg>
