<?xml version="1.0" encoding="UTF-8" standalone="no"?>
<!-- Created with Inkscape (http://www.inkscape.org/) -->

<svg
   xmlns:osb="http://www.openswatchbook.org/uri/2009/osb"
   xmlns:dc="http://purl.org/dc/elements/1.1/"
   xmlns:cc="http://creativecommons.org/ns#"
   xmlns:rdf="http://www.w3.org/1999/02/22-rdf-syntax-ns#"
   xmlns:svg="http://www.w3.org/2000/svg"
   xmlns="http://www.w3.org/2000/svg"
   xmlns:sodipodi="http://sodipodi.sourceforge.net/DTD/sodipodi-0.dtd"
   xmlns:inkscape="http://www.inkscape.org/namespaces/inkscape"
   width="100mm"
   height="100mm"
   viewBox="0 0 100 100"
   version="1.1"
   id="svg8"
   inkscape:version="0.92.2 (5c3e80d, 2017-08-06)"
   sodipodi:docname="zootopiaCreditUnionLocation.svg">
  <defs
     id="defs2">
    <linearGradient
       id="linearGradient2411"
       osb:paint="solid">
      <stop
         style="stop-color:#ebbf1c;stop-opacity:1;"
         offset="0"
         id="stop2409" />
    </linearGradient>
  </defs>
  <sodipodi:namedview
     id="base"
     pagecolor="#ffffff"
     bordercolor="#666666"
     borderopacity="1.0"
     inkscape:pageopacity="0.0"
     inkscape:pageshadow="2"
     inkscape:zoom="1.7343451"
     inkscape:cx="231.22824"
     inkscape:cy="184.15846"
     inkscape:document-units="mm"
     inkscape:current-layer="layer1"
     showgrid="false"
     inkscape:pagecheckerboard="true"
     inkscape:window-width="1920"
     inkscape:window-height="1056"
     inkscape:window-x="0"
     inkscape:window-y="24"
     inkscape:window-maximized="1"
     inkscape:snap-grids="false"
     inkscape:snap-page="true"
     showguides="false"
     inkscape:snap-to-guides="false" />
  <metadata
     id="metadata5">
    <rdf:RDF>
      <cc:Work
         rdf:about="">
        <dc:format>image/svg+xml</dc:format>
        <dc:type
           rdf:resource="http://purl.org/dc/dcmitype/StillImage" />
        <dc:title></dc:title>
      </cc:Work>
    </rdf:RDF>
  </metadata>
  <g
     inkscape:label="Layer 1"
     inkscape:groupmode="layer"
     id="layer1"
     transform="translate(0,-197)">
    <g
       id="g2687"
       transform="matrix(1.5461539,0,0,1.5461539,-26.921157,-144.95001)">
      <g
         transform="matrix(0.25312387,0,0,0.28248409,37.056223,179.40713)"
         id="g2444">
        <ellipse
           style="opacity:1;vector-effect:none;fill:#f0dc5c;fill-opacity:1;fill-rule:evenodd;stroke:#eed744;stroke-width:0.24629903px;stroke-linecap:butt;stroke-linejoin:miter;stroke-miterlimit:4;stroke-dasharray:none;stroke-dashoffset:0;stroke-opacity:1"
           id="path814-5"
           cx="49.160946"
           cy="241.05035"
           rx="49.17009"
           ry="44.05949" />
        <path
           style="opacity:1;vector-effect:none;fill:#edd63d;fill-opacity:1;fill-rule:evenodd;stroke:none;stroke-width:0.24736503px;stroke-linecap:butt;stroke-linejoin:miter;stroke-miterlimit:4;stroke-dasharray:none;stroke-dashoffset:0;stroke-opacity:1"
           d="M 49.160824,196.8 A 49.382902,44.250184 0 0 0 -0.22211463,241.05054 49.382902,44.250184 0 0 0 49.160824,285.30056 49.382902,44.250184 0 0 0 98.54376,241.05054 49.382902,44.250184 0 0 0 49.160824,196.8 Z m 0,1.35563 A 47.869934,42.894472 0 0 1 97.030872,241.05054 47.869934,42.894472 0 0 1 49.160824,283.94493 47.869934,42.894472 0 0 1 1.290773,241.05054 47.869934,42.894472 0 0 1 49.160824,198.15563 Z"
           id="path814-7"
           inkscape:connector-curvature="0" />
        <g
           aria-label="Z"
           transform="matrix(3.6205411,0,0,3.9594489,-373.991,-72.879606)"
           style="font-style:normal;font-variant:normal;font-weight:normal;font-stretch:normal;font-size:21.33333397px;line-height:125%;font-family:sans-serif;-inkscape-font-specification:'sans-serif, Normal';font-variant-ligatures:normal;font-variant-caps:normal;font-variant-numeric:normal;font-feature-settings:normal;text-align:start;letter-spacing:0px;word-spacing:0px;writing-mode:lr-tb;text-anchor:start;fill:#e9a829;fill-opacity:1;stroke:none;stroke-width:1px;stroke-linecap:butt;stroke-linejoin:miter;stroke-opacity:1"
           id="flowRoot877">
          <path
             d="m 123.35091,81.804658 -0.48958,4.614583 h -11.875 v -0.364583 l 9.30208,-13.59375 h -3.40625 q -0.59375,0 -1,0.02083 -0.39583,0.02083 -0.72917,0.08333 -0.6875,0.135417 -1.55208,1.135417 -0.85417,1 -1.29167,2.114583 h -0.72916 l 0.44791,-4.177083 h 11.07292 v 0.364583 l -9.30208,13.593751 h 3.51041 q 0.88542,0 1.88542,-0.125 1,-0.125 1.30209,-0.427084 0.67708,-0.645833 1.26041,-1.583333 0.58334,-0.9375 0.86459,-1.65625 z"
             style="font-style:normal;font-variant:normal;font-weight:normal;font-stretch:normal;font-family:Georgia;-inkscape-font-specification:Georgia;fill:#e9a829;fill-opacity:1"
             id="path885"
             inkscape:connector-curvature="0" />
        </g>
        <rect
           style="opacity:1;vector-effect:none;fill:#e9a829;fill-opacity:1;stroke:none;stroke-width:0.24629903px;stroke-linecap:butt;stroke-linejoin:miter;stroke-miterlimit:4;stroke-dasharray:none;stroke-dashoffset:0;stroke-opacity:1"
           id="rect890"
           width="3.508769"
           height="66.666611"
           x="40.884789"
           y="206.83989" />
        <rect
           style="opacity:1;vector-effect:none;fill:#e9a829;fill-opacity:1;stroke:none;stroke-width:0.24629903px;stroke-linecap:butt;stroke-linejoin:miter;stroke-miterlimit:4;stroke-dasharray:none;stroke-dashoffset:0;stroke-opacity:1"
           id="rect890-8"
           width="3.5087693"
           height="66.666611"
           x="55.224976"
           y="206.38222" />
      </g>
      <path
         sodipodi:nodetypes="caccacc"
         inkscape:connector-curvature="0"
         id="rect2461"
         d="m 17.25,257 c 0,0 21.517234,5 32.5,5 10.982766,0 32.5,-5 32.5,-5 v 10 c 0,0 -21.517234,5 -32.5,5 -10.982766,0 -32.5,-5 -32.5,-5 z"
         style="opacity:1;vector-effect:none;fill:#007ce1;fill-opacity:1;stroke:none;stroke-width:0.25031626px;stroke-linecap:butt;stroke-linejoin:miter;stroke-miterlimit:4;stroke-dasharray:none;stroke-dashoffset:0;stroke-opacity:1" />
      <path
         inkscape:connector-curvature="0"
         d="m 20.06214,260.46877 h 3.169128 v 0.4662 l -2.550432,3.53885 h 2.612572 v 0.51463 H 20 v -0.4662 l 2.550432,-3.53885 H 20.06214 Z"
         id="path2472"
         style="font-style:normal;font-variant:normal;font-weight:normal;font-stretch:normal;font-size:medium;line-height:125%;font-family:'DejaVu Sans';-inkscape-font-specification:'DejaVu Sans';font-variant-ligatures:normal;font-variant-caps:normal;font-variant-numeric:normal;font-feature-settings:normal;text-align:start;letter-spacing:0px;word-spacing:0px;writing-mode:lr-tb;text-anchor:start;fill:#000000;fill-opacity:1;stroke:none;stroke-width:0.27454653px;stroke-linecap:butt;stroke-linejoin:miter;stroke-opacity:1" />
      <path
         inkscape:connector-curvature="0"
         d="m 25.238653,262.36984 q -0.399856,0 -0.632204,0.35116 -0.23235,0.34813 -0.23235,0.95661 0,0.60847 0.229647,0.95963 0.232348,0.34814 0.634907,0.34814 0.397155,0 0.629502,-0.35116 0.232348,-0.35116 0.232348,-0.95661 0,-0.60243 -0.232348,-0.95358 -0.232347,-0.35419 -0.629502,-0.35419 z m 0,-0.47225 q 0.648415,0 1.018551,0.47225 0.370136,0.47225 0.370136,1.30777 0,0.83249 -0.370136,1.30777 -0.370136,0.47225 -1.018551,0.47225 -0.651117,0 -1.021254,-0.47225 -0.367435,-0.47528 -0.367435,-1.30777 0,-0.83552 0.367435,-1.30777 0.370137,-0.47225 1.021254,-0.47225 z"
         id="path2474"
         style="font-style:normal;font-variant:normal;font-weight:normal;font-stretch:normal;font-size:medium;line-height:125%;font-family:'DejaVu Sans';-inkscape-font-specification:'DejaVu Sans';font-variant-ligatures:normal;font-variant-caps:normal;font-variant-numeric:normal;font-feature-settings:normal;text-align:start;letter-spacing:0px;word-spacing:0px;writing-mode:lr-tb;text-anchor:start;fill:#000000;fill-opacity:1;stroke:none;stroke-width:0.27454653px;stroke-linecap:butt;stroke-linejoin:miter;stroke-opacity:1" />
      <path
         inkscape:connector-curvature="0"
         d="m 28.621216,262.75123 q -0.399854,0 -0.632204,0.35116 -0.232348,0.34813 -0.232348,0.95661 0,0.60847 0.229648,0.95963 0.232348,0.34814 0.634904,0.34814 0.397155,0 0.629505,-0.35116 0.232348,-0.35116 0.232348,-0.95661 0,-0.60243 -0.232348,-0.95358 -0.23235,-0.35419 -0.629505,-0.35419 z m 0,-0.47225 q 0.648415,0 1.018554,0.47225 0.370136,0.47225 0.370136,1.30777 0,0.83249 -0.370136,1.30777 -0.370139,0.47225 -1.018554,0.47225 -0.651115,0 -1.021253,-0.47225 -0.367434,-0.47528 -0.367434,-1.30777 0,-0.83552 0.367434,-1.30777 0.370138,-0.47225 1.021253,-0.47225 z"
         id="path2476"
         style="font-style:normal;font-variant:normal;font-weight:normal;font-stretch:normal;font-size:medium;line-height:125%;font-family:'DejaVu Sans';-inkscape-font-specification:'DejaVu Sans';font-variant-ligatures:normal;font-variant-caps:normal;font-variant-numeric:normal;font-feature-settings:normal;text-align:start;letter-spacing:0px;word-spacing:0px;writing-mode:lr-tb;text-anchor:start;fill:#000000;fill-opacity:1;stroke:none;stroke-width:0.27454653px;stroke-linecap:butt;stroke-linejoin:miter;stroke-opacity:1" />
      <path
         inkscape:connector-curvature="0"
         d="m 31.322946,262.16083 v 0.96266 h 1.023956 v 0.4329 h -1.023956 v 1.84056 q 0,0.41474 0.09996,0.5328 0.102665,0.11806 0.413365,0.11806 h 0.510626 v 0.4662 h -0.510626 q -0.575469,0 -0.794309,-0.23915 -0.21884,-0.24219 -0.21884,-0.87791 v -1.84056 h -0.364733 v -0.4329 h 0.364733 v -0.96266 z"
         id="path2478"
         style="font-style:normal;font-variant:normal;font-weight:normal;font-stretch:normal;font-size:medium;line-height:125%;font-family:'DejaVu Sans';-inkscape-font-specification:'DejaVu Sans';font-variant-ligatures:normal;font-variant-caps:normal;font-variant-numeric:normal;font-feature-settings:normal;text-align:start;letter-spacing:0px;word-spacing:0px;writing-mode:lr-tb;text-anchor:start;fill:#000000;fill-opacity:1;stroke:none;stroke-width:0.27454653px;stroke-linecap:butt;stroke-linejoin:miter;stroke-opacity:1" />
      <path
         inkscape:connector-curvature="0"
         d="m 34.175972,264.04795 q -0.399857,0 -0.632205,0.35116 -0.232347,0.34813 -0.232347,0.95661 0,0.60847 0.229645,0.95963 0.23235,0.34814 0.634907,0.34814 0.397154,0 0.629505,-0.35116 0.232347,-0.35116 0.232347,-0.95661 0,-0.60243 -0.232347,-0.95358 -0.232351,-0.35419 -0.629505,-0.35419 z m 0,-0.47225 q 0.648415,0 1.018554,0.47225 0.370136,0.47225 0.370136,1.30777 0,0.83249 -0.370136,1.30777 -0.370139,0.47225 -1.018554,0.47225 -0.651118,0 -1.021254,-0.47225 -0.367436,-0.47528 -0.367436,-1.30777 0,-0.83552 0.367436,-1.30777 0.370136,-0.47225 1.021254,-0.47225 z"
         id="path2480"
         style="font-style:normal;font-variant:normal;font-weight:normal;font-stretch:normal;font-size:medium;line-height:125%;font-family:'DejaVu Sans';-inkscape-font-specification:'DejaVu Sans';font-variant-ligatures:normal;font-variant-caps:normal;font-variant-numeric:normal;font-feature-settings:normal;text-align:start;letter-spacing:0px;word-spacing:0px;writing-mode:lr-tb;text-anchor:start;fill:#000000;fill-opacity:1;stroke:none;stroke-width:0.27454653px;stroke-linecap:butt;stroke-linejoin:miter;stroke-opacity:1" />
      <path
         inkscape:connector-curvature="0"
         d="m 36.866894,266.92076 v 1.79818 h -0.499819 v -4.68012 h 0.499819 v 0.51463 q 0.156701,-0.30272 0.394452,-0.44803 0.240455,-0.14833 0.572768,-0.14833 0.551153,0 0.89427,0.49041 0.345823,0.49041 0.345823,1.28961 0,0.79919 -0.345823,1.2896 -0.343117,0.49042 -0.89427,0.49042 -0.332313,0 -0.572768,-0.14531 -0.237751,-0.14834 -0.394452,-0.45106 z m 1.691282,-1.18365 q 0,-0.61454 -0.226946,-0.96267 -0.224242,-0.35116 -0.618694,-0.35116 -0.394454,0 -0.621399,0.35116 -0.224243,0.34813 -0.224243,0.96267 0,0.61453 0.224243,0.96569 0.226945,0.34813 0.621399,0.34813 0.394452,0 0.618694,-0.34813 0.226946,-0.35116 0.226946,-0.96569 z"
         id="path2482"
         style="font-style:normal;font-variant:normal;font-weight:normal;font-stretch:normal;font-size:medium;line-height:125%;font-family:'DejaVu Sans';-inkscape-font-specification:'DejaVu Sans';font-variant-ligatures:normal;font-variant-caps:normal;font-variant-numeric:normal;font-feature-settings:normal;text-align:start;letter-spacing:0px;word-spacing:0px;writing-mode:lr-tb;text-anchor:start;fill:#000000;fill-opacity:1;stroke:none;stroke-width:0.27454653px;stroke-linecap:butt;stroke-linejoin:miter;stroke-opacity:1" />
      <path
         inkscape:connector-curvature="0"
         d="m 39.898234,264.72532 h 0.497119 v 3.39052 h -0.497119 z m 0,-1.31988 h 0.497119 v 0.70535 h -0.497119 z"
         id="path2484"
         style="font-style:normal;font-variant:normal;font-weight:normal;font-stretch:normal;font-size:medium;line-height:125%;font-family:'DejaVu Sans';-inkscape-font-specification:'DejaVu Sans';font-variant-ligatures:normal;font-variant-caps:normal;font-variant-numeric:normal;font-feature-settings:normal;text-align:start;letter-spacing:0px;word-spacing:0px;writing-mode:lr-tb;text-anchor:start;fill:#000000;fill-opacity:1;stroke:none;stroke-width:0.27454653px;stroke-linecap:butt;stroke-linejoin:miter;stroke-opacity:1" />
      <path
         inkscape:connector-curvature="0"
         d="m 42.807996,266.71661 q -0.602486,0 -0.834834,0.15439 -0.232348,0.15439 -0.232348,0.52674 0,0.29667 0.172909,0.47225 0.175614,0.17255 0.475506,0.17255 0.413364,0 0.661923,-0.32694 0.25126,-0.32997 0.25126,-0.87488 v -0.12411 z m 0.991535,-0.23007 v 1.93441 h -0.497119 v -0.51463 q -0.170208,0.30877 -0.424169,0.45711 -0.253964,0.14531 -0.6214,0.14531 -0.464698,0 -0.740274,-0.29062 -0.272874,-0.29364 -0.272874,-0.78406 0,-0.57214 0.340418,-0.86276 0.34312,-0.29062 1.021253,-0.29062 h 0.697046 v -0.0545 q 0,-0.38446 -0.226945,-0.59334 -0.224242,-0.2119 -0.632204,-0.2119 -0.259366,0 -0.505225,0.0696 -0.245855,0.0696 -0.4728,0.20888 v -0.51463 q 0.272873,-0.11806 0.529537,-0.17558 0.256666,-0.0605 0.499821,-0.0605 0.65652,0 0.980728,0.38143 0.324207,0.38143 0.324207,1.15641 z"
         id="path2486"
         style="font-style:normal;font-variant:normal;font-weight:normal;font-stretch:normal;font-size:medium;line-height:125%;font-family:'DejaVu Sans';-inkscape-font-specification:'DejaVu Sans';font-variant-ligatures:normal;font-variant-caps:normal;font-variant-numeric:normal;font-feature-settings:normal;text-align:start;letter-spacing:0px;word-spacing:0px;writing-mode:lr-tb;text-anchor:start;fill:#000000;fill-opacity:1;stroke:none;stroke-width:0.27454653px;stroke-linecap:butt;stroke-linejoin:miter;stroke-opacity:1" />
      <path
         inkscape:connector-curvature="0"
         d="m 49.629863,264.55451 v 0.64481 q -0.275576,-0.28759 -0.588978,-0.42987 -0.310697,-0.14228 -0.661923,-0.14228 -0.691643,0 -1.059079,0.47527 -0.367434,0.47225 -0.367434,1.36832 0,0.89304 0.367434,1.36831 0.367436,0.47225 1.059079,0.47225 0.351226,0 0.661923,-0.14228 0.313402,-0.14228 0.588978,-0.42987 v 0.63875 q -0.286384,0.21797 -0.607889,0.32695 -0.318805,0.10898 -0.675433,0.10898 -0.915886,0 -1.442723,-0.62664 -0.526837,-0.62967 -0.526837,-1.71645 0,-1.08981 0.526837,-1.71645 0.526837,-0.62967 1.442723,-0.62967 0.362031,0 0.680836,0.10898 0.321505,0.10596 0.602486,0.32089 z"
         id="path2488"
         style="font-style:normal;font-variant:normal;font-weight:normal;font-stretch:normal;font-size:medium;line-height:125%;font-family:'DejaVu Sans';-inkscape-font-specification:'DejaVu Sans';font-variant-ligatures:normal;font-variant-caps:normal;font-variant-numeric:normal;font-feature-settings:normal;text-align:start;letter-spacing:0px;word-spacing:0px;writing-mode:lr-tb;text-anchor:start;fill:#000000;fill-opacity:1;stroke:none;stroke-width:0.27454653px;stroke-linecap:butt;stroke-linejoin:miter;stroke-opacity:1" />
      <path
         inkscape:connector-curvature="0"
         d="m 52.210013,266.08506 q -0.08375,-0.0545 -0.183717,-0.0787 -0.09726,-0.0272 -0.21614,-0.0272 -0.42147,0 -0.648415,0.30878 -0.224243,0.30575 -0.224243,0.88093 v 1.78607 h -0.499819 v -3.39051 h 0.499819 v 0.52674 q 0.156702,-0.30878 0.407962,-0.45712 0.251261,-0.15136 0.610589,-0.15136 0.05133,0 0.113473,0.009 0.06214,0.006 0.137788,0.0212 z"
         id="path2490"
         style="font-style:normal;font-variant:normal;font-weight:normal;font-stretch:normal;font-size:medium;line-height:125%;font-family:'DejaVu Sans';-inkscape-font-specification:'DejaVu Sans';font-variant-ligatures:normal;font-variant-caps:normal;font-variant-numeric:normal;font-feature-settings:normal;text-align:start;letter-spacing:0px;word-spacing:0px;writing-mode:lr-tb;text-anchor:start;fill:#000000;fill-opacity:1;stroke:none;stroke-width:0.27454653px;stroke-linecap:butt;stroke-linejoin:miter;stroke-opacity:1" />
      <path
         inkscape:connector-curvature="0"
         d="m 55.206232,266.89154 v 0.27246 h -2.285665 q 0.03242,0.57517 0.307997,0.8779 0.278279,0.2997 0.772695,0.2997 0.286384,0 0.553855,-0.0787 0.270174,-0.0787 0.534943,-0.23613 v 0.52674 q -0.267471,0.12715 -0.54845,0.19375 -0.280982,0.0666 -0.570066,0.0666 -0.724064,0 -1.148237,-0.47225 -0.421469,-0.47225 -0.421469,-1.2775 0,-0.83249 0.399856,-1.31988 0.402557,-0.49041 1.083395,-0.49041 0.61059,0 0.964518,0.44197 0.356628,0.43896 0.356628,1.19576 z m -0.497119,-0.16347 q -0.0054,-0.45711 -0.229648,-0.72956 -0.22154,-0.27245 -0.588976,-0.27245 -0.416067,0 -0.667328,0.26337 -0.248558,0.26337 -0.286384,0.74167 z"
         id="path2492"
         style="font-style:normal;font-variant:normal;font-weight:normal;font-stretch:normal;font-size:medium;line-height:125%;font-family:'DejaVu Sans';-inkscape-font-specification:'DejaVu Sans';font-variant-ligatures:normal;font-variant-caps:normal;font-variant-numeric:normal;font-feature-settings:normal;text-align:start;letter-spacing:0px;word-spacing:0px;writing-mode:lr-tb;text-anchor:start;fill:#000000;fill-opacity:1;stroke:none;stroke-width:0.27454653px;stroke-linecap:butt;stroke-linejoin:miter;stroke-opacity:1" />
      <path
         inkscape:connector-curvature="0"
         d="m 58.013329,265.54506 v -1.83451 h 0.497119 v 4.7104 h -0.497119 v -0.50858 q -0.156701,0.30272 -0.397154,0.45106 -0.237753,0.14531 -0.572766,0.14531 -0.548452,0 -0.894273,-0.49042 -0.34312,-0.49041 -0.34312,-1.2896 0,-0.7992 0.34312,-1.28961 0.345821,-0.49041 0.894273,-0.49041 0.335013,0 0.572766,0.14833 0.240453,0.14531 0.397154,0.44803 z m -1.693984,1.18366 q 0,0.61453 0.224243,0.96569 0.226945,0.34813 0.621399,0.34813 0.394452,0 0.621397,-0.34813 0.226945,-0.35116 0.226945,-0.96569 0,-0.61454 -0.226945,-0.96267 -0.226945,-0.35116 -0.621397,-0.35116 -0.394454,0 -0.621399,0.35116 -0.224243,0.34813 -0.224243,0.96267 z"
         id="path2494"
         style="font-style:normal;font-variant:normal;font-weight:normal;font-stretch:normal;font-size:medium;line-height:125%;font-family:'DejaVu Sans';-inkscape-font-specification:'DejaVu Sans';font-variant-ligatures:normal;font-variant-caps:normal;font-variant-numeric:normal;font-feature-settings:normal;text-align:start;letter-spacing:0px;word-spacing:0px;writing-mode:lr-tb;text-anchor:start;fill:#000000;fill-opacity:1;stroke:none;stroke-width:0.27454653px;stroke-linecap:butt;stroke-linejoin:miter;stroke-opacity:1" />
      <path
         inkscape:connector-curvature="0"
         d="m 59.534399,264.72532 h 0.497119 v 3.39052 h -0.497119 z m 0,-1.31988 h 0.497119 v 0.70535 h -0.497119 z"
         id="path2496"
         style="font-style:normal;font-variant:normal;font-weight:normal;font-stretch:normal;font-size:medium;line-height:125%;font-family:'DejaVu Sans';-inkscape-font-specification:'DejaVu Sans';font-variant-ligatures:normal;font-variant-caps:normal;font-variant-numeric:normal;font-feature-settings:normal;text-align:start;letter-spacing:0px;word-spacing:0px;writing-mode:lr-tb;text-anchor:start;fill:#000000;fill-opacity:1;stroke:none;stroke-width:0.27454653px;stroke-linecap:butt;stroke-linejoin:miter;stroke-opacity:1" />
      <path
         inkscape:connector-curvature="0"
         d="m 61.560698,263.07616 v 0.96266 h 1.023954 v 0.4329 h -1.023954 v 1.84056 q 0,0.41474 0.09996,0.5328 0.102667,0.11806 0.413364,0.11806 h 0.510627 v 0.4662 h -0.510627 q -0.575468,0 -0.794308,-0.23915 -0.21884,-0.24219 -0.21884,-0.87791 v -1.84056 H 60.69614 v -0.4329 h 0.364734 v -0.96266 z"
         id="path2498"
         style="font-style:normal;font-variant:normal;font-weight:normal;font-stretch:normal;font-size:medium;line-height:125%;font-family:'DejaVu Sans';-inkscape-font-specification:'DejaVu Sans';font-variant-ligatures:normal;font-variant-caps:normal;font-variant-numeric:normal;font-feature-settings:normal;text-align:start;letter-spacing:0px;word-spacing:0px;writing-mode:lr-tb;text-anchor:start;fill:#000000;fill-opacity:1;stroke:none;stroke-width:0.27454653px;stroke-linecap:butt;stroke-linejoin:miter;stroke-opacity:1" />
      <path
         inkscape:connector-curvature="0"
         d="m 64.962177,262.52827 h 0.54845 v 2.74571 q 0,0.72654 0.23505,1.04743 0.235051,0.31786 0.761888,0.31786 0.524135,0 0.759185,-0.31786 0.23505,-0.32089 0.23505,-1.04743 v -2.74571 h 0.548453 v 2.82139 q 0,0.88396 -0.391751,1.33502 -0.389049,0.45106 -1.150937,0.45106 -0.76459,0 -1.156339,-0.45106 -0.389049,-0.45106 -0.389049,-1.33502 z"
         id="path2500"
         style="font-style:normal;font-variant:normal;font-weight:normal;font-stretch:normal;font-size:medium;line-height:125%;font-family:'DejaVu Sans';-inkscape-font-specification:'DejaVu Sans';font-variant-ligatures:normal;font-variant-caps:normal;font-variant-numeric:normal;font-feature-settings:normal;text-align:start;letter-spacing:0px;word-spacing:0px;writing-mode:lr-tb;text-anchor:start;fill:#000000;fill-opacity:1;stroke:none;stroke-width:0.27454653px;stroke-linecap:butt;stroke-linejoin:miter;stroke-opacity:1" />
      <path
         inkscape:connector-curvature="0"
         d="m 71.570604,264.46759 v 2.04642 h -0.497116 v -2.02826 q 0,-0.48133 -0.167509,-0.72048 -0.167506,-0.23916 -0.502522,-0.23916 -0.402556,0 -0.634904,0.28759 -0.232351,0.28759 -0.232351,0.78406 v 1.91625 h -0.499819 v -3.39052 h 0.499819 v 0.52674 q 0.178314,-0.30575 0.41877,-0.45711 0.243156,-0.15136 0.559258,-0.15136 0.521432,0 0.788903,0.36327 0.267471,0.36024 0.267471,1.06256 z"
         id="path2502"
         style="font-style:normal;font-variant:normal;font-weight:normal;font-stretch:normal;font-size:medium;line-height:125%;font-family:'DejaVu Sans';-inkscape-font-specification:'DejaVu Sans';font-variant-ligatures:normal;font-variant-caps:normal;font-variant-numeric:normal;font-feature-settings:normal;text-align:start;letter-spacing:0px;word-spacing:0px;writing-mode:lr-tb;text-anchor:start;fill:#000000;fill-opacity:1;stroke:none;stroke-width:0.27454653px;stroke-linecap:butt;stroke-linejoin:miter;stroke-opacity:1" />
      <path
         inkscape:connector-curvature="0"
         d="m 72.56754,262.36071 h 0.497119 v 3.39052 H 72.56754 Z m 0,-1.31988 h 0.497119 v 0.70535 H 72.56754 Z"
         id="path2504"
         style="font-style:normal;font-variant:normal;font-weight:normal;font-stretch:normal;font-size:medium;line-height:125%;font-family:'DejaVu Sans';-inkscape-font-specification:'DejaVu Sans';font-variant-ligatures:normal;font-variant-caps:normal;font-variant-numeric:normal;font-feature-settings:normal;text-align:start;letter-spacing:0px;word-spacing:0px;writing-mode:lr-tb;text-anchor:start;fill:#000000;fill-opacity:1;stroke:none;stroke-width:0.27454653px;stroke-linecap:butt;stroke-linejoin:miter;stroke-opacity:1" />
      <path
         inkscape:connector-curvature="0"
         d="m 75.274675,262.36984 q -0.399857,0 -0.632205,0.35116 -0.23235,0.34813 -0.23235,0.95661 0,0.60847 0.229647,0.95963 0.232348,0.34814 0.634908,0.34814 0.397154,0 0.629502,-0.35116 0.232347,-0.35116 0.232347,-0.95661 0,-0.60243 -0.232347,-0.95358 -0.232348,-0.35419 -0.629502,-0.35419 z m 0,-0.47225 q 0.648415,0 1.018551,0.47225 0.370136,0.47225 0.370136,1.30777 0,0.83249 -0.370136,1.30777 -0.370136,0.47225 -1.018551,0.47225 -0.651118,0 -1.021254,-0.47225 -0.367436,-0.47528 -0.367436,-1.30777 0,-0.83552 0.367436,-1.30777 0.370136,-0.47225 1.021254,-0.47225 z"
         id="path2506"
         style="font-style:normal;font-variant:normal;font-weight:normal;font-stretch:normal;font-size:medium;line-height:125%;font-family:'DejaVu Sans';-inkscape-font-specification:'DejaVu Sans';font-variant-ligatures:normal;font-variant-caps:normal;font-variant-numeric:normal;font-feature-settings:normal;text-align:start;letter-spacing:0px;word-spacing:0px;writing-mode:lr-tb;text-anchor:start;fill:#000000;fill-opacity:1;stroke:none;stroke-width:0.27454653px;stroke-linecap:butt;stroke-linejoin:miter;stroke-opacity:1" />
      <path
         inkscape:connector-curvature="0"
         d="m 79.999999,262.94203 v 2.04642 h -0.497117 v -2.02826 q 0,-0.48133 -0.167509,-0.72048 -0.167506,-0.23916 -0.502521,-0.23916 -0.402557,0 -0.634905,0.28759 -0.23235,0.28759 -0.23235,0.78406 v 1.91625 h -0.499819 v -3.39052 h 0.499819 v 0.52674 q 0.178314,-0.30575 0.418769,-0.45711 0.243156,-0.15136 0.559258,-0.15136 0.521432,0 0.788903,0.36327 0.267472,0.36024 0.267472,1.06256 z"
         id="path2508"
         style="font-style:normal;font-variant:normal;font-weight:normal;font-stretch:normal;font-size:medium;line-height:125%;font-family:'DejaVu Sans';-inkscape-font-specification:'DejaVu Sans';font-variant-ligatures:normal;font-variant-caps:normal;font-variant-numeric:normal;font-feature-settings:normal;text-align:start;letter-spacing:0px;word-spacing:0px;writing-mode:lr-tb;text-anchor:start;fill:#000000;fill-opacity:1;stroke:none;stroke-width:0.27454653px;stroke-linecap:butt;stroke-linejoin:miter;stroke-opacity:1" />
    </g>
  </g>
</svg>
