<?xml version="1.0" encoding="UTF-8" standalone="no"?>
<svg
   xmlns:dc="http://purl.org/dc/elements/1.1/"
   xmlns:cc="http://creativecommons.org/ns#"
   xmlns:rdf="http://www.w3.org/1999/02/22-rdf-syntax-ns#"
   xmlns:svg="http://www.w3.org/2000/svg"
   xmlns="http://www.w3.org/2000/svg"
   xmlns:sodipodi="http://sodipodi.sourceforge.net/DTD/sodipodi-0.dtd"
   xmlns:inkscape="http://www.inkscape.org/namespaces/inkscape"
   version="1.0"
   width="162.000000pt"
   height="162.000000pt"
   viewBox="0 0 162.000000 162.000000"
   preserveAspectRatio="xMidYMid meet"
   id="svg24"
   sodipodi:docname="Anneke.svg"
   inkscape:version="0.92.1 r15371">
  <defs
     id="defs28" />
  <sodipodi:namedview
     pagecolor="#ffffff"
     bordercolor="#666666"
     borderopacity="1"
     objecttolerance="10"
     gridtolerance="10"
     guidetolerance="10"
     inkscape:pageopacity="0"
     inkscape:pageshadow="2"
     inkscape:window-width="709"
     inkscape:window-height="480"
     id="namedview26"
     showgrid="false"
     inkscape:pagecheckerboard="true"
     inkscape:zoom="3.0903185"
     inkscape:cx="96.697336"
     inkscape:cy="111.0737"
     inkscape:window-x="810"
     inkscape:window-y="393"
     inkscape:window-maximized="0"
     inkscape:current-layer="svg24" />
  <metadata
     id="metadata18">
Created by potrace 1.13, written by Peter Selinger 2001-2015
<rdf:RDF>
  <cc:Work
     rdf:about="">
    <dc:format>image/svg+xml</dc:format>
    <dc:type
       rdf:resource="http://purl.org/dc/dcmitype/StillImage" />
    <dc:title />
  </cc:Work>
</rdf:RDF>
</metadata>
  <g
     transform="translate(0.000000,162.000000) scale(0.100000,-0.100000)"
     fill="#ffffff"
     stroke="none"
     id="g22">
    <path
       d="M 864.14195,1584.8517 C 850.14195,1562.8517 884,1286 906,1234 c 4,-9 -101.01271,-70.8644 -122.01271,-70.8644 -4,0 -20.27754,21.4322 -45.27754,42.4322 -92,82 -313,217.5678 -349,217.5678 -16,0 -14.70975,-29.1356 0.29025,-38.1356 24,-15 74,-132 99,-231 9,-33 21,-48 61,-75 27,-19 52,-39 54,-46 8,-19 -15.76273,-77.15841 -26.56144,-95.7161 -6.44492,-11.07565 -8.76288,-17.82546 -13.28072,-27.85487 -5.14831,-11.42903 -6.85088,-17.55029 -12.85487,-33.15149 -7.5328,-19.57373 -16.71611,-21.86758 -22.72246,-33.15784 -3.28768,-6.1799 -13.2839,-17.55826 -30.2839,-38.55826 -150,-173 -171.47733,-191.31431 -198.87059,-216.12305 C 272.78561,567.44985 259.101,574.79799 262.101,559.79799 265.101,549.79799 248,540 235,517 182,422 102,174 84,48 L 84.522386,0 H 328 L 566.25859,-0.15168339 582,43 586,85 601.58417,47.550502 610.73585,0.15168339 691,0 766.98729,-0.85805085 748.70339,46.283898 C 704.70339,146.2839 674.27119,247 669.27119,326 c -5,79 8.72881,80 34.72881,98 16,10 25,23 22,31 -3,8 -6.86441,13.2839 -0.86441,15.2839 8,3 0.27755,11.7161 -6.72245,24.7161 -12,24 8.58686,45 26.58686,45 8,0 23,14 35,30 33,47 73,64 117,49 24,-8 38,-8 45,-1 8,8 -17.15466,14.5678 -56.15466,32.5678 C 830.84534,674.5678 810,715 810,756 c 0,12 8,8 29,-15 25,-27 31.28072,-19.84116 74.28072,-19.84534 C 943.27295,721.15175 962.85633,701.57113 979,696 c 26.5837,-8.56144 108.1451,-27.70021 147.1451,-23.70021 45,4 98.9905,17.55826 123.9905,40.55826 34,32 32.4322,54.13559 -12.5678,84.13559 -33,22 -40.5742,31.71611 -35.5742,55.71611 2,15 -2.1546,25.41949 3.8454,32.41949 8,10 7.5741,17.4322 6.161,30.87076 -11,3 -30.2903,13.85169 -37.2903,30.85169 -7,16 -21.2839,36.85806 -34.2839,45.85806 C 1118.4258,1006.7097 1111,1040 1128,1040 c 11,0 63,-33 116,-74 47,-35 73.1292,-46.14195 73.1292,-24.14195 0,33 -55.9873,95.99365 -139.9873,149.99365 -32,20 -64.0063,45.1483 -64.0063,49.1483 0,5 29.8644,9 57.8644,9 36,0 42.2775,2.2839 39.2775,11.2839 -5,15 -56.2775,45.7161 -90.2775,50.7161 -20,2 -30.5742,9.7097 -50.5742,68.7097 -32,95 -92.1419,204.8517 -142.1419,262.8517 -42,48 -52.14195,59.2903 -63.14195,41.2903 z"
       id="path20"
       inkscape:connector-curvature="0"
       sodipodi:nodetypes="ccscsccccsssscccccccccccccccscsccsccscscscccscccccscscssscccc" />
  </g>
  <g
     style="fill:#42342a;stroke:none"
     transform="matrix(0.1,0,0,-0.1,-0.38566379,162.23875)"
     id="g10">
    <path
       inkscape:connector-curvature="0"
       d="m 858,1588 c -3,-7 1,-56 8,-108 7,-52 13,-117 13,-145 1,-27 8,-62 16,-78 13,-25 12,-28 -8,-42 -12,-8 -39,-21 -60,-30 l -38,-16 -52,47 c -70,63 -280,201 -318,209 -40,9 -59,-8 -37,-32 27,-29 86,-162 99,-220 11,-49 18,-59 65,-94 56,-41 52.50432,-50.6875 54,-59 0,0 12.67023,-16.6857 -22.16102,-13.1356 13.16102,-26.8644 0,0 13.16102,-26.8644 0,0 7.83701,-13.1478 -22.15466,-5.41314 -1.70021,-35.44491 -1.70021,-35.44491 -1.70021,-35.44491 0,0 7.25621,-14.55601 -25.72564,-7.44681 0.0113,-45.73667 2.57415,-0.42903 0.0113,-45.73667 0,0 6.33386,-21.14145 -29.98817,-5.82895 -2,-9 0,0 -11.93689,-48.41032 0,0 2.02326,-26.71379 -36.5475,-1.32125 -11.09382,-50.10134 -8.0834,-40.64002 -11.09382,-50.10134 -3,-11 1.29132,-19.72419 -27.86441,-12.0946 l -14.19034,-43.32409 c 0,0 0.30337,-11.83131 -33.74232,0.91936 l -14.40473,-55.31447 c 0,0 -3.33704,-17.59527 -32.87608,4.88754 0,0 0.30336,-0.9101 -13.82056,-50.46026 0,0 -2.16637,-15.04712 -36.09771,2.74918 -5.09318,-48.96228 -0.30337,0.30337 -5.09318,-48.96228 0,0 0.60673,-14.56161 -25.41548,-4.19126 C 249.66297,550.92156 245,538 233,519 201,467 141,298 109,171 77,47 73,0 93,0 c 8,0 19,32 30,90 22,116 80,296 123,383 l 34,67 37,-36 c 52,-52 173,-107 237,-108 28,-1 60,2 72,7 20,7 21,4 26,-80 8,-124 75,-323 110,-323 17,0 17,2 2,37 -38,88 -76,223 -81,289 -5,68 -5,71 22,92 23,19 28,30 28,67 0,44 -17,80 -34,69 -5,-2 -7,-18 -5,-35 2,-16 -1,-32 -6,-35 -5,-3 -6,-15 -3,-25 6,-18 5,-19 -14,-8 -17,11 -23,10 -39,-4 -26,-24 -111,-22 -172,4 -35,15 -47,25 -43,36 5,12 1,14 -14,9 -14,-5 -30,2 -52,20 -40,33 -35,43 72,133 46,38 89,82 97,98 8,15 21,32 27,36 7,4 13,16 13,26 0,10 7,24 15,31 8,7 15,23 15,35 0,13 6,25 13,28 20,7 50,113 38,134 -5,10 -33,36 -61,58 -49,38 -54,46 -84,137 -18,53 -40,108 -49,122 -10,14 -14,26 -9,26 17,0 170,-103 240,-160 40,-34 84,-79 97,-100 30,-47 39,-51 30,-11 -5,25 -3,30 24,39 16,6 55,27 86,47 64,40 82,41 35,2 -16,-14 -30,-30 -30,-36 0,-5 -9,-12 -19,-16 -25,-8 -63,-86 -59,-122 2,-15 6,-27 11,-25 11,4 79,-27 100,-46 10,-9 23,-25 29,-36 10,-18 7,-19 -100,-12 -67,4 -123,13 -142,23 -24,11 -35,12 -43,4 -27,-27 119,-108 210,-118 29,-3 79,0 114,8 53,12 64,18 74,43 12,28 12,28 18,5 4,-13 23,-34 42,-47 20,-12 33,-27 29,-33 -3,-6 4,-21 17,-35 28,-30 18,-43 -38,-51 -45,-6 -157,22 -275,69 -43,16 -85,28 -93,24 -21,-8 -19,-52 5,-101 l 20,-41 -45,-47 c -25,-26 -45,-52 -45,-57 0,-22 37,-8 54,21 24,40 69,60 110,48 42,-12 56,-11 56,4 0,7 -23,20 -51,30 -43,16 -53,25 -69,60 -10,23 -16,44 -13,47 3,3 8,-1 10,-8 l 29.69988,-32.93976 66.45478,-6.48609 L 981,694 l 38.7721,-20.25005 55.6695,-1.62983 53.3546,-14.20836 C 1198,676 1179.3501,668.08792 1198,676 c 90,37 106,88 42,130 -30,20 -37,30 -30,39 6,7 8,19 4,28 -3,8 0,18 6,22 7,4 3,14 -12,30 -13,12 -31,34 -41,49 -7.6264,11.25802 -40.9943,50.703 -47.1838,54.5518 -10.8539,6.7491 -31.0181,1.6644 2.1711,-42.54544 3,-11 21.0127,-35.00636 24.0127,-46.00636 7,-21 -2,-25 -25,-11 -10,7 -12,21 -7,55 9,61 26,60 107,-4 60,-47 109,-64 109,-39 0,38 -77,116 -169,171 -49,29 -43,41 19,36 25,-2 35,1 38,13 2,11 -12,23 -47,38 -27,11 -56,21 -63,21 -7,0 -21,26 -31,58 -54,171 -197,373 -219,310 z m 133,-191 c 22,-43 39,-80 37,-81 -1,-1 -22,-16 -44,-34 -37,-28 -43,-30 -55,-16 -7,9 -16,62 -20,126 -5,61 -11,120 -14,132 -11,40 53,-44 96,-127 z m 69,-173 c 0,-7 -11,-14 -24,-16 -25,-5 -25,-5 -9,25 12,23 17,27 24,16 5,-8 9,-19 9,-25 z m 13,-54 c -39,-16 -24,-38 50,-75 52,-27 55,-35 10,-28 -66,11 -68,10 -65,-19 2,-23 -1,-25 -19,-21 -20,6 -22,3 -16,-23 3,-16 8,-36 12,-44 10,-28 -35,-17 -71,17 -19,18 -50,35 -69,39 -19,3 -35,8 -35,10 0,2 7,22 16,44 15,37 18,39 30,23 11,-14 15,-15 22,-5 5,7 7,24 5,36 -4,20 2,25 49,39 29,8 64,15 78,16 25,0 25,0 3,-9 z M 1195.1347,863.42693 C 1196.2337,845.99729 1185,843 1170,853 c -10,6 -19.6404,15.60673 -17.6404,19.60673 5.4566,8.48811 26.6503,10.11669 35.0075,6.5815 5.4269,-2.29564 7.1037,-5.23213 7.7676,-15.7613 z M 995,861 c 22.8644,2.43856 23.7077,-10.21347 -4.29226,-15.21347 -22.28666,-4.53987 -70.50552,-6.81627 -108.63878,-0.0917 -54.26265,9.56884 -106.8808,32.78535 -103.3571,42.76918 3.12449,8.33197 56.13078,-5.37465 107.59024,-13.21511 C 933.66105,868.03318 979.18467,867.23028 995,861 Z"
       id="path4"
       sodipodi:nodetypes="csccccccccccscccccccccccccccccccccssccccccscccsccsccccccccccssscccccsccccccscccccccscccccccccccccsccsccsccccccccccccccscccccsccccscccccccccscccscccccccccscccccccsccssccscsc" />
    <path
       inkscape:connector-curvature="0"
       d="M 585,370 C 564,347 551,245 551,98 550,8 552,0 569,0 c 12,0 21,8 24,22 l 4,23 2,-22 c 1,-16 7,-23 22,-23 15,0 19,5 15,18 -3,9 -10,38 -17,65 -6,26 -15,50 -20,53 -5,3 -9,42 -9,87 0,63 5,92 20,122 24,47 24,45 7,45 -8,0 -22,-9 -32,-20 z"
       id="path6" />
    <path
       inkscape:connector-curvature="0"
       d="M 303,348 C 281,318 219,163 205,102 196,65 187,27 184,18 180,5 184,0 198,0 c 15,0 22,11 31,57 6,31 32,108 57,170 30,74 43,118 37,124 -6,6 -13,5 -20,-3 z"
       id="path8" />
  </g>
  <path
     style="fill:#42342a;fill-opacity:1;stroke-width:0.75"
     d="m 91.695618,76.636973 c -1.050207,1.800666 -3.803412,2.611206 -6.156978,1.812606 -2.353566,-0.7986 -4.755523,-3.694195 -3.721261,-5.500272 1.034263,-1.806077 5.78246,-0.446649 8.143033,0.339716 2.360573,0.786365 2.778912,1.492132 1.76064,3.303536"
     id="path66"
     inkscape:connector-curvature="0"
     sodipodi:nodetypes="csssc" />
  <path
     style="fill:#42342a;fill-opacity:1;stroke-width:0.75"
     d="m 117.73939,76.016341 a 1.5320023,1.8960425 0 0 1 -2.01901,0.960067 1.5320023,1.8960425 0 0 1 -0.78257,-2.495508 1.5320023,1.8960425 0 0 1 2.01371,-0.976973 1.5320023,1.8960425 0 0 1 0.79621,2.488889"
     id="path4544"
     inkscape:connector-curvature="0" />
</svg>
