<?xml version="1.0" encoding="UTF-8" standalone="no"?>
<svg
   xmlns:dc="http://purl.org/dc/elements/1.1/"
   xmlns:cc="http://creativecommons.org/ns#"
   xmlns:rdf="http://www.w3.org/1999/02/22-rdf-syntax-ns#"
   xmlns:svg="http://www.w3.org/2000/svg"
   xmlns="http://www.w3.org/2000/svg"
   xmlns:sodipodi="http://sodipodi.sourceforge.net/DTD/sodipodi-0.dtd"
   xmlns:inkscape="http://www.inkscape.org/namespaces/inkscape"
   version="1.0"
   width="162.000000pt"
   height="162.000000pt"
   viewBox="0 0 162.000000 162.000000"
   preserveAspectRatio="xMidYMid meet"
   id="svg8"
   sodipodi:docname="Martina.svg"
   inkscape:version="0.92.1 r15371">
  <defs
     id="defs12" />
  <sodipodi:namedview
     pagecolor="#ffffff"
     bordercolor="#666666"
     borderopacity="1"
     objecttolerance="10"
     gridtolerance="10"
     guidetolerance="10"
     inkscape:pageopacity="0"
     inkscape:pageshadow="2"
     inkscape:window-width="1920"
     inkscape:window-height="1056"
     id="namedview10"
     showgrid="false"
     inkscape:zoom="1.5451593"
     inkscape:cx="107.92447"
     inkscape:cy="198.04882"
     inkscape:window-x="0"
     inkscape:window-y="24"
     inkscape:window-maximized="1"
     inkscape:current-layer="svg8"
     inkscape:pagecheckerboard="true" />
  <metadata
     id="metadata2">
Created by potrace 1.13, written by Peter Selinger 2001-2015
<rdf:RDF>
  <cc:Work
     rdf:about="">
    <dc:format>image/svg+xml</dc:format>
    <dc:type
       rdf:resource="http://purl.org/dc/dcmitype/StillImage" />
    <dc:title></dc:title>
  </cc:Work>
</rdf:RDF>
</metadata>
  <g
     transform="translate(0.000000,162.000000) scale(0.100000,-0.100000)"
     fill="#ffffff"
     stroke="none"
     id="g6">
    <path
       d="m 800,1536 c 0,-59 -23,-71 -58,-31 -27,31 -51,32 -81,4 -27,-25 -41,-60 -41,-100 0,-16 -10,-44 -22,-60 -30,-40 -38.00636,-123.839 -10.00636,-166.839 14,-22 27.72246,-12.9873 35.72246,-1.9873 C 633.7161,1195.1737 629,1139 611,1051 601,1000 623.87076,970.16102 653.87076,938.16102 677.87076,912.16102 668,905 596,775 556,702 505,640 484,640 c -6,0 -15,8 -19,18 -6,16 -7,16 -17,-1 -5,-10 -2.14613,-28.78653 0.85387,-41.78653 7,-26 52.43003,-47.1944 80.43003,-47.1944 26,0 60.27754,31.13559 82.27754,76.13559 C 665,742.16737 682.01271,740.45763 670,571 c -5.09124,-71.81977 -2,-131 -4,-131 -3,0 -11,6 -18,13 -29,28 -75,55 -115,67 -58,18 -108,-8 -145,-76 -35,-62 -32.5678,-94.12924 0.4322,-133.12924 14,-16 30.14831,-26.56144 30.14831,-34.56144 0,-9 2.42585,-25.7161 7.42585,-35.7161 10,-18 7.70974,-13.70975 25.70974,1.29025 11,9 20.70975,38.5678 26.70975,68.5678 20,91 54.1483,98.70339 122.1483,62.70339 C 640.57415,351.15466 663,296 655,260 c -7,-31 25.78653,-64.22493 53.78653,-64.22493 45,0 69.42694,-69.3596 38.42694,-112.359596 -22,-30 -0.78654,-40.966332 65.21346,-40.966332 74,0 88.14614,6.078796 62.14614,51.078796 -24,42.000002 -23.21347,68.314472 7.78653,68.314472 15,0 50.1798,5.93266 82.1798,19.93266 l 59.4269,31.06734 L 1094,170.16834 c 62,-35 59.899,-37.8202 88.899,-25.8202 22,9 39.4269,20.32593 56.4269,56.32593 37,81 17.2808,133.42693 -28.7192,68.42693 C 1184.6067,233.101 1165,222 1125,254 c -29,23 -39.101,30.4606 -25.101,67.4606 37,102 33,120 -26,115 -40,-3 -63.899,1.5394 -63.899,16.5394 0,6 -15,47 -34,92 -34,80 -59.85805,199.73517 -35.85805,160.73517 18,-30 42.85169,-57.7161 58.85169,-57.7161 15.99996,0 53.28386,37.83898 53.28386,60.83898 0,7 -8.7097,15.4322 -25.7097,15.4322 -32,0 -44.85805,42.02543 -57.85805,106.02543 -7,36 24.28389,100.99364 52.28385,107.99364 29,8 68.0064,22.69068 52.0064,28.69068 -7,3 -13,20 -13,39 0,28 3.8517,59.303 37.8517,93.303 79,77 71.5487,111.2775 48.7097,157.5614 -20.7367,42.0237 -46,105 -40,168 6,52 4.8581,63.4259 -10.1419,79.4259 -23,25 -24.4195,20.7097 -53.4195,-6.2903 -24,-22 -25,-22 -72,-5 -27,9 -62,17 -79,17 -21,0 -35,8 -46,25 -21,32 -46,33 -46,1 z"
       id="path4"
       inkscape:connector-curvature="0"
       sodipodi:nodetypes="sccsscccccscccscssccccscccccscscscccccccccsccssscccscsccccscs" />
  </g>
  <g
     style="fill:#7c5e29;stroke:none"
     transform="matrix(0.1,0,0,-0.1,-0.29695642,160.564)"
     id="g20">
    <path
       inkscape:connector-curvature="0"
       d="m 800,1550 c 0,-10 -5,-31 -12,-45 l -11,-26 -28,31 c -32,34 -54,37 -85,12 -30,-24 -44,-55 -44,-97 0,-25 -8,-47 -25,-67 -21,-25 -25,-40 -25,-92 0,-82 16,-129 41,-123 23,6 22,9 4,-43 -27,-76 -12,-179 27,-192 10,-4 9,-14 -5,-44 -30,-63 -103,-177 -131,-203 -22,-21 -26,-22 -32,-7 -11,28 -34,19 -34,-15 0,-41 15,-66 51,-84 52,-27 102,3 145,88 13,26 27,47 29,47 3,0 5,-56 5,-125 V 441 l -25,25 c -34,34 -102,64 -148,64 -51,0 -91,-30 -122,-90 -28,-55 -25,-111 8,-147 11,-12 21,-30 22,-40 2,-27 16,-53 27,-53 20,0 46,42 58,93 16,65 25,77 62,77 21,0 41,-11 69,-38 37,-37 38,-40 27,-70 -11,-29 -10,-34 16,-61 15,-16 40,-31 55,-34 39,-8 50,-58 21,-94 -31,-40 -12,-53 75,-53 56,0 74,4 79,15 6,18 -2,44 -21,67 -20,23 -8,38 30,38 18,0 53,10 77,22 l 45,23 54,-32 c 57,-34 106,-42 133,-20 26,20 58,80 58,109 0,66 -24,75 -67,23 l -28,-36 -37,26 -36,25 19,51 c 11,29 19,64 17,78 -3,24 -7,26 -50,26 -27,1 -52,5 -57,10 -21,23 -108,245 -96,245 2,0 13,-16 25,-35 12,-20 30,-35 40,-35 26,0 60,47 60,82 0,25 -3,28 -27,26 -26,-3 -30,2 -46,51 -16,48 -16,55 -2,71 8,9 15,26 15,38 0,15 6,22 19,22 11,0 33,11 48,24 22,20 26,27 16,37 -27,28 -14,64 42,122 48,48 55,61 55,95 0,24 -8,49 -20,65 -11,14 -20,33 -20,42 0,9 -5,26 -12,38 -7,13 -11,54 -9,99 2,75 1,78 -24,90 -22,10 -29,8 -53,-14 l -27,-26 -45,18 c -25,10 -58,16 -75,13 -26,-4 -31,-1 -42,26 -13,36 -53,45 -53,11 z m -59,-93 c 12,-23 31,-52 42,-64 l 20,-23 h -21 c -26,0 -52,-36 -52,-73 0,-35 52.73426,-95.6421 72,-97 18.78015,-1.3237 96,49 85,106 -4,21 -1,25 14,21 11,-3 22,-1 25,5 9,14 32,-23 26,-44 -4,-18 41,-98 56,-98 16,0 43,26 46,45 2,11 14,22 29,26 32,9 32,8 10,-34 -25,-50 -114.16834,-100 -137.26934,-90.3481 C 1016.2579,1159 1008,1190 935,1156 c -27,-5 -46,-2 -76,13 -47,25 -49,25 -49,7 0,-8 10,-22 22,-30 35,-25 1,-19 -60,9 -34,16 -56,33 -59,46 -4,12 -17,43 -31,68 -17,32 -26,67 -30,118 -4,67 -3,73 22,98 31,31 39,27 67,-28 z m 120,12 c 99,29 189,-28 189,-119 0,-20 5,-41 12,-48 9,-9 6,-12 -16,-12 -32,0 -76,41 -96,90 -14,34 -39,40 -47,10 -7,-25 -14,-25 -63,0 -45,23 -59,53 -36,79 9,10 16,24 16,32 0,8 6,3 13,-11 8,-14 20,-23 28,-21 z m 229,-29 c 0,-27 -2,-50 -4,-50 -2,0 -14,16 -25,36 -17,28 -19,39 -10,50 24,29 39,16 39,-36 z M 630,1313 c 0,-10 9,-33 20,-51 11,-18 20,-39 20,-47 0,-8 15,-32 34,-53 l 34,-38 -27,-79 C 674,936 667,925 651,943 c -22,27 -23,81 -3,157 19,70 19,76 4,88 -10,7 -17,16 -17,20 0,4 -8,6 -17,5 -15,-2 -18,5 -18,41 0,49 7,76 21,76 5,0 9,-8 9,-17 z m 224.06734,3.7865 c 10.87162,-22.3239 6.0599,-57.4337 -13,-73.3481 -15.19977,-12.6914 -43.90667,-12.0898 -59.40437,0.236 -21.35563,16.9848 -28.65729,54.2639 -18.74141,79.6848 5.07019,12.9982 20.70829,22.7485 34.6404,23.4943 21.30513,1.1406 47.1639,-10.8851 56.50538,-30.067 z M 1015.899,1274.865 c 32.8336,-21.022 17.7575,-51.1537 -0.3259,-57.2353 -19.41141,-6.5283 -42.11884,36.7881 -37.4044,48.741 4.71443,11.9529 4.89667,29.5162 37.7303,8.4943 z M 1150,1192 c 0,-20 -14,-42 -50,-77 -53,-52 -71,-91 -67,-140 2,-27 -1,-30 -30,-33 -31,-3 -33,-6 -33,-40 0,-61 -18,-23 -33,69 -16,102 -11,124 35,133 47,9 122,58 144,95 20,35 34,32 34,-7 z m -287,-97 c 20,-3 37,-8 37,-11 0,-21 -35,-65 -56,-70 -47,-12 -98,46 -80,91 4,11 12,12 33,5 15,-4 45,-11 66,-15 z M 750,978 c 0,-12 -12,-46 -27,-77 -14,-31 -50,-108 -80,-171 -30,-63 -61,-122 -70,-132 -17,-19 -59,-23 -82,-9 -12,8 -11,13 10,30 22,18 25,18 42,4 22,-20 33,-10 20,19 -7,17 -3,31 25,72 39,58 101,179 127,248 18,48 35,55 35,16 z m 127,-52 c -10,-107 28,-298 79,-398 32,-63 30,-78 -14,-109 -55,-40 -109,-59 -161,-59 -75,0 -74,-3 -79,192 -2,95 -8,177 -12,181 -10,11 56,143 75,151 10,4 15,20 15,53 v 48 h 51 51 z M 995,702 c 17,-15 25,-28 21,-39 -9,-22 -17,-12 -65,76 -33,60 -41,83 -40,125 v 51 l 29,-95 c 20,-68 36,-101 55,-118 z M 566,481 c 23,-10 50,-31 60,-46 11,-15 27,-35 36,-45 9,-11 14,-27 11,-39 -5,-20 -6,-20 -24,3 -11,14 -39,32 -63,41 -40,16 -47,16 -75,2 -33,-16 -35,-14 -31,31 2,29 -19,28 -45,-1 -11,-13 -16,-17 -11,-10 4,7 6,19 3,26 -6,17 2,30 28,45 29,16 64,14 111,-7 z m 505,-78 37,-5 -10,-37 c -24,-86 -73,-147 -140,-175 -53,-22 -147,-20 -209,5 -72,28 -79,40 -60,98 9,25 17,48 18,50 2,2 20,-2 42,-9 50,-16 125,5 196,54 32,23 57,34 70,30 11,-3 36,-8 56,-11 z m 38,-167 c 6,-8 25,-19 42,-26 28,-12 32,-11 59,15 37,35 41,14 7,-36 -29,-44 -55,-47 -116,-13 -47,27 -48,29 -34,51 18,27 26,28 42,9 z M 830,131 c 0,-15 -38,-20 -44,-5 -4,10 2,14 19,14 14,0 25,-4 25,-9 z m 11,-51 c 32,-18 21,-30 -26,-30 -48,0 -59,15 -22,30 29,11 26,11 48,0 z"
       id="path16"
       sodipodi:nodetypes="sccccscsccccccsccsscsscscscscccccsccsccccsccccccccscsscccsscccscscccccsccscccsssccccsccccccscccccsccsssccccsccssccssssccccccscsssaaaaaazazzscccscccscsccccscscccccccscccscccsccccccccccccccscccccccccccccccccccccccccccsssscscc" />
    <path
       inkscape:connector-curvature="0"
       d="m 905,1231 c -9,-16 35,-35 48,-22 9,9 8,14 -3,21 -19,12 -37,13 -45,1 z"
       id="path18" />
    <ellipse
       id="path31"
       cx="796.66663"
       cy="-1336.6411"
       transform="scale(1,-1)"
       rx="39.470341"
       ry="22.738348"
       style="stroke-width:7.5" />
    <ellipse
       id="path33"
       cx="999.16663"
       cy="-1280.0096"
       transform="scale(1,-1)"
       rx="21.451271"
       ry="12.441738"
       style="stroke-width:7.5" />
  </g>
</svg>
