<?xml version="1.0" encoding="UTF-8" standalone="no"?>
<svg
   xmlns:dc="http://purl.org/dc/elements/1.1/"
   xmlns:cc="http://creativecommons.org/ns#"
   xmlns:rdf="http://www.w3.org/1999/02/22-rdf-syntax-ns#"
   xmlns:svg="http://www.w3.org/2000/svg"
   xmlns="http://www.w3.org/2000/svg"
   xmlns:sodipodi="http://sodipodi.sourceforge.net/DTD/sodipodi-0.dtd"
   xmlns:inkscape="http://www.inkscape.org/namespaces/inkscape"
   version="1.0"
   width="162.000000pt"
   height="162.000000pt"
   viewBox="0 0 162.000000 162.000000"
   preserveAspectRatio="xMidYMid meet"
   id="svg8"
   sodipodi:docname="Marty.svg"
   inkscape:version="0.92.1 r15371">
  <defs
     id="defs12" />
  <sodipodi:namedview
     pagecolor="#ffffff"
     bordercolor="#666666"
     borderopacity="1"
     objecttolerance="10"
     gridtolerance="10"
     guidetolerance="10"
     inkscape:pageopacity="0"
     inkscape:pageshadow="2"
     inkscape:window-width="1920"
     inkscape:window-height="1056"
     id="namedview10"
     showgrid="false"
     inkscape:zoom="2.1851852"
     inkscape:cx="137.07009"
     inkscape:cy="100.09399"
     inkscape:window-x="0"
     inkscape:window-y="24"
     inkscape:window-maximized="1"
     inkscape:current-layer="svg8"
     inkscape:pagecheckerboard="true" />
  <metadata
     id="metadata2">
Created by potrace 1.13, written by Peter Selinger 2001-2015
<rdf:RDF>
  <cc:Work
     rdf:about="">
    <dc:format>image/svg+xml</dc:format>
    <dc:type
       rdf:resource="http://purl.org/dc/dcmitype/StillImage" />
    <dc:title />
  </cc:Work>
</rdf:RDF>
</metadata>
  <g
     transform="matrix(0.1,0,0,-0.1,10.515168,158.45227)"
     id="g6"
     style="fill:#ffffff;stroke:none">
    <path
       d="m 927,1490 c -32,-28 -40,-30 -115,-30 -45,0 -93,-5 -107,-12 -23,-10 -29,-8 -63,25 -73,71 -117,36 -117,-95 l 5.36282,-75.4258 L 592,1237 c 109,-101 121,-149 93,-357 -17,-122 -20,-296 -5,-305 11,-7 13,-109 4,-168 -6,-34 -9,-37 -39,-37 -62,0 -109,78 -122,202 -4,40 -2,62 7,73 10,13 10,19 -4,33 -9,10 -16,24 -16,30 0,7 -24.44492,2.70339 -35.44492,3.70339 C 463.55508,711.70339 465,723 459,724 c -5,1 -22,-21 -37,-49 -15,-27 -30,-52 -33,-55 -4,-3 -10,-24 -13,-46 -9,-53 8,-96 70,-175 54,-68 89,-92 157,-109 57.86441,-3.56144 65.01271,-13.85169 37,-79 -5,-20 -12,-53 -15,-74 -5,-28 -11,-37 -25,-37 -21,0 -60,-33 -60,-50 0,-20 45,-28 101,-18 59,10 67.31105,28.659345 79,69 4.71928,16.28708 2.85487,24.56462 6.13877,35.28708 5.14195,15.44173 8.2839,19.57097 13.86123,34.71292 5.8758,15.95227 7,38 16,46 15,15 18,15 42,0 26,-15 27,-19 24,-88 -4,-84 3.4322,-75.271186 77.4322,-75.271186 C 1010.4322,53.728814 1043,65 976,96 c -31,15 -34,21 -38,71 -3,34 -13,64 -26,83 -20,27 -15.49593,41.14903 -22,183 -6.86441,149.70975 -6.86441,153.2839 3.54873,171.85805 31.1483,8.41949 45.72881,32.12924 35.45127,62.14195 -3.66531,10.70353 -6,24 6,59 20,59 14,113 -21,192 -20,45 -34.0343,73.56468 -29.4606,149.4269 l 0.60673,86.9327 66.2829,19.6436 C 1006.429,1186.0032 1013,1188 1027,1220 c 17,40 17,47 9,148 -7,80 -25,125 -56,142 -15,8 -25,5 -53,-20 z"
       id="path4"
       inkscape:connector-curvature="0"
       sodipodi:nodetypes="csccscccccscccscccccccccsscscscccscccscsccscccccc" />
  </g>
  <g
     style="fill:#7c5e29;stroke:none"
     transform="matrix(0.1,0,0,-0.1,10.451383,158.31516)"
     id="g22">
    <path
       inkscape:connector-curvature="0"
       d="m 549,1501 c -19,-16 -24,-30 -27,-90 -7,-111 1,-134 58,-175 30,-21 61,-56 80,-88 25,-45 30,-64 30,-121 0,-38 -4,-98 -10,-135 -14,-103 -18,-297 -6,-319 10,-18 10,-151 0,-185 -16,-54 -102,16 -127,102 -28,102 -30,130 -10,152 17,19 17,20 -5,38 -12,10 -22,24 -22,30 0,7 -8,10 -20,7 -11,-3 -18,0 -17,7 1,6 -5,11 -13,11 -8,0 -28,-25 -43,-55 -16,-30 -34,-58 -40,-61 -5,-4 -7,-15 -3,-24 3,-10 1,-24 -5,-31 -19,-23 16,-104 76,-176 57,-68 102,-97 166,-105 22,-3 39,-6 39,-7 0,0 -7,-26 -15,-56 -8,-30 -15,-70 -15,-87 0,-30 -3,-33 -29,-33 -34,0 -54,-20 -49,-52 3,-22 7,-23 76,-21 41,1 79,7 86,12 7,6 18,40 26,76 7,36 21,76 29,89 16,24 16,24 40,5 21,-17 23,-25 20,-91 0,0 -1.1912,-54.496981 11.26721,-66.742327 C 835.94457,42.962106 915,45 915,45 c 93,0 100,1 100,20 0,13 -13,27 -37,40 -26,14 -37,26 -36,40 3,50 -3,84 -22,107 -17,22 -20,45 -24,181 l -4,155 24,6 c 28,7 42,49 24,71 -9,11 -9,22 0,51 19,56 9,151 -23,215 -22,47 -27,69 -27,135 v 79 l 49,18 c 27,9 55,17 62,17 26,0 52,74 45,127 -4,26 -8,71 -9,100 -5,97 -63,140 -119,87 -27,-27 -34,-28 -97,-25 -44,2 -80,-3 -104,-13 -35,-14 -37,-14 -51,6 -17,24 -65,58 -82,58 -7,0 -22,-8 -35,-19 z m 447,-46 c 20,-48 18,-63 -6,-38 -10,12 -28,24 -40,28 -25,8 -26,21 -2,34 27,16 32,13 48,-24 z m -356,-15 31,-40 32,17 c 42,23 177,22 227,0 19,-9 28,-16 20,-17 -9,0 -26,-7 -39,-17 -20,-14 -22,-18 -9,-27 8,-6 15,-20 16,-31 1,-22 8,-75 10,-88 1,-5 14,-7 30,-5 25,3 27,7 30,51 2,32 -2,57 -12,72 -9,14 -12,26 -6,30 28,18 60,-103 38,-145 -12,-23 -20,-25 -98,-30 -75,-4 -85,-7 -83,-24 1,-15 -4,-17 -30,-13 -18,3 -40,8 -49,12 -26,10 -23,-22 3,-36 12,-6 42,-9 68,-7 l 46,3 -4,-42 c -3,-41 -4,-43 -37,-43 -57,0 -99,27 -124,80 -21,44 -45,73 -117,139 -30,26 -33,35 -33,84 0,30 3,69 6,86 9,45 44,42 84,-9 z m 135,-406 c 21,-9 49,-14 61,-11 l 24,4 2,-354 c 2,-195 0,-357 -3,-359 -3,-2 -43,-6 -89,-10 l -83,-7 7,24 c 12,43 27,191 21,210 -5,14 -1,19 13,19 36,0 45,47 37,198 -4,75 -8,139 -10,141 -2,1 -9,0 -16,-4 -9,-6 -10,-36 -5,-116 6,-105 6,-109 -14,-109 -18,0 -20,6 -20,71 0,61 29,319 35,319 2,0 20,-7 40,-16 z M 918,777 c -2,-31 -10,-63 -16,-69 -9,-9 -12,12 -11,93 1,102 1,103 16,69 10,-23 14,-55 11,-93 z m -6,-149 c -7,-7 -12,-8 -12,-2 0,14 12,26 19,19 2,-3 -1,-11 -7,-17 z M 736,614 c -3,-9 -6,-20 -6,-25 0,-5 -7,-9 -15,-9 -9,0 -15,9 -15,25 0,19 5,25 21,25 15,0 19,-4 15,-16 z M 539,428 c 23,-50 69,-88 104,-88 21,0 22,-19 1,-27 -32,-12 -99,19 -149,69 -43,44 -47,51 -32,59 9,6 17,16 17,22 0,7 8,13 18,14 11,0 25,-16 41,-49 z M 872,263 c 33,-39 32,-45 -9,-37 -21,3 -47,15 -59,25 -26,24 -39,24 -57,-1 -11,-16 -21,-19 -45,-14 -39,8 -32,31 11,37 86,11 144,7 159,-10 z M 708,195 c 1,-1 -4,-31 -11,-66 -12,-59 -15,-64 -42,-70 -48,-10 -85,-10 -85,1 0,6 15,10 34,10 39,0 41,4 51,88 6,48 9,52 28,46 12,-4 23,-7 25,-9 z m 177,-81 c -15,-12 -24,-27 -21,-33 4,-6 2,-11 -3,-11 -27,0 -7,103 22,115 20,9 22,7 25,-20 3,-23 -3,-35 -23,-51 z m 70,-34 c 15,-7 9,-9 -25,-9 -33,-1 -41,2 -30,9 18,12 28,12 55,0 z"
       id="path16"
       sodipodi:nodetypes="ccccsccccccsccscccccccsssccccccccsscccccssccsccsccccccsccccccccccccccccccccccccccccsccsccccccsccccsccccsssccscccsscssssssscscccscccccccccsccssccsscsccscccc" />
    <path
       inkscape:connector-curvature="0"
       d="m 714,1388 c -4,-6 -3,-13 3,-15 7,-3 10,-23 7,-56 -5,-44 -2,-56 19,-81 16,-20 29,-27 41,-23 23,9 39,56 32,98 -5,31 -3,38 15,42 34,9 17,29 -26,31 -22,2 -50,6 -62,10 -13,4 -24,2 -29,-6 z m 66,-78 c 0,-16 -5,-30 -10,-30 -14,0 -24,26 -16,45 10,26 26,16 26,-15 z"
       id="path18" />
    <path
       inkscape:connector-curvature="0"
       d="m 855,1250 c -8,-12 20,-24 35,-15 5,3 10,10 10,16 0,12 -37,12 -45,-1 z"
       id="path20" />
  </g>
</svg>
