<?xml version="1.0" encoding="UTF-8" standalone="no"?>
<svg
   xmlns:dc="http://purl.org/dc/elements/1.1/"
   xmlns:cc="http://creativecommons.org/ns#"
   xmlns:rdf="http://www.w3.org/1999/02/22-rdf-syntax-ns#"
   xmlns:svg="http://www.w3.org/2000/svg"
   xmlns="http://www.w3.org/2000/svg"
   xmlns:sodipodi="http://sodipodi.sourceforge.net/DTD/sodipodi-0.dtd"
   xmlns:inkscape="http://www.inkscape.org/namespaces/inkscape"
   version="1.0"
   width="162.000000pt"
   height="163.000000pt"
   viewBox="0 0 162.000000 163.000000"
   preserveAspectRatio="xMidYMid meet"
   id="svg8"
   sodipodi:docname="Remmy.svg"
   inkscape:version="0.92.1 r15371">
  <defs
     id="defs12" />
  <sodipodi:namedview
     pagecolor="#ffffff"
     bordercolor="#666666"
     borderopacity="1"
     objecttolerance="10"
     gridtolerance="10"
     guidetolerance="10"
     inkscape:pageopacity="0"
     inkscape:pageshadow="2"
     inkscape:window-width="736"
     inkscape:window-height="480"
     id="namedview10"
     showgrid="false"
     inkscape:zoom="3.0713595"
     inkscape:cx="157.36846"
     inkscape:cy="84.258209"
     inkscape:window-x="671"
     inkscape:window-y="411"
     inkscape:window-maximized="0"
     inkscape:current-layer="svg8"
     inkscape:pagecheckerboard="true" />
  <metadata
     id="metadata2">
Created by potrace 1.13, written by Peter Selinger 2001-2015
<rdf:RDF>
  <cc:Work
     rdf:about="">
    <dc:format>image/svg+xml</dc:format>
    <dc:type
       rdf:resource="http://purl.org/dc/dcmitype/StillImage" />
    <dc:title></dc:title>
  </cc:Work>
</rdf:RDF>
</metadata>
  <g
     transform="matrix(0.09498025,0,0,-0.09764176,3.8499434,161.13535)"
     id="g6"
     style="fill:#ffffff;stroke:none">
    <path
       d="m 521,1602 c -24,-9 -53,-29 -64,-44 -19,-25 -19,-31 -7,-69 14,-41 9.5008,-39.4991 -20.4992,-59.4991 C 388.5008,1399.5009 342,1343 325,1310 c -19,-37 -34,-141 -32,-217 2,-45 11.85646,-67.4991 27.85646,-88.4991 -3.13395,-71.75313 5.92823,-126.49733 -112.07177,-181.49733 -28,-13 -71.21212,-42.50268 -80.21212,-56.50268 C 112.57257,741.50089 119,737 139,717 l 20,-22 -37.3622,-19.25271 c -36.999997,-35 -58.135402,-65.11314 -45.135402,-90.11314 13,-24 43.641142,-48.75491 91.641142,-57.75491 C 192.14354,523.87924 211,503 215,490 223,466 270.28549,448.1279 306.28549,448.1279 320.28549,448.1279 330,437 330,434 330,431 304,402 272,371 175,278 128,173 165,136 c 10,-9 24,-15 31,-12 10,4 12,-2 8,-23 -7,-36 11,-71 36,-71 13,0 0.003,-16.879239 -3.9968,-26.8792391 -5,-13 79.28229,-6.8720996 574.28229,-6.8720996 532.00001,0 562.28551,-5.2522311 554.28551,11.7477689 C 1358.571,17.99643 1356,45 1361,59 c 8,20 11.429,33.00357 37.429,27.00357 l 34.0189,4.638184 1.9795,32.111366 C 1430.4274,152.75312 1412,171 1391,197 c -17,20 -31,42 -31,47 0,5 -15,30 -34,56 l -34,48 17.5726,16.25223 c 26,13 45.4274,42.74777 36.4274,79.74777 -13,51 -183.7113,105.99643 -291.7113,105.99643 -30,0 -58.42742,20.50625 -54.42742,23.50625 3.00002,3 111.13872,22.7181 212.13872,27.7181 148,7 190.1435,4.53413 235.1435,21.53413 99,37 123.6412,74 82.6412,176 C 1464.7847,959.75491 1212,1124 988,1169 l -72.71132,10.7496 -4,98.2504 c -3,95 12.71132,99 -29.28868,164 -48,74 -119,143 -169,164 -44,19 -138,17 -192,-4 z"
       id="path4"
       inkscape:connector-curvature="0"
       sodipodi:nodetypes="cccccccccccccccssccccscsccccccsccccscccccccccc" />
  </g>
  <g
     style="fill:#8a7d72;stroke:none"
     transform="matrix(0.1,0,0,-0.1,-0.51674997,161.9396)"
     id="g30">
    <path
       inkscape:connector-curvature="0"
       d="m 522,1593 c -24,-8 -50,-26 -59,-39 -14,-22 -14,-30 -2,-66 13,-40 12,-41 -16,-64 -95,-77 -118,-110 -134,-199 -21,-112 -9,-216 25,-229 11,-4 14,-14 9,-35 -9,-42 11,-48 25,-7 10,31 9,36 -15,60 -21,21 -26,36 -26,74 0,26 0,62 0,81 0,98 28,148 135,239 31,26 37,37 31,55 -4,12 -8,35 -9,51 -1,37 40,64 113,73 97,11 181,-44 256,-168 42,-68 52,-121 41,-212 l -7,-54 -62,-7 c -73,-7 -150,-43 -213,-99 -61,-54 -86,-105 -82,-170 l 3,-52 h 53 c 28,1 52,-2 52,-6 0,-3 -6,-25 -14,-47 -8,-22 -12,-43 -8,-46 3,-4 21,-3 39,0 29,6 33,4 33,-16 0,-19 4,-22 29,-17 23,5 30,2 39,-19 9,-19 19,-24 49,-24 21,0 47,-7 58,-16 14,-10 32,-13 61,-8 41,6 93,-10 79,-24 -4,-4 -25,-11 -48,-17 -53,-13 -65,-39 -13,-30 29,6 36,4 36,-9 0,-9 -7,-16 -15,-16 -25,0 -65,-23 -65,-37 0,-17 0,-16 41,5 26,13 59,17 139,17 96,0 110,-2 160,-28 77,-40 86,-51 72,-81 -9,-21 -19,-25 -91,-31 -56,-5 -81,-11 -81,-20 0,-7 32,-32 72,-55 90,-54 178,-138 178,-170 0,-22 -2,-23 -62,-17 -35,4 -73,10 -85,13 -15,4 -23,2 -23,-6 0,-6 8,-14 18,-17 11,-2 26,-24 36,-53 16,-45 20,-48 52,-48 26,0 32,3 25,12 -7,9 -7,23 2,45 10,28 16,32 39,29 15,-3 29,0 31,6 7,20 -16,70 -50,112 -18,23 -33,46 -33,51 0,6 -13,29 -30,51 -16,23 -30,44 -30,46 0,2 11,7 25,10 25,6 40,38 33,73 -4,22 -86,78 -136,93 -20,7 -68,14 -107,16 -91,7 -106,12 -81,26 10,6 100,14 200,19 300,13 358,49 301,190 -32,81 -88,147 -189,222 -119,87 -247,145 -360,162 l -44,7 -4,102 c -3,101 -3,101 -49,171 -47,71 -116,137 -164,155 -38,14 -133,11 -183,-7 z m 581,-491 c 189,-73 411,-274 383,-347 -4,-12 -12,-12 -53,0 -56,17 -73,19 -73,6 0,-5 19,-16 43,-24 34,-11 41,-18 39,-35 -4,-29 1,-28 35,6 l 28,27 3,-25 c 5,-32 -34,-63 -101,-80 -29,-7 -127,-15 -218,-18 l -165,-4 -31,26 c -24,20 -37,24 -65,20 -24,-4 -43,-1 -61,10 -15,11 -34,15 -50,11 -20,-5 -29,-1 -46,24 -13,17 -28,28 -36,25 -7,-3 -19,4 -25,16 -9,17 -18,21 -40,16 -28,-5 -28,-4 -19,24 19,52 10,65 -46,65 -44,0 -50,3 -53,22 -10,72 52,161 147,212 126,67 269,75 404,23 z m 164,-784 c 47,-46 41,-52 -14,-16 -66,43 -71,48 -43,48 13,0 39,-14 57,-32 z m 62,-245 c 0,-10 -4,-26 -8,-36 -6,-15 -9,-13 -24,17 l -17,36 h 25 c 17,0 25,-5 24,-17 z"
       id="path16" />
    <path
       inkscape:connector-curvature="0"
       d="m 952,1079 c -18,-5 -80,-18 -139,-29 -109,-20 -141,-36 -129,-65 5,-14 14,-16 43,-10 l 36,6 -26,-31 c -35,-42 -51,-100 -36,-134 18,-39 82,-59 176,-55 90,5 122,22 148,80 29,63 -4,141 -65,154 -42,9 -37,20 12,31 45,9 63,38 36,55 -15,10 -13,10 -56,-2 z M 938,977 c 99,-20 96,-154 -5,-188 -45,-15 -157,-5 -189,16 -65,42 14,169 114,182 23,3 43,11 43,17 1,6 3,4 6,-5 2,-9 16,-19 31,-22 z"
       id="path18" />
    <path
       inkscape:connector-curvature="0"
       d="m 856,891 c -22,-3 -42,-12 -44,-20 -4,-12 7,-13 57,-8 68,7 84,13 76,28 -7,10 -27,10 -89,0 z"
       id="path20" />
    <path
       inkscape:connector-curvature="0"
       d="M 395,949 C 339,891 248,822 198,800 174,790 149,772 142,760 131,742 132,736 153,718 l 24,-22 -30,-25 c -39,-33 -61,-85 -47,-111 10,-18 65,-40 103,-40 9,0 17,-6 17,-14 0,-22 46,-54 91,-61 l 40,-7 -64,-62 C 167,259 122,130 201,130 c 15,0 17,-5 13,-30 -7,-34 9,-60 38,-60 15,0 18,-5 13,-21 -11,-33 16,-18 34,19 19,37 25,39 54,12 11,-11 38,-23 59,-26 21,-4 35,-10 32,-15 -3,-5 1,-9 8,-9 34,0 161,152 199,238 8,19 19,30 27,27 21,-8 23,17 8,70 -9,27 -14,51 -12,53 5,4 112,-157 122,-182 3,-9 10,-16 15,-16 20,0 6,35 -49,118 -77,116 -80,121 -48,92 15,-14 35,-37 44,-52 19,-33 37,-37 29,-7 -3,13 13,1 47,-35 74,-76 223,-171 340,-215 18,-8 26,-6 30,5 3,8 0,14 -7,14 -20,0 -154,67 -214,107 -78,51 -169,137 -195,184 -22,39 -38,50 -38,26 0,-7 8,-24 17,-37 9,-14 -13,3 -50,38 -37,34 -72,62 -78,62 -19,0 -21,-31 -5,-73 C 665,336 652,276 581,168 555,127 520,84 505,72 465,41 401,42 362,75 c -36,30 -53,31 -77,5 -28,-31 -45,-25 -45,14 0,47 -9,66 -31,66 -12,0 -19,7 -19,20 0,69 134,217 250,275 80,40 86,63 10,34 -49,-18 -142,-25 -175,-13 -8,4 -22,22 -30,40 -12,29 -19,34 -47,34 -73,0 -94,21 -68,70 24,44 67,62 155,64 68,1 87,5 105,21 39,35 81,103 101,167 23,69 16,83 -36,72 -29,-6 -30,-6 -12,13 45,51 1,43 -48,-8 z m 35,-48 C 414,871 339,809 296,789 255,771 170,749 170,756 c 0,2 21,14 46,26 26,12 81,49 122,84 72,59 114,74 92,35 z m 15,-76 c -14,-30 -39,-68 -54,-84 -27,-29 -33,-31 -103,-30 -40,0 -82,4 -93,9 -18,7 -17,8 10,15 83,19 125,39 183,86 35,29 65,63 69,78 7,26 8,26 11,3 2,-13 -8,-48 -23,-77 z"
       id="path22" />
    <path
       inkscape:connector-curvature="0"
       d="m 712,474 c 1,-9 9,-19 16,-22 9,-3 13,2 10,14 -1,9 -9,19 -16,22 -9,3 -13,-2 -10,-14 z"
       id="path24" />
    <path
       inkscape:connector-curvature="0"
       d="m 947,129 c 14,-14 234,-91 241,-84 11,11 -15,24 -113,59 -101,36 -149,46 -128,25 z"
       id="path26" />
    <path
       inkscape:connector-curvature="0"
       d="M 794,42 C 775,29 769,0 785,0 c 8,0 15,5 15,10 0,14 43,13 57,-1 6,-6 17,-9 24,-7 9,3 6,11 -9,26 -22,22 -57,28 -78,14 z"
       id="path28" />
  </g>
</svg>
