<?xml version="1.0" encoding="UTF-8" standalone="no"?>
<svg
   xmlns:dc="http://purl.org/dc/elements/1.1/"
   xmlns:cc="http://creativecommons.org/ns#"
   xmlns:rdf="http://www.w3.org/1999/02/22-rdf-syntax-ns#"
   xmlns:svg="http://www.w3.org/2000/svg"
   xmlns="http://www.w3.org/2000/svg"
   xmlns:sodipodi="http://sodipodi.sourceforge.net/DTD/sodipodi-0.dtd"
   xmlns:inkscape="http://www.inkscape.org/namespaces/inkscape"
   version="1.0"
   width="162.000000pt"
   height="163.000000pt"
   viewBox="0 0 162.000000 163.000000"
   preserveAspectRatio="xMidYMid meet"
   id="svg24"
   sodipodi:docname="Wolter-bg.svg"
   inkscape:version="0.92.1 r15371">
  <defs
     id="defs28" />
  <sodipodi:namedview
     pagecolor="#ffffff"
     bordercolor="#666666"
     borderopacity="1"
     objecttolerance="10"
     gridtolerance="10"
     guidetolerance="10"
     inkscape:pageopacity="0"
     inkscape:pageshadow="2"
     inkscape:window-width="736"
     inkscape:window-height="480"
     id="namedview26"
     showgrid="false"
     inkscape:pagecheckerboard="true"
     inkscape:zoom="1.5356798"
     inkscape:cx="270.80707"
     inkscape:cy="85.966086"
     inkscape:window-x="771"
     inkscape:window-y="406"
     inkscape:window-maximized="0"
     inkscape:current-layer="svg24" />
  <metadata
     id="metadata18">
Created by potrace 1.13, written by Peter Selinger 2001-2015
<rdf:RDF>
  <cc:Work
     rdf:about="">
    <dc:format>image/svg+xml</dc:format>
    <dc:type
       rdf:resource="http://purl.org/dc/dcmitype/StillImage" />
    <dc:title></dc:title>
  </cc:Work>
</rdf:RDF>
</metadata>
  <g
     transform="translate(0.000000,163.000000) scale(0.100000,-0.100000)"
     fill="#ffffff"
     stroke="none"
     id="g22">
    <path
       d="M726 1548 c-68 -90 -116 -233 -116 -345 0 -42 -4 -73 -10 -73 -5 0 -10 -13 -10 -28 0 -15 -4 -32 -9 -38 -27 -27 -7 -254 26 -300 15 -21 24 -51 27 -90 2 -33 9 -81 15 -107 6 -27 9 -52 6 -57 -3 -5 0 -49 6 -99 10 -78 9 -93 -5 -123 -39 -77 -84 -197 -99 -265 l-5 -23 255 0 256 0 -6 118 c-4 64 -12 144 -18 177 -17 91 -6 186 35 300 20 55 45 112 56 127 11 15 20 32 20 38 0 6 7 13 15 16 8 3 19 23 25 44 8 31 7 46 -10 85 -11 26 -20 64 -20 85 0 31 -5 42 -22 51 -51 27 -50 53 2 79 51 26 113 89 147 149 15 26 39 60 55 77 17 18 26 34 20 37 -14 9 -139 -12 -209 -34 -69 -23 -143 -81 -163 -129 -12 -29 -15 -30 -72 -30 -60 0 -60 0 -56 28 l4 28 -49 -33 c-27 -18 -60 -33 -74 -33 -25 0 -26 1 -19 58 4 31 11 102 16 157 5 55 14 116 19 135 6 19 11 38 11 42 0 18 -21 6 -44 -24z"
       id="path20" />
  </g>
  <g
     style="fill:#42342a;stroke:none"
     transform="matrix(0.1,0,0,-0.1,-0.33499182,161.8409)"
     id="g10"
     inkscape:export-xdpi="44.880001"
     inkscape:export-ydpi="44.880001">
    <path
       inkscape:connector-curvature="0"
       d="m 728,1583 c -74,-80 -125,-211 -134,-348 -4,-52 -11,-95 -15,-95 -5,0 -9,-13 -9,-30 0,-16 -4,-30 -9,-30 -14,0 -20,-63 -8,-85 7,-13 7,-20 -2,-23 -14,-5 -14,-37 1,-65 6,-12 12,-45 13,-73 1,-35 9,-61 24,-83 13,-17 20,-38 18,-46 -3,-7 1,-19 9,-26 14,-11 13,-14 -1,-22 -15,-8 -15,-10 0,-27 15,-16 15,-18 -1,-24 -15,-6 -15,-8 -2,-24 9,-9 13,-22 11,-29 -2,-6 1,-14 7,-18 8,-5 8,-10 0,-20 -7,-8 -7,-21 -1,-36 4,-13 12,-57 16,-97 6,-58 4,-77 -7,-90 C 616,267 562,131 546,61 533,4 533,0 550,0 c 12,0 20,10 24,32 12,60 27,110 32,105 3,-3 1,-22 -4,-43 C 579,2 579,0 598,0 c 14,0 22,16 36,73 20,78 21,89 11,128 -5,20 1,38 26,76 l 33,50 80,-49 c 102,-62 130,-63 190,-8 l 44,41 9,-63 c 6,-46 5,-66 -4,-73 -14,-12 -43,-109 -43,-147 0,-53 27,-31 41,34 l 14,63 3,-62 c 3,-56 5,-63 23,-63 20,0 21,4 15,108 -4,59 -14,150 -23,203 l -16,96 27,94 c 32,111 76,207 117,254 39,44 42,100 10,179 -19,46 -21,60 -11,66 19,12 5,38 -35,61 l -36,21 48,23 c 52,24 96,69 149,151 19,29 45,64 59,78 14,14 25,35 25,47 0,21 -2,22 -79,16 -174,-14 -286,-63 -326,-144 -15,-32 -26,-42 -45,-43 -14,0 -35,-3 -47,-6 -21,-6 -21,-4 -10,25 19,52 -2,59 -59,18 -27,-19 -60,-40 -73,-47 -23,-12 -24,-11 -17,11 4,13 11,74 16,134 5,61 16,136 25,168 11,42 12,64 5,78 -14,25 -21,24 -52,-8 z m -44,-164 c -14,-41 -32,-101 -40,-134 l -14,-60 4,55 c 4,50 62,227 72,217 2,-2 -8,-37 -22,-78 z m 31,-96 c -8,-84 -20,-133 -39,-158 -14,-18 -15,-15 -10,35 6,59 41,190 50,190 4,0 3,-30 -1,-67 z m 608,15 c -17,-18 -38,-46 -46,-63 -42,-83 -142,-164 -184,-148 -29,11 -74,46 -66,52 5,3 19,28 33,55 30,59 62,78 175,101 44,9 84,20 90,26 5,5 13,9 19,9 5,0 -4,-15 -21,-32 z m -316,-140 c -3,-8 -6,-5 -6,6 -1,11 2,17 5,13 3,-3 4,-12 1,-19 z m -197,-23 c 0,-12 14,-13 83,-8 80,5 84,5 90,-16 4,-17 1,-21 -19,-21 -22,0 -24,-3 -19,-40 3,-22 4,-40 2,-40 -2,0 -20,9 -42,20 -42,21 -85,26 -85,10 0,-6 25,-21 55,-35 44,-19 61,-34 87,-76 l 32,-51 8,28 c 4,16 3,44 -2,63 -5,19 -7,37 -5,39 2,3 30,-4 62,-14 54,-18 60,-22 85,-74 33,-66 34,-80 8,-80 -21,0 -27,15 -10,25 6,4 7,11 4,17 -9,15 -59,2 -94,-24 -36,-26 -39,-62 -8,-95 l 21,-23 h -36 c -45,0 -57,-18 -27,-42 27,-22 21,-22 -99,-3 -52,9 -96,14 -98,11 -3,-2 -2,-13 1,-23 19,-55 137,-81 211,-46 22,10 40,25 40,33 0,8 10,23 23,34 13,10 21,25 18,32 -4,9 2,14 17,14 29,0 54,19 60,45 l 5,20 1,-20 c 0,-11 -22,-54 -50,-95 -27,-41 -53,-87 -56,-102 -3,-16 -9,-28 -14,-28 -12,0 -38,-100 -45,-180 -7,-71 -10,-77 -53,-123 -54,-58 -71,-58 -155,-2 -78,51 -85,62 -91,140 l -6,70 21,-33 c 19,-31 45,-50 56,-40 2,3 -11,30 -29,61 -19,31 -40,71 -46,89 -7,18 -18,42 -24,53 -6,11 -19,38 -29,60 -10,22 -23,48 -28,57 -6,10 -10,24 -10,32 0,7 -7,31 -17,52 -19,46 -24,75 -12,89 4,6 6,34 4,62 -3,39 0,53 11,57 10,4 13,13 9,26 -5,14 -3,18 8,14 7,-2 20,2 27,11 7,8 19,15 26,15 8,0 14,6 14,14 0,8 15,17 33,20 19,3 42,13 53,21 24,18 34,19 34,0 z m 297,-331 c -3,-3 -12,-4 -19,-1 -8,3 -5,6 6,6 11,1 17,-2 13,-5 z"
       id="path4" />
    <path
       inkscape:connector-curvature="0"
       d="m 755,1010 c -3,-5 10,-16 30,-24 19,-8 35,-20 35,-25 0,-6 -32,-11 -72,-13 -57,-2 -73,-6 -73,-18 0,-12 10,-14 47,-12 54,4 108,-5 108,-18 0,-5 -42,-11 -92,-12 -88,-3 -93,-4 -96,-25 -2,-13 1,-23 6,-23 5,0 12,-8 14,-18 6,-20 91,-43 157,-41 46,1 97,30 94,55 -4,37 -48,122 -83,159 -24,25 -64,33 -75,15 z M 875,850 c 4,-6 -12,-9 -42,-9 l -48,2 40,7 c 22,4 41,8 42,9 1,0 5,-3 8,-9 z"
       id="path6" />
    <path
       inkscape:connector-curvature="0"
       d="m 899,498 c -1,-18 -2,-42 -3,-53 -1,-11 8,-30 19,-43 17,-20 17,-22 2,-16 -20,7 -24,-15 -5,-34 16,-16 28,-15 28,3 0,9 8,14 23,12 14,-1 21,3 19,12 -1,7 3,20 10,28 10,12 9,18 -7,30 -11,7 -20,18 -20,23 0,4 -3,11 -7,15 -4,4 -4,14 -1,22 7,17 -13,33 -39,33 -13,0 -18,-9 -19,-32 z"
       id="path8" />
  </g>
</svg>
