<?xml version="1.0" encoding="UTF-8" standalone="no"?>
<!-- Created with Inkscape (http://www.inkscape.org/) -->

<svg
   xmlns:dc="http://purl.org/dc/elements/1.1/"
   xmlns:cc="http://creativecommons.org/ns#"
   xmlns:rdf="http://www.w3.org/1999/02/22-rdf-syntax-ns#"
   xmlns:svg="http://www.w3.org/2000/svg"
   xmlns="http://www.w3.org/2000/svg"
   xmlns:sodipodi="http://sodipodi.sourceforge.net/DTD/sodipodi-0.dtd"
   xmlns:inkscape="http://www.inkscape.org/namespaces/inkscape"
   version="1.1"
   id="svg2"
   width="109.65055"
   height="264.79895"
   viewBox="0 0 109.65055 264.79895"
   sodipodi:docname="remmyShearedFullBody.svg"
   inkscape:version="0.92.2 (5c3e80d, 2017-08-06)"
   inkscape:export-filename="/home/root32/Desktop/remmySheared.png"
   inkscape:export-xdpi="185.62007"
   inkscape:export-ydpi="185.62007">
  <metadata
     id="metadata8">
    <rdf:RDF>
      <cc:Work
         rdf:about="">
        <dc:format>image/svg+xml</dc:format>
        <dc:type
           rdf:resource="http://purl.org/dc/dcmitype/StillImage" />
        <dc:title></dc:title>
      </cc:Work>
    </rdf:RDF>
  </metadata>
  <defs
     id="defs6" />
  <sodipodi:namedview
     pagecolor="#ffffff"
     bordercolor="#666666"
     borderopacity="1"
     objecttolerance="10"
     gridtolerance="10"
     guidetolerance="10"
     inkscape:pageopacity="0"
     inkscape:pageshadow="2"
     inkscape:window-width="1920"
     inkscape:window-height="1056"
     id="namedview4"
     showgrid="false"
     fit-margin-top="0"
     fit-margin-left="0"
     fit-margin-right="0"
     fit-margin-bottom="0"
     inkscape:zoom="8"
     inkscape:cx="63.981943"
     inkscape:cy="57.870727"
     inkscape:window-x="0"
     inkscape:window-y="24"
     inkscape:window-maximized="1"
     inkscape:current-layer="svg2"
     inkscape:pagecheckerboard="true" />
  <path
     style="opacity:1;vector-effect:none;fill:#ffffff;fill-opacity:1;stroke:none;stroke-width:684.50317383px;stroke-linecap:butt;stroke-linejoin:round;stroke-miterlimit:4;stroke-dasharray:none;stroke-dashoffset:0;stroke-opacity:1"
     d="M 53.652344,1.1035156 C 37.442526,1.1382885 29.907852,7.9432465 25.472656,17.167969 14.732905,31.07818 8.2966065,46.901518 1.7246094,62.664062 7.4276808,61.967191 15.439602,54.812199 23.730469,45.162109 31.46547,53.684437 38.293171,62.498425 32.240234,75.460938 24.764631,82.756175 19.363837,91.731849 16.882812,103.07031 l 4.226563,4.37891 c 0.292202,14.01015 -5.32856,37.71846 0.894531,42.00195 4.87621,1.63823 7.434796,-0.19809 11.044922,-0.45898 -4.384361,25.54163 -4.363757,47.00173 -3.373047,67.16015 l 3.428806,42.26291 11.935165,-1.71141 0.397748,-43.21165 h 12.748047 l 0.804804,40.52149 9.351446,-1.83009 c 2.773174,-11.49306 -2.709761,-36.37543 5.025391,-40.34179 4.722001,-21.86838 0.867885,-45.16612 1.296874,-67.75 l 8.923829,-0.7793 c 4.057844,-19.70431 -3.684069,-27.60892 -5.689453,-41.25 C 74.300728,94.361102 68.69207,89.173293 63.890625,82.976562 59.807475,75.278903 56.806986,67.582425 59.052734,59.884766 63.526437,52.561259 103.97938,64.932193 107.18555,54.505859 110.84154,31.584 100.67051,22.707059 93.955078,12.757812 93.062714,11.435734 94.214812,10.713614 93.404297,9.2929688 76.227686,3.498636 63.378234,1.0826519 53.652344,1.1035156 Z M 31.230469,119.50781 c 0.23798,0.009 0.579208,0.35616 1.111328,1.16407 0.867532,0.66755 1.36928,2.8145 1.148437,4.91406 l -0.179687,1.05273 c -0.453934,1.87483 -2.293249,4.30043 -3.113281,3.35742 -0.820176,-0.94528 -0.340619,-4.93845 0,-6.94531 0.48267,-1.94372 0.509646,-3.56196 1.033203,-3.54297 z"
     id="rect4635"
     inkscape:connector-curvature="0"
     sodipodi:nodetypes="sccccccccccccccccccccccccsccccccc" />
  <path
     style="fill:#a5a5a5"
     d="m 52.966797,0.00585938 c -3.25465,0.043 -6.219856,0.3123575 -8.441406,0.8359375 C 33.134291,3.5264668 25.072196,9.7394832 22.503906,17.814453 c -0.61697,1.9398 -3.263276,6.902344 -5.878906,11.027344 -2.61564,4.125 -6.6473675,11.55 -8.9609375,16.5 -2.31362,4.95 -5.1270331,10.945659 -6.2519531,13.324219 -2.92819,6.19147 -1.41866881,7.204091 5.6132812,3.763672 5.3695704,-2.62708 12.7408434,-9.733801 14.8710934,-14.337891 0.57258,-1.2375 1.30664,-2.233791 1.63086,-2.212891 0.77438,0.0499 6.085167,7.516212 8.460937,11.894532 1.47866,2.725039 1.763402,4.793902 1.357422,9.851562 -0.10909,6.87093 -4.08253,8.100243 -7.0625,12.533203 -4.14822,6.24957 -10.666015,20.111837 -10.666015,22.685547 0,2.09963 1.281747,3.28131 5.492187,4.60547 0,0 -2.416311,11.33703 -2.712891,26.55469 -0.21867,11.21998 -0.0309,12.90088 1.642578,14.75 2.030841,2.24406 6.477015,2.74873 9.583985,1.08593 1.03047,-0.55149 2.052384,-0.66399 2.271484,-0.25 0.21909,0.41398 -0.416239,6.15196 -1.412109,12.75196 -2.14199,14.19566 -3.706246,53.5 -2.128906,53.5 0.64694,0 1.3008,6.82228 1.75,18.25 0.71207,18.11526 2.346642,28.39103 4.757812,29.92187 l 6.25586,-0.17187 c 0.646321,-0.0178 4.614919,-1 9.5,-1 3.014529,0 7.914666,-0.2985 8.405137,-0.8943 1.462743,-2.05422 -1.303543,-5.69559 -2.776342,-7.36658 -1.472799,-1.67099 -3.457578,-1.51522 -5.305715,-1.97543 -1.869985,-0.46565 -5.705486,-0.0105 -5.57072,-1.62504 0.132823,-3.46977 0.476155,-17.83787 0.476155,-17.83787 l 0.271485,-18.80078 5.771484,-0.30078 5.773437,-0.30079 -0.273437,18.80079 c 1.313339,8.14935 -1.341691,24.03973 2.728516,29.30078 0.339919,-0.55 3.26492,-1 6.5,-1 4.547384,0.1241 6.532457,-0.0334 10.422874,-0.0555 3.006289,0 5.698899,-0.51176 6.099609,-1.16016 0.42129,-0.68166 -0.827501,-2.57758 -3.025391,-4.5918 -3.022577,-2.56388 -2.236614,-2.51143 -6.63699,-2.91111 -4.069938,-0.36966 -4.772189,-2.04032 -4.239009,-3.28147 0.35442,-0.825 0.866302,-9.0375 1.138672,-18.25 0.35806,-12.11083 0.829319,-16.75 1.699219,-16.75 0.66172,0 1.840654,-1.19286 2.621094,-2.65039 1.11503,-2.08241 1.419921,-7.91937 1.419922,-27.25 0,-13.52997 -0.326913,-28.03112 -0.726563,-32.22461 l -0.726563,-7.625 4.453126,0.50195 c 4.17203,0.47025 4.524338,0.32086 5.580078,-2.375 2.05512,-5.24779 -0.0226,-24.21134 -3.587891,-32.74414 -1.11809,-2.67596 -3.210937,-7.41211 -3.210937,-7.41211 0,0 0.672809,-0.62202 0.71875,-1.2832 0,-1.843101 -11.024571,-16.287241 -13.494141,-17.679691 -1.8548,-1.04581 -5.281336,-10.087679 -6.066406,-16.005859 -0.50776,-3.82763 -0.291109,-5.255776 0.988281,-6.535156 2.52918,-2.52918 8.18571,-3.129281 17.65039,-1.869141 4.756851,0.63334 12.779919,1.152344 17.830079,1.152344 8.415579,0 9.387089,-0.205438 11.636719,-2.455078 2.97342,-2.97341 3.26031,-9.161596 0.97656,-21.097657 -1.87759,-9.813269 -4.57086,-15.355618 -9.724608,-20.011718 -3.49584,-3.15824 -3.848846,-3.825642 -2.441406,-4.613282 2.08914,-1.16914 2.12202,-3.4245332 0.0625,-4.2148432 -0.87,-0.33385 -3.366498,-0.6074219 -5.548828,-0.6074219 C 85.098818,6.7777969 79.481653,4.4252094 73.783203,2.6933594 68.684123,0.90917941 60.127027,-0.08877062 52.966797,0.00585938 Z m 2.269531,1.80273442 c 7.46148,-0.0248 15.866352,1.4603937 24.669922,5.0898437 -2.81173,0.72109 2.866559,4.1947895 4.230469,4.5371095 2.70262,0.2977 2.480468,1.225157 2.480469,1.960937 0,2.01499 7.713116,16.510798 10.185546,19.142578 2.46723,2.62625 5.603666,3.016405 6.453126,0.802735 1.41,-3.67438 2.63969,-1.26227 3.82617,7.5 0.59417,4.38794 0.52205,4.543054 -2.96094,6.246094 -2.95583,1.44528 -4.366701,1.569556 -8.171871,0.716797 -2.52908,-0.56681 -4.825226,-0.803691 -5.103516,-0.525391 -0.73186,0.73186 4.480375,2.5625 7.296875,2.5625 1.31777,0 3.375692,1.0125 4.572262,2.25 l 2.17578,2.25 -0.5957,-2.447266 c -0.58235,-2.39691 0.70343,-5.052734 2.44531,-5.052734 1.72875,0 0.92899,7.643074 -0.98046,9.371094 -1.74675,1.5808 -2.34832,1.52387 -10.076176,-0.96875 -5.58877,-1.80265 -8.544251,-2.32489 -9.238282,-1.63086 -0.69404,0.69404 0.288353,1.240928 3.070313,1.710938 2.24986,0.38011 4.34591,1.103329 4.65625,1.605469 0.79543,1.28703 -9.586084,1.14808 -18.771484,-0.25 -9.17077,-1.395851 -14.857733,-0.180757 -17.414063,3.720703 -1.39854,2.13444 -1.460572,3.298977 -0.451172,8.429687 0.64411,3.27395 2.458653,9.076211 4.033203,12.894531 l 2.863282,6.94336 -2.220703,2.085937 c -6.622431,6.22145 -25.7395,-1.972685 -28.38086,-12.166015 -0.4212,-1.62546 -0.941004,-2.666544 -1.589844,-3.126953 0.96732,-0.79023 2.526777,-3.767571 3.035157,-6.900391 0.93001,-5.731 -0.398637,-10.105819 -5.191407,-17.105469 -2.4572,-3.58864 -4.466797,-7.122646 -4.466796,-7.853516 0,-0.73087 0.859326,-3.788981 1.910156,-6.794921 2.09965,-6.00609 3.813765,-15.906778 2.546875,-14.710938 -0.43933,0.4147 -1.735096,4.482113 -2.878907,9.039063 -1.15894,4.61736 -3.608013,10.809778 -5.533203,13.986328 -3.79272,6.25795 -12.2583209,15.164637 -13.8632809,14.585937 -0.55824,-0.20128 1.2296993,-3.965234 3.9746099,-8.365234 C 22.226638,34.585617 27.991906,20.203479 25.472656,17.167969 26.969316,9.2283089 38.821078,1.8630937 55.236328,1.8085938 Z m 6.382813,4.71875 c -1.10974,0.0353 -2.7581,0.3390512 -4.5,0.8632812 -4.29663,1.27125 -13.466797,3.447266 -13.466797,3.447266 -6.1751,1.1688 -7.58393,2.131348 -6.65625,4.548828 0.46415,1.20951 1.479932,1.556214 3.632812,1.240234 3.35371,-0.49222 3.588408,-0.09159 1.611328,2.742188 -0.75689,1.08488 -1.919737,4.447656 -2.585937,7.472656 -1.53203,6.95638 -0.329312,10.535179 4.205078,12.505859 4.41624,1.91937 16.064165,1.902596 19.796875,-0.02734 3.70965,-1.918329 6.960938,-8.187498 6.960938,-13.423828 0,-5.6013 -3.965711,-9.972377 -9.75,-10.748046 -5.079271,-0.68113 -5.421933,-1.681306 -1.007813,-2.947266 3.21466,-0.92197 4.798838,-3.7187601 3.080078,-5.4375001 -0.18241,-0.18242 -0.654462,-0.2574882 -1.320312,-0.2363281 z m 28.390625,6.8457032 c 0.52969,-0.006 1.344798,0.343179 2.449218,1.042969 7.06441,4.47617 10.588596,9.793017 9.984376,15.060546 -0.47509,4.141701 -3.326843,4.231764 -5.794922,0.183594 -2.616871,-4.29219 -2.556606,-4.818359 0.552734,-4.818359 1.63581,0 2.420605,-0.45848 2.140625,-1.25 -0.25728,-0.72736 -1.773243,-1.141434 -3.626953,-0.990235 -2.87003,0.23409 -3.373849,-0.157188 -5.074219,-3.955078 -1.57694,-3.52221 -1.796189,-5.259787 -0.630859,-5.273437 z m -38.669922,2.623047 c 1.02328,0.0253 2.318979,0.151914 4.074218,0.339844 8.350781,0.8943 10.749414,2.030339 12.621094,5.974609 1.9551,4.12006 0.552353,9.715215 -3.435547,13.703125 -2.594,2.59399 -3.43748,2.82598 -10.15625,2.8125 -12.1037,-0.0243 -14.94516,-2.567313 -13.0625,-11.689453 0.8969,-4.34582 1.985397,-6.507585 4.347657,-8.646485 1.87997,-1.70221 2.755555,-2.379655 4.671875,-2.484375 0.28745,-0.0157 0.598353,-0.01677 0.939453,-0.0098 z M 23.191406,23.5 c 0.085,-0.004 0.145542,0.03869 0.175782,0.126953 0.611219,1.7844 -5.705792,14.782214 -12.982422,26.714844 -3.3539505,5.5 -6.4744141,10.426719 -6.9335941,10.949219 -3.99025006,4.54051 8.5281991,-22.085869 15.2558591,-32.449219 2.03071,-3.12812 3.889225,-5.316867 4.484375,-5.341797 z m 39.72461,0.966797 c -3.86127,-0.10256 -9.646852,0.90878 -10.050782,2.125 -0.30581,0.92077 1.435175,1.25 6.609375,1.25 7.14803,0 9.650545,-1.122528 6.390625,-2.867188 -0.58923,-0.31534 -1.662128,-0.473622 -2.949218,-0.507812 z m -32.398438,53.375 c 0.40096,0 1.452498,1.516521 2.335938,3.369141 1.87276,3.92722 8.841683,9.929604 14.058593,12.109374 4.79416,2.00312 12.132706,1.942447 15.291016,-0.126953 1.44346,-0.9458 2.850511,-1.26554 3.300781,-0.75 1.67877,1.92212 6.405193,19.176861 6.882813,25.126951 0.2769,3.44956 0.329987,6.2598 0.117187,6.2461 -0.2128,-0.0138 -2.281446,-1.81376 -4.597656,-4 -3.50005,-3.30368 -4.905126,-3.97461 -8.316406,-3.97461 -2.25745,0 -5.023595,0.49084 -6.146485,1.09179 -1.47648,0.79019 -2.342622,0.79019 -3.132812,0 -1.41819,-1.41819 -7.216556,-1.40315 -10.009766,0.0254 -1.20134,0.61437 -2.940349,2.06947 -3.865234,3.23438 -1.068999,1.34643 -2.109375,2.14258 -2.109375,2.14258 0,0 -0.848628,-3.05934 -1.273438,-6.26172 -0.68078,-5.132 -0.643776,-5.23242 1.876954,-5.23242 1.4134,0 2.769651,-0.3375 3.013671,-0.75 1.0652,-1.80068 1.780592,-9.25 0.888672,-9.25 -0.52805,0 -1.247819,1.8 -1.599609,4 -0.55066,3.44366 -0.990639,4 -3.167969,4 -2.67396,0 -15.411087,-3.76818 -16.716797,-4.94532 -1.40682,-1.26835 11.122062,-26.054683 13.169922,-26.054683 z m 36.460938,10.363281 c 1.25016,-0.046 9.638671,10.860548 9.638672,12.634762 0,0.97267 -1.0125,2.09474 -2.25,2.49219 -1.126301,0.36173 -2.827613,1.05434 -2.882813,1.29688 -2.19106,-6.728932 -4.888216,-16.100069 -4.603516,-16.384769 0.025,-0.0249 0.05726,-0.03756 0.09766,-0.03906 z m 9.394531,15.359372 c 2.09012,3.58321 3.061274,6.19751 4.083984,9.4961 2.15565,6.97922 3.795605,23.11501 2.765625,27.21875 -1.25026,4.98146 -8.717197,2.53772 -15.435547,-5.05078 -2.87977,-3.25276 -3.179267,-4.0703 -2.242187,-6.12696 0.73529,-1.61375 0.758952,-2.97586 0.07617,-4.25195 -2.5444,-4.75424 0.48084,-5.54846 3.83789,-1.00781 3.98549,5.39067 5.328737,4.07482 4.847657,-4.75 -0.23237,-4.2625 -0.686466,-8.425 -1.009766,-9.25 -0.47797,-1.2197 -0.681297,-2.09817 -1.367187,-4.20313 1.804249,-0.86586 3.006139,-0.97874 4.443359,-2.07422 z m -53.726563,4.34766 c 0.51776,0.14858 0.827218,0.22002 1.429688,0.37695 3.21424,0.8372 6.051257,1.72899 6.304687,1.98242 0.25343,0.25342 -0.0407,3.33512 -0.652343,6.84766 -1.36447,7.83533 -1.44751,16.72266 -0.15625,16.72266 0.52574,0 2.783065,-3.12851 5.015625,-6.95118 2.23256,-3.82267 4.506814,-7.2251 5.052734,-7.5625 1.4947,-0.92377 4.260051,2.33138 3.550781,4.17969 -0.3409,0.88837 0.0816,2.68683 0.939453,3.9961 1.49458,2.28102 1.381388,2.59712 -2.726562,7.56445 -11.1666,13.50264 -15.949863,16.74701 -19.695313,13.35742 -1.66802,-1.50953 -1.784264,-3.0675 -1.333984,-17.86914 0.2713,-8.91817 1.384766,-17.33789 1.384766,-17.33789 z m 8.63086,12.22851 c 0.662355,1.4169 1.313691,3.322 1.339844,4.75977 0.06114,2.0728 -1.430722,3.55175 -2.242188,4.72852 -0.289021,-0.62558 0.05273,-5.34571 0.05273,-5.34571 0,0 0.37343,-4.13209 0.84961,-4.14258 z m 20.878906,2.74805 c 0.3439,0.0159 0.961546,0.20853 1.878906,0.56055 0.86999,0.33384 1.582031,1.00884 1.582032,1.5 0,1.38323 -1.620351,1.05496 -3,-0.60742 -0.844561,-1.01763 -1.034098,-1.4796 -0.460938,-1.45313 z m 1.15625,6.48242 c 1.22758,-0.0378 2.289796,0.31324 3.072266,1.09571 0.75602,0.75602 2.370507,1.375 3.585937,1.375 1.37698,0 4.31191,2.16717 7.787109,5.75 l 5.576172,5.75 1.203125,19.00781 c 0.66187,10.45381 0.92922,19.72149 0.59375,20.5957 -0.50116,1.30602 -3.14319,1.7017 -14.8125,2.21875 -7.81107,0.34609 -17.624343,0.9266 -21.808593,1.28906 -4.18425,0.36249 -7.849835,0.26003 -8.146485,-0.22656 -0.29666,-0.48659 0.07159,-6.28476 0.820313,-12.88476 0.74877,-6.6 1.669652,-15.15 2.044922,-19 0.72687,-7.45732 1.870072,-9.51765 10.820312,-19.5 3.06528,-3.41876 6.563002,-5.38752 9.263672,-5.47071 z m 21.304688,57.15821 v 9.53125 c 0,5.2421 -0.28125,10.9375 -0.625,12.65625 l -0.625,3.125 h -9.214844 c -8.90376,0 -9.25362,-0.0857 -10.375,-2.54688 -0.63829,-1.40088 -1.160156,-4.6401 -1.160156,-7.19922 0,-7.00101 -1.838536,-3.9386 -2.197266,3.66016 l -0.302734,6.41406 -7,0.3418 c -3.850001,0.18751 -8.462501,0.53392 -10.25,0.77148 l -3.25,0.4336 v -12.29883 -12.29688 l 5.75,-0.64453 c 3.1625,-0.35424 13.287499,-0.93636 22.5,-1.29492 z m -6,27.19726 v 13.00782 c 0,16.36573 -1.254057,22.87296 -4.660157,24.16796 -2.98422,1.1346 -4.116702,1.18232 -4.544922,0.18946 -0.17791,-0.4125 -0.0915,-8.85 0.191407,-18.75 l 0.513672,-18 4.25,-0.30664 z m -28.009766,0.51367 c 1.1106,-0.0173 1.918927,0.0459 2.154297,0.19141 0.47074,0.29094 0.855469,8.82621 0.855469,18.96875 -0.45173,1.98941 0.909587,20.09282 -1.628484,20.75291 -2.062055,0.50573 -4.292837,0.30636 -6.172298,-0.11228 -3.855083,-0.85869 -3.545863,-0.97716 -4.001953,-20.01954 l -0.451172,-18.87109 5.271485,-0.625 c 1.44967,-0.1717 2.862066,-0.26787 3.972656,-0.28516 z"
     id="path4551"
     inkscape:connector-curvature="0"
     sodipodi:nodetypes="csccccccccccscscsccssccsccscccccccccccscsscscccscccccccscsccscccccccsccsccscccsccsssscscccsccsccccscccccccccccccsscccccccsccscccscccsccccccsccccccscccssccscscccsscssscscsccccccccscsscccccccsccccscsccccccccccccccsccccsccccsccsscscccccccccccccsscccccccssscccccscccc" />
</svg>
