<?xml version="1.0" encoding="UTF-8" standalone="no"?>
<svg
   xmlns:dc="http://purl.org/dc/elements/1.1/"
   xmlns:cc="http://creativecommons.org/ns#"
   xmlns:rdf="http://www.w3.org/1999/02/22-rdf-syntax-ns#"
   xmlns:svg="http://www.w3.org/2000/svg"
   xmlns="http://www.w3.org/2000/svg"
   xmlns:sodipodi="http://sodipodi.sourceforge.net/DTD/sodipodi-0.dtd"
   xmlns:inkscape="http://www.inkscape.org/namespaces/inkscape"
   version="1.0"
   width="162.000000pt"
   height="163.000000pt"
   viewBox="0 0 162.000000 163.000000"
   preserveAspectRatio="xMidYMid meet"
   id="svg8"
   sodipodi:docname="RemmySheared.svg"
   inkscape:version="0.92.1 r15371">
  <defs
     id="defs12" />
  <sodipodi:namedview
     pagecolor="#ffffff"
     bordercolor="#666666"
     borderopacity="1"
     objecttolerance="10"
     gridtolerance="10"
     guidetolerance="10"
     inkscape:pageopacity="0"
     inkscape:pageshadow="2"
     inkscape:window-width="1920"
     inkscape:window-height="1056"
     id="namedview10"
     showgrid="false"
     inkscape:zoom="2"
     inkscape:cx="127.21672"
     inkscape:cy="94.154237"
     inkscape:window-x="0"
     inkscape:window-y="24"
     inkscape:window-maximized="1"
     inkscape:current-layer="svg8"
     inkscape:pagecheckerboard="true"
     inkscape:snap-page="true" />
  <metadata
     id="metadata2">
Created by potrace 1.13, written by Peter Selinger 2001-2015
<rdf:RDF>
  <cc:Work
     rdf:about="">
    <dc:format>image/svg+xml</dc:format>
    <dc:type
       rdf:resource="http://purl.org/dc/dcmitype/StillImage" />
    <dc:title></dc:title>
  </cc:Work>
</rdf:RDF>
</metadata>
  <path
     inkscape:connector-curvature="0"
     style="opacity:1;vector-effect:none;fill:#ffffff;fill-opacity:1;stroke:none;stroke-width:801.21966553px;stroke-linecap:butt;stroke-linejoin:round;stroke-miterlimit:4;stroke-dasharray:none;stroke-dashoffset:0;stroke-opacity:1"
     d="m 82.439732,36.892213 c -18.973797,0.0407 -27.79323,8.005991 -32.984684,18.803643 -12.571015,16.282082 -20.104784,34.803496 -27.797391,53.253754 6.675518,-0.81569 16.053574,-9.190691 25.75814,-20.486248 9.053917,9.975487 17.045829,20.292368 9.960788,35.465168 -8.750289,8.53917 -15.071987,19.86945 -17.976059,33.14127 1.72195,2.27916 6.70762,4.24055 4.63101,5.93035 0,0 45.751466,-0.11815 68.486574,-1.5e-4 -0.63516,-11.8243 -11.94806,-23.43436 -18.094339,-30.27434 -4.779378,-9.01021 -8.291489,-18.01904 -5.662813,-27.02924 5.236526,-8.572261 52.587222,5.90807 56.340092,-6.296081 4.27938,-26.830324 -7.62594,-37.220904 -15.48645,-48.866616 -1.04452,-1.547511 0.30402,-2.392762 -0.64469,-4.055655 -20.10544,-6.782336 -35.145899,-9.610276 -46.530178,-9.585855 z"
     id="rect4635"
     inkscape:export-xdpi="185.62007"
     inkscape:export-ydpi="185.62007"
     sodipodi:nodetypes="sccccccccccccs" />
  <path
     style="fill:#a5a5a5;stroke-width:1.56068373"
     d="m 108.84961,47.476562 c -5.07948,0.06711 -9.70669,0.487545 -13.173829,1.304688 -17.777902,4.189921 -30.360852,13.887756 -34.36914,26.490234 -0.962896,3.027415 -5.091656,10.771163 -9.173829,17.208985 -4.082186,6.43782 -10.375577,18.026571 -13.986328,25.751951 -3.610828,7.72539 -8.002168,17.08275 -9.757812,20.79492 -4.56998,9.66292 -2.212932,11.24245 8.761719,5.87305 8.3802,-4.10004 19.884337,-15.19143 23.208984,-22.37695 0.893617,-1.93134 2.038917,-3.48574 2.544922,-3.45313 1.208563,0.0778 9.497251,11.73128 13.205078,18.56446 2.30772,4.25292 2.752747,7.48161 2.119141,15.375 -0.17026,10.72336 -6.372646,12.64209 -11.023438,19.56054 -6.474058,9.75362 -16.646484,31.38755 -16.646484,35.4043 0,3.27685 2.001101,5.12091 8.572265,7.1875 0,0 -0.161469,0.75866 -0.421875,2.17187 h 2.476563 c 0.460208,-3e-5 0.28312,-1.63376 0.744141,-1.6289 0,0 5.612358,1.60257 8.115234,1.6289 3.07991,-0.0749 5.581079,-0.0506 8.023437,-6.5e-4 -5.923307,-0.79232 -22.930296,-6.02278 -24.808593,-7.71614 -2.195598,-1.97948 17.358623,-40.66211 20.554687,-40.66211 0.625772,0 2.265761,2.36645 3.644531,5.25781 2.922786,6.12913 13.799461,15.4965 21.941407,18.89844 7.482169,3.12624 18.936109,3.03237 23.865229,-0.19727 2.2528,-1.47609 4.44767,-1.97646 5.1504,-1.17187 6.0302,13.02364 8.18359,25.59114 8.18359,25.59114 h 2.89844 c 0.42721,-0.62085 -1.62162,-5.18103 -0.875,-5.17317 1.26245,0.0133 5.98508,-1.47936 7.92383,-3.74219 0,0 3.10184,8.42825 3.32812,8.91536 0,0 1.37601,-0.0101 2.33398,0 -1.74498,-4.17632 -4.44921,-10.57747 -4.44921,-10.57747 0,0 1.05134,-0.972 1.12304,-2.00391 0,-2.87649 -17.20632,-25.41862 -21.06054,-27.59179 -2.89476,-1.63219 -8.24351,-15.74406 -9.46875,-24.98047 -0.79246,-5.97372 -0.45376,-8.2025 1.54296,-10.19922 3.94725,-3.94724 12.77549,-4.88271 27.54688,-2.91602 7.42392,0.98843 19.94642,1.79688 27.82812,1.79688 13.13404,0 14.64921,-0.31911 18.16016,-3.83008 4.64056,-4.64056 5.08765,-14.29931 1.52344,-32.92773 -2.93032,-15.315414 -7.13244,-23.965717 -15.17578,-31.232426 -5.4559,-4.929014 -6.00712,-5.969963 -3.81055,-7.199219 3.26047,-1.824648 3.3118,-5.344696 0.0977,-6.578125 -1.35779,-0.521033 -5.25425,-0.947266 -8.66016,-0.947266 -8.40821,-0.09988 -17.17491,-3.771738 -26.06836,-6.474609 -7.95812,-2.78454 -21.31343,-4.342999 -32.48828,-4.195313 z m 3.54297,2.814454 c 11.64501,-0.03871 24.76235,2.278936 38.50195,7.943359 -4.38823,1.125395 4.47294,6.545825 6.60156,7.080078 4.21795,0.464627 3.8711,1.912218 3.8711,3.060547 0,3.144757 12.0378,25.769588 15.89648,29.876953 3.85056,4.098747 8.74653,4.706787 10.07227,1.251953 2.20056,-5.734534 4.11898,-1.970044 5.9707,11.705074 0.92732,6.8482 0.81475,7.09014 -4.62109,9.74805 -4.61311,2.25563 -6.81524,2.45003 -12.75391,1.11914 -3.94709,-0.88461 -7.53054,-1.25466 -7.96484,-0.82031 -1.14222,1.14219 6.99299,4 11.38867,4 2.05663,0 5.26731,1.58038 7.13476,3.51172 l 3.39649,3.50976 -0.92969,-3.81836 c -0.90888,-3.74081 1.09789,-7.88671 3.81641,-7.88671 2.69802,0 1.45075,11.93004 -1.5293,14.62695 -2.72612,2.46712 -3.66583,2.3765 -15.72656,-1.51367 -8.72228,-2.81338 -13.33482,-3.62808 -14.41797,-2.54493 -1.08319,1.08319 0.44927,1.93639 4.79101,2.66993 3.51133,0.59322 6.78325,1.72216 7.26758,2.50586 1.24144,2.00864 -14.96138,1.79328 -29.29687,-0.38868 -14.31269,-2.17848 -23.18811,-0.2823 -27.17774,5.80665 -2.18267,3.33118 -2.27848,5.14883 -0.70312,13.15624 1.00525,5.1096 3.83559,14.16387 6.29297,20.12305 l 4.46875,10.83594 -3.46485,3.25586 c -10.33552,9.70973 -40.170637,-3.07776 -44.292965,-18.98633 -0.657359,-2.53684 -1.469789,-4.16233 -2.482422,-4.88086 1.50968,-1.23332 3.94486,-5.88017 4.738281,-10.76953 1.451452,-8.94427 -0.623517,-15.77107 -8.103515,-26.69531 -3.834912,-5.60073 -6.970703,-11.11715 -6.970703,-12.25782 0,-1.14065 1.340454,-5.91218 2.980468,-10.60351 3.276891,-9.373612 5.951824,-24.825313 3.97461,-22.958985 -0.685656,0.647227 -2.707064,6.993517 -4.492188,14.105469 -1.808738,7.206236 -5.630155,16.870516 -8.634765,21.828126 -5.919236,9.76667 -19.131884,23.6688 -21.636719,22.76562 -0.871236,-0.31413 1.919189,-6.18962 6.203125,-13.05664 C 60.874684,101.44462 69.871206,78.999184 65.939453,74.261719 68.275266,61.870411 86.773566,50.376073 112.39258,50.291016 Z m 9.96094,7.363281 c -1.73196,0.05508 -4.30489,0.529499 -7.02344,1.347656 -6.70568,1.984019 -21.01758,5.380861 -21.01758,5.380859 -9.637377,1.824129 -11.834533,3.326689 -10.386719,7.09961 0.724391,1.887657 2.308004,2.428701 5.667969,1.935547 5.234081,-0.76819 5.601221,-0.143326 2.515625,4.279297 -1.181267,1.693154 -2.995428,6.941041 -4.035156,11.662109 -2.391015,10.856715 -0.51425,16.441975 6.5625,19.517575 6.892351,2.99552 25.070901,2.96914 30.896481,-0.043 5.7896,-2.99391 10.86328,-12.776956 10.86328,-20.949214 0,-8.741848 -6.18934,-15.564822 -15.21679,-16.775391 -7.92714,-1.063035 -8.46131,-2.623847 -1.57227,-4.599609 5.01707,-1.43891 7.48908,-5.803918 4.80664,-8.486328 -0.28468,-0.2847 -1.02136,-0.402165 -2.06054,-0.369141 z m 44.30859,10.685547 c 0.82669,-0.0104 2.09859,0.534786 3.82227,1.626953 11.02529,6.985869 16.52501,15.282953 15.58203,23.503906 -0.74147,6.463873 -5.19108,6.605027 -9.04297,0.287109 -4.08411,-6.698745 -3.9894,-7.519531 0.86328,-7.519531 2.55299,0 3.77682,-0.71586 3.33984,-1.951172 -0.40153,-1.13518 -2.7671,-1.780898 -5.66015,-1.544921 -4.4792,0.365323 -5.26621,-0.246518 -7.91993,-6.173829 -2.4611,-5.49706 -2.80308,-8.207227 -0.98437,-8.228515 z m -60.35156,4.091797 v 0.002 c 1.59701,0.03953 3.62,0.236013 6.35937,0.529297 13.03293,1.39573 16.77617,3.168466 19.69727,9.324218 3.0513,6.430122 0.86253,15.162853 -5.36133,21.386721 -4.04841,4.04839 -5.36569,4.40971 -15.85156,4.38867 -18.890054,-0.0379 -23.324959,-4.0054 -20.386722,-18.242188 1.399777,-6.782439 3.098416,-10.155984 6.785156,-13.49414 2.934036,-2.656617 4.300246,-3.715472 7.291016,-3.878906 0.44862,-0.02456 0.93445,-0.0254 1.4668,-0.01563 z m -43.929691,11.71289 c 0.132654,-0.0063 0.226242,0.05951 0.273438,0.197266 0.95392,2.784884 -8.905202,23.070303 -20.261719,41.693363 -5.234456,8.58376 -10.103678,16.27242 -10.820312,17.08789 -6.227519,7.08629 13.308844,-34.46867 23.808593,-50.642581 3.169295,-4.882006 6.071158,-8.297024 7,-8.335938 z m 61.996091,1.507813 c -6.02622,-0.160022 -15.05514,1.418261 -15.68554,3.316406 -0.47728,1.437036 2.23916,1.951172 10.31445,1.951172 11.15581,0 15.06232,-1.751757 9.97461,-4.47461 -0.9196,-0.492155 -2.59478,-0.739614 -4.60352,-0.792968 z m 6.3418,99.476566 c 1.95111,-0.0717 15.04297,16.94975 15.04297,19.71875 0,1.51802 -1.58039,3.26837 -3.51172,3.88867 -1.7578,0.56456 -4.41385,1.64492 -4.5,2.02344 -3.41955,-10.50172 -7.62792,-25.126 -7.18359,-25.57032 0.039,-0.0389 0.0893,-0.0583 0.15234,-0.0605 z m -43.927734,19.7207 c -0.824119,0 -1.949015,2.80868 -2.498047,6.24219 -0.693761,4.33855 -1.299492,5.7205 -3.285157,6.09961 v 0.14192 c 1.92955,0.007 3.747315,-0.0567 5.070313,0 0.231697,-2.02021 2.532259,-11.99118 0.712891,-12.48372 z"
     transform="scale(0.75000001)"
     id="path4551"
     inkscape:connector-curvature="0"
     sodipodi:nodetypes="cscccccccsccscccccccsccccccccccccsccsscscccccccccscccsccscccsccsccsssccccccsscccccscccccccccccsccccccccscccccccscsssccccscscccscccscccccccccc" />
</svg>
