<?xml version="1.0" encoding="UTF-8" standalone="no"?>
<svg
   xmlns:dc="http://purl.org/dc/elements/1.1/"
   xmlns:cc="http://creativecommons.org/ns#"
   xmlns:rdf="http://www.w3.org/1999/02/22-rdf-syntax-ns#"
   xmlns:svg="http://www.w3.org/2000/svg"
   xmlns="http://www.w3.org/2000/svg"
   xmlns:sodipodi="http://sodipodi.sourceforge.net/DTD/sodipodi-0.dtd"
   xmlns:inkscape="http://www.inkscape.org/namespaces/inkscape"
   version="1.0"
   width="440.000000pt"
   height="440.000000pt"
   viewBox="0 0 440.000000 440.000000"
   preserveAspectRatio="xMidYMid meet"
   id="svg8"
   sodipodi:docname="rosieNudeStretch-bg.svg"
   inkscape:version="0.92.1 r15371">
  <defs
     id="defs12" />
  <sodipodi:namedview
     pagecolor="#ffffff"
     bordercolor="#666666"
     borderopacity="1"
     objecttolerance="10"
     gridtolerance="10"
     guidetolerance="10"
     inkscape:pageopacity="0"
     inkscape:pageshadow="2"
     inkscape:window-width="1920"
     inkscape:window-height="1056"
     id="namedview10"
     showgrid="false"
     inkscape:pagecheckerboard="true"
     inkscape:zoom="1.1377991"
     inkscape:cx="565.85917"
     inkscape:cy="340.72506"
     inkscape:window-x="0"
     inkscape:window-y="24"
     inkscape:window-maximized="1"
     inkscape:current-layer="svg8" />
  <metadata
     id="metadata2">
Created by potrace 1.13, written by Peter Selinger 2001-2015
<rdf:RDF>
  <cc:Work
     rdf:about="">
    <dc:format>image/svg+xml</dc:format>
    <dc:type
       rdf:resource="http://purl.org/dc/dcmitype/StillImage" />
    <dc:title></dc:title>
  </cc:Work>
</rdf:RDF>
</metadata>
  <g
     transform="translate(0.000000,440.000000) scale(0.100000,-0.100000)"
     fill="#ffffff"
     stroke="none"
     id="g6">
    <path
       d="m 3105,4371 c -29,-12 -51,-40 -71,-91 -18,-44 -58,-89 -81,-90 -12,0 -21,-24 -49,-130 -14,-51 -17,-100 -15,-231 l 8.4543,-150.6616 L 2846,3651 c -25,-6 -56,-11 -69,-11 -13,0 -36,-13 -52,-30 -21,-22 -38,-30 -62,-30 -23,0 -33,-5 -33,-15 0,-8 -9,-15 -20,-15 -27,0 -27,51 -1,94 29,46 123.8213,110.6938 157.5281,120.1198 34.2125,9.5674 52.4424,11.5868 46,20 -3,5 -17.5281,-0.1198 -35.5281,-4.1198 -17,-5 -70,-19 -117,-31 -154,-38 -255,-113 -300,-222 -17,-40 -29,-57 -42,-57 -10,0 -30.8875,25.9511 -33.8875,33.9511 -4,9 6.599,-20.7824 -7.401,-23.7824 -16,-4 -36.7115,17.8313 -55.7115,46.8313 -29,45 -33.0562,31 -17.0562,-32 13.4156,-24.824 11.8239,-45.2323 11.8239,-53.2323 0,-24 -39.7677,-24.7677 -65.7677,3.2323 -30,32 -29.5844,30.3521 -24.5844,-5.6479 l -0.1198,-23.2323 L 2038,3415 c -310,10 -670,27 -828,40 -202,16 -821.54569,46.3384 -829.54569,38.3384 -9,-8 40.01757,-129.5144 91.01757,-214.5144 57,-97 127.35439,-188.6587 198.35439,-270.6587 65,-74 373.34743,-353.5128 482.34743,-436.5128 l 87.2806,-64.3141 L 1215,2476 c -43,-31 -44.5436,-74.1708 -45.678,-191.1653 l -0.8677,-89.4963 L 1120,2135 c -45,-52 -117.5457,-159.6616 -111.5457,-164.6616 1,-2 23.5457,2.6616 55.5457,15.6616 33,13 61,22 63,20 2,-2 -11,-17 -29,-35 l -32,-31 33,6 c 29,6 37.4543,6.3384 33.4543,-10.6616 -3,-14 4.0176,-20.5707 30.0176,-34.5707 20,-11 62.8239,-39.6479 93.8239,-61.6479 46,-33 60.648,-52.2958 74.648,-93.2958 9,-27 16.5105,-48.4856 20.5105,-51.4856 11,-8 63.1374,-167.8665 119.1374,-389.8665 49,-194 51.3521,-212.2323 33.3521,-218.2323 -8,-3 -3.7042,-19.5917 7.2958,-39.5917 8,-17 15.5281,-54.35206 19.5281,-87.35206 5,-35 10.0563,-65.17604 21.0563,-76.17604 16,-16 28.7114,-45.06355 28.7114,-177.06355 0,-155 -2.0635,-178.64062 29.9365,-178.64062 20,0 59.1198,-78.11979 100.1198,-206.11979 14,-42 32,-94.29584 41,-111.29584 6.5281,-25.41563 6.7428,-48.77409 7.8626,-70.6616 -3,-11 5.6093,-34.3384 11.6093,-71.3384 L 1789.4792,0 H 2340 2906 l 18,107 c 28,177 112,407 152,417 12,3 25,14 29,23 3,10 6,85 6,166 0,130 2,150 18,166 11,11 21,42 26,77 4,33 14,72 22,89 11,20 12,30 4,33 -6,2 -11,11 -11,20 0,28 100,444 116,480 8,18 14,48 14,67 0,19 5,56 10,82 10,44 15,51 73,87 34,21 88,56 120,78 54,37 63,40 115,36 55,-3 57,-2 54,21 -2,13 -10,31 -18,39 -40,39 -112,224 -133,342 -14,77 -2,116 49,165 111,104 608,844 711,1058 13,26 29,47 36,47 7,0 13,10 13,23 0,12 11,56 24,97 13,41 22,78 19,83 -2,4 -14,5 -26,2 -90,-21 -652,-159 -692,-170 -301,-84 -419,-115 -429,-112 -6,2 -17,-2 -24,-10 -23,-23 -45,-16 -39,12 2,14 -4,81 -14,148 -10,67 -18,140 -18,162 -0.522,37.5865 0.1682,65.86 20.9408,71.0183 19.0189,4.7229 55.0058,-11.264 119.5311,-29.4266 67,-19 127.5917,-44.4157 127.5917,-48.4157 0,-4 12.9364,7.824 39.9364,24.824 26,18 56,37 65,42 47,28 64,215 29,311 -15,40 -24,51 -50,58 -22,7 -33,17 -37,37 -9,45 -29.176,62.2958 -83.176,55.2958 -31,-3 -64.824,-3.2958 -95.824,7.7042 -51,17 -129,20 -162,7 z"
       id="path4"
       inkscape:connector-curvature="0"
       sodipodi:nodetypes="cccccccscssscsccccsccccscccccccccccsccccsccccccccccccsssccccccccscsscccssscccccccccsssccccccscscsccccsccc" />
  </g>
  <g
     style="fill:#000000;stroke:none"
     transform="matrix(0.1,0,0,-0.1,0.84543125,439.46616)"
     id="g156">
    <path
       inkscape:connector-curvature="0"
       d="m 3092,4370 c -21,-13 -42,-40 -59,-77 -28,-59 -67,-100 -90,-95 -7,2 -13,1 -13,-1 0,-2 -12,-51 -26,-108 -26,-104 -32,-210 -19,-365 l 4,-51 -38,-12 c -21,-6 -50,-11 -65,-11 -16,0 -47,-15 -73,-35 -25,-19 -54,-35 -63,-35 -9,0 -25,-8 -34,-19 -16,-17 -16,-19 0,-25 12,-5 14,-9 5,-20 -8,-9 -8,-21 -2,-37 9,-23 10,-23 17,9 3,18 10,34 13,37 8,4 45,-125 38,-131 -10,-10 -57,40 -76,79 -27,55 -27,120 -1,161 32,52 128,122 175,128 16,2 31,9 33,17 6,18 -59,9 -178,-25 -148,-43 -249,-122 -286,-222 -23,-62 -30,-69 -52,-49 -24,22 -32,21 -32,0 0,-11 -13,1 -31,30 -47,71 -71,58 -44,-23 13,-39 14,-41 12,-12 -2,17 -1,32 2,32 3,0 28,-32 55,-70 27,-39 53,-70 58,-70 13,0 9,34 -8,58 -8,12 -11,22 -5,22 5,0 16,-12 23,-27 7,-14 19,-28 26,-31 14,-4 17,34 2,43 -31,19 18,132 85,194 49,45 116,82 193,104 60,18 66,12 18,-21 -91,-62 -112,-161 -56,-259 27,-47 70,-83 99,-83 9,0 7,45 -4,81 -10,30 10,22 44,-18 60,-73 81,-89 81,-63 0,6 7,10 16,10 25,0 115,30 184,61 36,16 99,38 140,49 41,10 154,42 250,70 188,55 492,131 498,125 2,-2 -10,-11 -27,-20 -42,-21 -39,-33 12,-37 34,-3 38,-5 22,-12 -11,-5 -85,-38 -165,-74 -80,-35 -210,-93 -289,-128 -80,-36 -175,-74 -213,-85 -37,-12 -71,-25 -74,-30 -6,-11 46,-11 106,0 35,7 41,6 26,-3 -51,-31 -67,-49 -55,-60 8,-8 13,-8 16,2 6,16 80,53 151,77 70,23 57,42 -18,26 -85,-18 -80,-13 35,38 61,27 182,81 270,121 88,39 189,83 225,97 36,14 69,30 75,34 5,5 16,9 25,9 9,0 24,14 33,30 10,17 14,30 8,30 -6,0 -15,-9 -21,-20 -16,-31 -46,-26 -44,7 1,26 6,28 90,50 152,38 264,61 264,54 0,-32 -98,-261 -111,-261 -5,0 7,43 26,96 38,105 40,113 25,98 -16,-16 -79,-204 -69,-204 18,0 7,-21 -85,-172 -252,-408 -548,-827 -584,-826 -10,0 -36,-3 -59,-7 -39,-7 -44,-5 -53,16 -9,22 -10,21 -5,-7 6,-29 3,-32 -26,-38 -43,-8 -107,-8 -112,2 -3,4 20,29 51,56 66,58 46,55 -32,-4 l -55,-41 -78,6 c -60,5 -112,0 -223,-18 -152,-26 -200,-40 -200,-57 0,-15 52,-12 86,4 66,33 304,44 439,22 17,-3 50,-8 75,-11 25,-2 59,-9 75,-13 27,-8 30,-13 27,-43 -3,-40 47,-209 62,-209 6,0 22,-26 36,-58 13,-31 39,-83 57,-115 18,-33 33,-61 33,-63 0,-2 -19,-1 -43,2 -37,5 -49,2 -87,-24 -24,-16 -49,-28 -56,-25 -6,2 -24,-9 -40,-24 -33,-33 -125,-98 -234,-165 -76,-47 -93,-56 -235,-135 -44,-24 -102,-61 -130,-82 -27,-20 -67,-50 -88,-65 -25,-18 -36,-33 -33,-44 3,-9 1,-35 -2,-57 -7,-37 -10,-40 -37,-37 -17,1 -39,-4 -50,-13 -19,-15 -18,-16 21,-10 37,6 42,4 47,-15 4,-16 11,-20 26,-15 26,8 44,-25 37,-68 l -6,-32 16,35 c 12,26 13,39 5,52 -6,10 -11,30 -11,44 0,19 -4,25 -15,20 -8,-3 -15,-1 -15,4 0,6 6,10 13,10 9,0 14,14 15,40 1,22 -3,40 -8,40 -6,0 -10,6 -10,14 0,7 58,46 130,87 71,41 130,79 130,84 0,11 125,85 144,85 7,0 45,23 85,50 l 73,50 -8,-42 c -4,-24 -8,-59 -8,-78 -1,-19 -9,-49 -18,-65 -9,-17 -21,-58 -27,-90 -6,-33 -33,-145 -59,-248 -33,-127 -44,-186 -35,-183 17,7 16,2 -3,-36 -11,-22 -13,-33 -5,-38 7,-4 9,-15 5,-26 -4,-10 -4,-16 1,-12 4,4 11,24 15,45 5,21 14,53 21,71 11,27 11,34 1,41 -10,6 -3,48 32,192 24,101 48,202 52,224 4,22 12,51 19,65 7,14 18,61 25,106 6,45 15,85 18,91 14,19 108,78 162,100 30,12 74,23 98,23 44,0 54,12 25,29 -13,7 -6,8 25,4 29,-4 42,-2 42,7 0,6 -20,49 -44,93 -47,85 -106,240 -106,276 0,28 -17,27 -23,-1 -4,-20 -4,-19 -6,5 0,15 4,27 10,27 7,0 8,14 4,40 l -7,40 84,1 c 59,1 74,4 53,9 -16,4 -50,8 -74,9 l -44,1 24,29 c 13,16 50,60 82,97 133,158 551,792 647,985 18,35 36,66 39,69 14,10 63,192 55,200 -5,5 -84,-10 -184,-35 -96,-25 -180,-45 -186,-45 -6,0 -9,13 -7,33 3,24 2,29 -6,17 -6,-8 -11,-23 -11,-33 0,-9 -10,-22 -22,-27 -48,-20 -248,-61 -268,-55 -13,4 -20,2 -18,-5 2,-8 -49,-26 -137,-50 -77,-21 -165,-46 -195,-55 -30,-8 -73,-20 -95,-25 -22,-4 -50,-12 -63,-15 -17,-6 -21,-4 -17,7 3,8 -4,79 -15,158 -19,131 -20,220 -2,220 4,0 54,-14 111,-30 113,-33 121,-34 121,-21 0,4 -24,13 -54,19 -30,6 -70,18 -90,26 l -36,15 19,48 c 11,26 33,85 48,131 27,83 28,84 58,78 16,-4 33,-10 37,-14 4,-4 -6,-44 -23,-87 -44,-112 -59,-164 -50,-169 4,-3 14,13 20,35 22,74 73,199 80,199 11,0 31,-47 31,-72 0,-11 -12,-56 -26,-100 -15,-43 -24,-82 -20,-85 8,-9 9,-7 32,67 12,36 26,64 32,63 11,-3 26,43 17,56 -3,5 1,24 9,42 20,50 28,89 17,89 -5,0 -14,-20 -20,-44 -6,-25 -15,-47 -20,-50 -14,-9 -44,69 -36,94 10,32 46,70 65,70 24,0 46,-29 59,-75 13,-47 14,-105 3,-105 -8,0 -33,-103 -31,-131 0,-8 7,2 14,21 16,41 20,17 5,-27 -6,-17 -22,-35 -36,-42 -41,-18 -94,-62 -94,-77 0,-9 17,-1 45,20 24,19 53,37 63,40 54,18 75,209 36,328 -12,38 -22,49 -49,59 -26,10 -35,20 -40,46 -7,39 -34,57 -67,44 -23,-10 -23,-10 3,-10 40,-1 54,-24 39,-62 -13,-30 -43,-49 -81,-49 -19,0 -19,1 1,41 12,23 19,43 16,46 -6,7 -45,-55 -52,-84 -5,-20 -57,-53 -84,-53 -16,0 -7,50 18,100 14,28 23,35 47,35 37,0 78,21 55,28 -8,2 -40,12 -71,21 -75,22 -137,20 -177,-4 z m 148,-15 c 6,-4 -4,-18 -21,-32 -17,-14 -44,-50 -61,-80 -16,-29 -36,-53 -44,-53 -19,0 -18,12 11,80 14,33 25,64 25,70 0,22 -19,-1 -30,-38 -11,-34 -39,-102 -45,-110 -6,-7 -45,19 -45,29 0,6 10,32 21,59 29,67 68,93 132,86 26,-3 52,-8 57,-11 z m -50,-146 c -12,-28 -21,-35 -32,-23 -6,5 4,29 26,64 16,23 20,-7 6,-41 z m 196,-14 c -7,-28 -13,-30 -51,-15 -32,12 -25,27 18,38 39,11 41,10 33,-23 z m -386,-5 c 0,-5 -5,-10 -11,-10 -5,0 -7,5 -4,10 3,6 8,10 11,10 2,0 4,-4 4,-10 z m 60,-38 c 0,-9 -20,-57 -43,-107 -24,-49 -59,-128 -78,-174 -31,-77 -35,-81 -40,-55 -4,16 -7,55 -8,86 -1,48 5,69 37,130 21,40 50,92 65,116 24,37 30,41 47,32 11,-6 20,-18 20,-28 z m 208,2 c 2,-1 -16,-56 -39,-123 -36,-102 -46,-120 -61,-116 -30,10 -58,-12 -58,-48 0,-18 -29,-117 -64,-222 -55,-167 -66,-192 -90,-203 -15,-8 -31,-11 -34,-7 -18,17 1,204 22,217 6,5 2,8 -10,8 -11,0 -23,2 -26,5 -10,10 21,135 51,208 16,40 52,122 79,182 49,108 51,110 86,113 46,4 46,-7 0,-118 -147,-351 -199,-506 -192,-567 2,-18 13,11 31,84 36,146 195,537 212,523 9,-8 14,-2 19,22 9,46 34,71 55,56 9,-7 17,-13 19,-14 z m -303,6 c 6,-10 -29,-85 -44,-95 -6,-3 -4,16 4,42 8,26 15,51 15,56 0,10 18,9 25,-3 z m 161,-510 c -2,-25 -11,-64 -19,-88 -8,-23 -11,-45 -6,-47 4,-3 14,16 22,42 l 14,47 6,-49 c 3,-28 4,-51 3,-53 -2,-1 -33,-11 -70,-21 -51,-14 -66,-15 -66,-5 0,10 69,218 97,294 9,24 24,-71 19,-120 z m 849,9 c -4,-5 -23,-9 -43,-8 l -37,1 35,12 c 36,14 55,12 45,-5 z m -1066,-27 c 11,-21 0,-85 -19,-107 -21,-26 -37,-17 -34,18 3,31 3,31 -9,-7 -13,-38 -39,-58 -63,-49 -28,10 -24,-21 7,-53 18,-19 27,-34 20,-34 -13,0 -81,71 -116,122 l -22,32 35,35 c 25,25 50,38 91,47 80,17 99,16 110,-4 z m -6,-169 c 6,-52 -12,-57 -58,-15 -17,15 -26,24 -20,20 5,-3 23,4 40,17 16,13 30,23 31,22 1,-1 4,-21 7,-44 z m 626,-993 c -41,-35 -45,-36 -52,-9 -5,17 2,24 36,39 53,24 61,8 16,-30 z m -65,-5 c 6,-16 -10,-20 -39,-9 -13,5 -14,8 -3,15 20,13 35,11 42,-6 z M 2735,1260 c -3,-5 -11,-10 -16,-10 -6,0 -7,5 -4,10 3,6 11,10 16,10 6,0 7,-4 4,-10 z"
       id="path16" />
    <path
       inkscape:connector-curvature="0"
       d="m 2850,3600 c 0,-5 5,-10 10,-10 6,0 10,5 10,10 0,6 -4,10 -10,10 -5,0 -10,-4 -10,-10 z"
       id="path18" />
    <path
       inkscape:connector-curvature="0"
       d="m 2732,3548 c -6,-29 -7,-57 -2,-62 5,-4 11,17 15,48 9,73 1,82 -13,14 z"
       id="path20" />
    <path
       inkscape:connector-curvature="0"
       d="m 4230,3718 c -6,-13 -19,-61 -31,-108 -11,-47 -27,-109 -34,-138 -7,-29 -23,-68 -34,-87 -11,-19 -16,-35 -11,-35 15,0 49,61 56,100 8,43 49,213 63,258 11,37 5,43 -9,10 z"
       id="path22" />
    <path
       inkscape:connector-curvature="0"
       d="m 4171,3694 c -5,-22 -18,-70 -27,-109 -9,-38 -25,-86 -34,-105 -24,-48 -33,-80 -23,-80 4,0 13,15 20,33 6,17 21,59 32,92 27,74 55,195 48,202 -3,3 -10,-12 -16,-33 z"
       id="path24" />
    <path
       inkscape:connector-curvature="0"
       d="m 4098,3672 c -13,-28 -30,-53 -39,-55 -19,-5 -74,-75 -66,-84 7,-7 58,13 102,39 27,16 28,18 8,18 -28,0 -28,-3 2,66 14,32 23,59 20,62 -3,3 -15,-18 -27,-46 z m -52,-100 c -17,-16 -18,-16 -5,5 7,12 15,20 18,17 3,-2 -3,-12 -13,-22 z"
       id="path26" />
    <path
       inkscape:connector-curvature="0"
       d="m 372,3488 c -10,-13 -2,-36 46,-130 65,-128 126,-220 222,-333 77,-90 420,-402 521,-473 l 70,-50 -28,-10 c -15,-6 -23,-11 -16,-11 8,-1 5,-13 -9,-37 -19,-32 -21,-50 -20,-146 l 2,-108 -38,-43 c -57,-63 -132,-176 -122,-182 6,-3 30,3 55,14 53,24 57,16 13,-22 l -33,-28 50,7 c 38,5 47,4 39,-6 -9,-8 -9,-18 0,-36 12,-26 29,-34 19,-8 -5,14 -3,15 18,3 14,-8 52,-34 86,-58 52,-37 63,-50 74,-90 7,-25 17,-49 22,-52 13,-9 79,-231 128,-428 31,-129 37,-166 27,-172 -10,-7 -10,-14 1,-41 7,-18 16,-50 21,-71 4,-21 11,-41 15,-45 5,-4 5,2 1,12 -4,11 -2,22 5,26 8,5 6,16 -5,38 -19,37 -20,43 -3,36 13,-5 -84,397 -138,571 -44,141 -44,140 28,94 34,-22 67,-45 72,-52 16,-21 153,-93 253,-133 69,-27 107,-49 145,-85 37,-34 48,-51 40,-57 -17,-11 -14,-82 4,-82 7,0 13,-4 13,-10 0,-5 -7,-7 -15,-4 -11,5 -15,-1 -15,-20 0,-14 -5,-34 -11,-44 -8,-13 -7,-26 5,-52 l 16,-35 -6,32 c -7,43 11,76 37,68 15,-5 22,-1 26,15 5,19 10,21 47,15 39,-6 40,-5 21,10 -13,10 -30,14 -48,11 -32,-7 -37,1 -40,66 -2,26 -10,54 -18,64 -34,41 -133,103 -215,133 -92,35 -322,175 -323,198 -1,7 -23,24 -50,37 -30,16 -51,34 -54,48 -5,17 -9,20 -18,11 -9,-9 -20,-6 -45,10 -38,25 -43,37 -14,37 11,0 20,5 20,10 0,6 -18,10 -40,10 -22,0 -42,6 -47,14 -4,7 -19,19 -31,25 l -24,13 21,22 c 43,46 23,58 -46,26 -24,-10 -43,-15 -43,-11 0,11 85,127 99,136 6,3 21,25 33,48 11,23 33,54 47,70 14,15 26,33 26,40 0,6 14,32 31,57 17,25 43,66 58,91 l 26,47 93,6 c 307,20 371,19 511,-11 51,-11 25,20 -35,41 -41,14 -89,19 -202,22 -128,3 -153,6 -183,23 -48,28 -65,26 -31,-4 l 27,-24 -34,-7 c -26,-4 -45,0 -74,16 l -38,22 73,170 c 40,94 71,173 69,176 -6,6 -44,-69 -72,-145 -41,-109 -84,-185 -100,-179 -15,6 -20,-9 -5,-19 6,-3 6,-17 -1,-35 -9,-28 -14,-30 -57,-30 -42,0 -55,7 -137,68 -103,78 -354,303 -459,413 -103,107 -195,233 -195,266 0,5 34,7 75,5 58,-3 75,-1 75,9 0,11 -20,14 -86,14 -79,1 -87,3 -105,25 -10,14 -26,50 -35,80 -9,30 -23,60 -31,67 -20,16 -6,20 54,15 l 52,-4 10,-49 c 6,-28 11,-62 11,-76 0,-17 4,-23 9,-17 6,5 5,33 0,68 -6,38 -6,63 0,69 13,13 290,5 299,-9 4,-6 16,-16 27,-23 17,-11 14,-12 -22,-8 -24,3 -46,1 -49,-4 -3,-5 -19,-9 -35,-9 -26,0 -29,-3 -24,-21 6,-19 4,-21 -16,-16 -13,4 -32,7 -41,7 -9,0 -19,10 -21,23 l -4,22 -2,-22 c -2,-33 -34,-29 -49,5 l -12,27 4,-27 c 2,-16 -3,-33 -10,-39 -11,-9 -10,-15 3,-35 17,-26 39,-33 30,-10 -6,15 29,34 40,22 4,-3 12,-1 19,5 22,18 694,-117 723,-146 2,-3 -2,-11 -9,-20 -11,-13 -7,-17 26,-31 22,-9 47,-23 57,-32 15,-14 17,-14 17,0 0,9 -15,25 -32,37 -30,19 -31,21 -10,21 32,0 27,27 -5,33 -16,2 -84,21 -153,40 -69,20 -213,52 -320,72 -235,43 -226,40 -209,61 9,11 23,14 46,11 18,-3 33,-2 33,4 0,5 16,9 37,9 35,0 36,0 18,20 -18,20 -17,20 11,21 58,3 183,-3 369,-17 105,-8 249,-14 320,-14 137,-1 374,-15 406,-25 11,-4 19,-2 19,4 0,22 -87,32 -360,41 -157,5 -337,14 -400,19 -156,14 -422,29 -670,37 -175,6 -207,4 -218,-8 z m 1048,-958 25,-20 h -37 c -36,0 -50,15 -31,33 10,10 16,8 43,-13 z m -129,-69 23,-18 -30,-39 c -17,-22 -42,-58 -56,-82 -13,-23 -28,-39 -31,-35 -4,3 -7,34 -7,68 0,70 17,98 45,75 22,-18 31,-4 12,18 -31,34 6,44 44,13 z m 674,-1201 c 3,-5 2,-10 -4,-10 -5,0 -13,5 -16,10 -3,6 -2,10 4,10 5,0 13,-4 16,-10 z"
       id="path28" />
    <path
       inkscape:connector-curvature="0"
       d="m 2113,3444 c 6,-34 5,-36 -16,-29 -56,17 -70,18 -65,4 3,-8 13,-15 24,-16 10,-1 34,-4 52,-8 30,-7 32,-6 32,20 0,27 1,27 18,12 24,-22 52,-22 52,1 0,12 -3,13 -8,5 -6,-9 -17,-5 -43,17 -45,38 -53,37 -46,-6 z"
       id="path30" />
    <path
       inkscape:connector-curvature="0"
       d="m 481,3414 c 0,-11 3,-14 6,-6 3,7 2,16 -1,19 -3,4 -6,-2 -5,-13 z"
       id="path32" />
    <path
       inkscape:connector-curvature="0"
       d="m 2078,3372 c -10,-2 -18,-8 -18,-13 0,-11 11,-11 30,1 18,11 11,18 -12,12 z"
       id="path34" />
    <path
       inkscape:connector-curvature="0"
       d="m 2435,3370 c -4,-6 11,-10 37,-9 36,1 39,2 18,9 -36,11 -48,11 -55,0 z"
       id="path36" />
    <path
       inkscape:connector-curvature="0"
       d="m 3313,3213 c -35,-14 -63,-31 -63,-38 0,-12 14,-12 108,-6 6,1 12,6 12,12 0,8 -13,9 -40,5 -54,-9 -50,-1 10,19 28,9 50,21 50,26 0,12 -5,11 -77,-18 z"
       id="path38" />
    <path
       inkscape:connector-curvature="0"
       d="m 1422,3078 c -8,-8 -9,-15 -1,-25 13,-15 39,-17 39,-3 0,6 -5,10 -11,10 -5,0 -8,4 -4,10 3,5 13,6 22,3 11,-4 14,-3 9,5 -9,15 -39,15 -54,0 z"
       id="path40" />
    <path
       inkscape:connector-curvature="0"
       d="m 2045,3013 c -11,-2 -67,-24 -125,-48 -62,-25 -129,-46 -162,-49 -167,-17 -168,-17 -168,-33 0,-13 11,-15 73,-10 124,9 429,110 412,137 -3,5 -7,9 -8,9 -1,-1 -11,-3 -22,-6 z"
       id="path42" />
    <path
       inkscape:connector-curvature="0"
       d="m 2817,2904 c -11,-11 2,-24 18,-17 9,3 15,-1 15,-10 0,-30 189,-73 369,-84 78,-5 93,-4 89,8 -3,9 -23,15 -59,17 -167,8 -301,37 -415,88 -5,2 -13,2 -17,-2 z"
       id="path44" />
    <path
       inkscape:connector-curvature="0"
       d="m 2023,2685 c 0,-22 2,-30 4,-17 2,12 2,30 0,40 -3,9 -5,-1 -4,-23 z"
       id="path46" />
    <path
       inkscape:connector-curvature="0"
       d="m 2793,2685 c 0,-22 2,-30 4,-17 2,12 2,30 0,40 -3,9 -5,-1 -4,-23 z"
       id="path48" />
    <path
       inkscape:connector-curvature="0"
       d="m 3381,2710 c 0,-8 4,-22 9,-30 12,-18 12,-2 0,25 -6,13 -9,15 -9,5 z"
       id="path50" />
    <path
       inkscape:connector-curvature="0"
       d="m 2292,2508 c -7,-7 -36,-18 -64,-25 -29,-8 -62,-23 -73,-35 -11,-11 -15,-18 -10,-16 6,2 27,12 48,21 90,42 312,42 374,2 25,-17 33,-18 33,-7 0,23 -80,45 -180,51 -90,5 -98,6 -55,12 l 50,6 -55,1 c -32,1 -61,-3 -68,-10 z"
       id="path52" />
    <path
       inkscape:connector-curvature="0"
       d="m 2292,2399 c -94,-18 -142,-73 -112,-126 18,-31 124,-93 161,-93 27,0 97,21 135,41 25,13 54,69 54,103 0,67 -107,101 -238,75 z m 162,-19 c 7,0 20,-6 30,-13 15,-11 15,-17 5,-42 -6,-17 -11,-42 -11,-56 0,-19 -7,-30 -24,-38 -41,-18 -44,-13 -23,46 10,31 19,63 19,72 0,28 -16,-3 -35,-67 -11,-37 -26,-67 -37,-73 -13,-7 -18,-6 -19,3 0,10 -2,10 -6,1 -2,-7 -11,-13 -19,-13 -8,0 -17,6 -19,13 -6,14 38,144 54,160 22,22 25,-5 7,-69 -9,-37 -15,-68 -12,-71 6,-6 36,94 36,122 0,27 10,37 28,30 7,-3 19,-5 26,-5 z m -162,-13 c 1,-20 -38,-126 -45,-124 -12,3 -10,13 10,80 9,31 21,56 26,54 5,-1 9,-6 9,-10 z m 48,-2 c 0,-8 -8,-36 -18,-62 -11,-26 -22,-57 -26,-67 -5,-14 -10,-16 -17,-9 -14,14 30,153 49,153 6,0 12,-7 12,-15 z m -103,-55 c -11,-27 -24,-47 -29,-44 -4,3 -4,14 2,24 5,10 10,27 10,37 0,21 19,45 31,38 4,-3 -2,-27 -14,-55 z m -35,8 c -7,-7 -12,-8 -12,-2 0,6 3,14 7,17 3,4 9,5 12,2 2,-3 -1,-11 -7,-17 z m 297,-32 c -9,-8 -10,-7 -5,7 3,10 7,24 7,30 1,7 3,4 6,-7 3,-10 -1,-23 -8,-30 z"
       id="path54" />
    <path
       inkscape:connector-curvature="0"
       d="m 2005,2300 c -3,-5 -1,-10 4,-10 6,0 11,5 11,10 0,6 -2,10 -4,10 -3,0 -8,-4 -11,-10 z"
       id="path56" />
    <path
       inkscape:connector-curvature="0"
       d="m 2664,2189 c -3,-6 -1,-16 5,-22 8,-8 11,-5 11,11 0,24 -5,28 -16,11 z"
       id="path58" />
    <path
       inkscape:connector-curvature="0"
       d="m 2290,1999 c -19,-4 -61,-13 -92,-19 -133,-26 -241,-112 -301,-238 -23,-49 -28,-70 -22,-98 7,-38 78,-125 91,-111 4,4 -6,22 -24,40 -48,50 -56,81 -35,140 17,48 92,150 125,171 13,8 23,7 38,-2 26,-16 40,-8 40,24 0,28 18,37 120,60 36,8 75,18 87,21 13,3 33,-1 45,-9 13,-8 46,-22 73,-32 57,-21 76,-34 74,-50 -3,-26 2,-36 20,-36 11,0 23,5 26,10 5,8 12,7 22,-2 8,-7 25,-17 37,-23 29,-15 43,-99 28,-172 -13,-62 -49,-113 -108,-153 -39,-27 -43,-28 -57,-12 -8,9 -22,32 -31,49 -24,48 -53,62 -148,74 -82,11 -88,10 -127,-12 -40,-22 -78,-65 -67,-76 3,-3 17,8 30,24 47,56 120,69 142,25 l 11,-23 6,22 c 5,19 11,21 48,16 56,-7 93,-44 93,-91 0,-20 -3,-38 -6,-41 -17,-18 -134,-26 -225,-16 -53,5 -99,8 -102,6 -11,-11 13,-17 105,-26 154,-14 270,11 359,79 77,58 98,105 96,214 -1,119 -8,128 -163,205 -136,68 -157,75 -208,62 z m -200,-95 c 0,-8 -5,-12 -10,-9 -6,4 -8,11 -5,16 9,14 15,11 15,-7 z m 455,-14 c -3,-5 -10,-10 -16,-10 -5,0 -9,5 -9,10 0,6 7,10 16,10 8,0 12,-4 9,-10 z m -75,-400 c 0,-5 -5,-10 -11,-10 -5,0 -7,5 -4,10 3,6 8,10 11,10 2,0 4,-4 4,-10 z"
       id="path60" />
    <path
       inkscape:connector-curvature="0"
       d="m 1656,1962 c -6,-10 48,-22 87,-20 23,2 22,18 -2,18 -10,0 -32,3 -49,6 -16,3 -32,1 -36,-4 z"
       id="path62" />
    <path
       inkscape:connector-curvature="0"
       d="m 1533,1863 c -7,-2 -13,-12 -13,-21 0,-12 3,-13 12,-4 7,7 39,12 73,12 42,0 56,3 45,10 -15,10 -95,12 -117,3 z"
       id="path64" />
    <path
       inkscape:connector-curvature="0"
       d="m 2240,1826 c 0,-3 4,-16 10,-30 10,-27 43,-36 56,-15 4,8 0,9 -15,4 -16,-5 -23,-1 -31,19 -8,23 -20,35 -20,22 z"
       id="path66" />
    <path
       inkscape:connector-curvature="0"
       d="m 2093,1783 c -47,-70 -62,-151 -38,-203 9,-21 14,-25 11,-12 -2,13 2,39 10,57 18,44 18,54 -1,29 -14,-18 -14,-18 -14,6 -1,31 30,100 52,119 10,7 17,17 17,22 0,18 -19,8 -37,-18 z"
       id="path68" />
    <path
       inkscape:connector-curvature="0"
       d="m 1487,1790 c -21,-3 -38,-9 -38,-15 0,-11 34,-23 66,-23 20,-1 20,0 0,7 -19,8 -19,8 0,19 27,14 17,19 -28,12 z"
       id="path70" />
    <path
       inkscape:connector-curvature="0"
       d="m 2441,1764 c 26,-31 30,-54 14,-84 -18,-34 -18,-40 -4,-40 5,0 8,4 5,9 -3,5 1,14 9,21 15,13 20,2 29,-65 2,-16 2,-2 1,32 -3,65 -29,134 -55,141 -13,4 -13,2 1,-14 z"
       id="path72" />
    <path
       inkscape:connector-curvature="0"
       d="m 2186,1755 c -3,-9 -6,-22 -5,-28 0,-7 5,-1 10,12 5,13 8,26 5,28 -2,2 -6,-3 -10,-12 z"
       id="path74" />
    <path
       inkscape:connector-curvature="0"
       d="m 2132,1735 c -7,-14 -12,-31 -12,-38 1,-7 7,3 16,22 17,39 13,54 -4,16 z"
       id="path76" />
    <path
       inkscape:connector-curvature="0"
       d="m 2386,1745 c -9,-26 -7,-32 5,-12 6,10 9,21 6,23 -2,3 -7,-2 -11,-11 z"
       id="path78" />
    <path
       inkscape:connector-curvature="0"
       d="m 2100,1720 c -7,-17 -10,-33 -8,-36 3,-3 11,9 17,27 6,18 9,34 7,36 -2,2 -9,-10 -16,-27 z"
       id="path80" />
    <path
       inkscape:connector-curvature="0"
       d="m 2221,1722 c -17,-31 -13,-40 5,-14 9,13 14,26 11,29 -3,2 -10,-4 -16,-15 z"
       id="path82" />
    <path
       inkscape:connector-curvature="0"
       d="m 2162,1681 c -17,-48 -14,-63 4,-22 8,19 13,39 11,45 -2,6 -9,-5 -15,-23 z"
       id="path84" />
    <path
       inkscape:connector-curvature="0"
       d="m 2356,1684 c -4,-9 -4,-19 -1,-22 2,-3 7,3 11,12 4,9 4,19 1,22 -2,3 -7,-3 -11,-12 z"
       id="path86" />
    <path
       inkscape:connector-curvature="0"
       d="m 2101,1653 c -10,-26 -10,-27 4,-9 8,11 15,23 15,28 0,15 -7,8 -19,-19 z"
       id="path88" />
    <path
       inkscape:connector-curvature="0"
       d="m 2400,1660 c 0,-5 5,-10 10,-10 6,0 10,5 10,10 0,6 -4,10 -10,10 -5,0 -10,-4 -10,-10 z"
       id="path90" />
    <path
       inkscape:connector-curvature="0"
       d="m 2285,1319 c -10,-15 -4,-18 28,-12 21,4 25,8 15,14 -18,12 -36,11 -43,-2 z"
       id="path92" />
    <path
       inkscape:connector-curvature="0"
       d="m 2320,1192 c 0,-6 11,-24 25,-40 15,-19 21,-33 15,-37 -5,-3 -10,-15 -10,-27 0,-16 3,-18 14,-9 7,6 21,9 30,5 29,-11 16,20 -29,69 -25,27 -45,44 -45,39 z"
       id="path94" />
    <path
       inkscape:connector-curvature="0"
       d="m 2650,1170 c -12,-8 -12,-10 -1,-10 9,0 11,-8 7,-27 l -6,-28 16,29 c 17,31 8,51 -16,36 z"
       id="path96" />
    <path
       inkscape:connector-curvature="0"
       d="m 2320,1003 1,-48 14,33 c 14,32 11,62 -6,62 -5,0 -9,-21 -9,-47 z"
       id="path98" />
    <path
       inkscape:connector-curvature="0"
       d="m 2635,951 c -8,-17 -12,-31 -7,-31 12,0 37,48 29,56 -3,3 -13,-8 -22,-25 z"
       id="path100" />
    <path
       inkscape:connector-curvature="0"
       d="m 2286,908 c 8,-28 12,-33 20,-25 9,8 -6,47 -17,47 -6,0 -7,-10 -3,-22 z"
       id="path102" />
    <path
       inkscape:connector-curvature="0"
       d="m 1532,895 c 6,-14 13,-24 14,-22 6,6 -9,47 -17,47 -5,0 -3,-11 3,-25 z"
       id="path104" />
    <path
       inkscape:connector-curvature="0"
       d="m 3137,898 c -9,-31 -2,-33 11,-3 6,14 8,25 3,25 -5,0 -11,-10 -14,-22 z"
       id="path106" />
    <path
       inkscape:connector-curvature="0"
       d="m 1569,805 c -3,-98 1,-244 7,-267 3,-10 14,-18 25,-18 22,0 60,-78 102,-210 51,-159 65,-152 27,14 -18,77 -34,122 -44,128 -9,5 -16,18 -16,29 0,11 -18,37 -40,59 l -40,39 -1,128 c -1,151 -15,222 -20,98 z"
       id="path108" />
    <path
       inkscape:connector-curvature="0"
       d="m 3096,849 c -3,-17 -6,-85 -6,-151 V 579 l -40,-39 c -22,-22 -40,-48 -40,-59 0,-11 -7,-24 -16,-29 -17,-9 -51,-142 -78,-302 -9,-52 -19,-107 -22,-122 -3,-16 -2,-28 3,-28 8,0 34,102 48,192 8,49 57,200 89,271 19,41 31,57 45,57 11,0 23,9 26,21 8,23 9,328 2,335 -2,3 -7,-10 -11,-27 z"
       id="path110" />
    <path
       inkscape:connector-curvature="0"
       d="m 1916,812 c -7,-12 5,-82 15,-82 4,0 3,16 -2,35 -6,19 -7,40 -4,45 3,6 4,10 1,10 -3,0 -7,-4 -10,-8 z"
       id="path112" />
    <path
       inkscape:connector-curvature="0"
       d="m 1680,765 c 0,-8 4,-15 10,-15 5,0 7,7 4,15 -4,8 -8,15 -10,15 -2,0 -4,-7 -4,-15 z"
       id="path114" />
    <path
       inkscape:connector-curvature="0"
       d="m 2285,758 c 4,-22 2,-25 -15,-21 -11,3 -20,1 -20,-5 0,-11 49,-26 58,-17 3,3 -2,20 -11,38 -16,29 -17,30 -12,5 z"
       id="path116" />
    <path
       inkscape:connector-curvature="0"
       d="m 2986,765 c -3,-8 -1,-15 4,-15 6,0 10,7 10,15 0,8 -2,15 -4,15 -2,0 -6,-7 -10,-15 z"
       id="path118" />
    <path
       inkscape:connector-curvature="0"
       d="m 1700,721 c 0,-6 4,-13 10,-16 6,-3 7,1 4,9 -7,18 -14,21 -14,7 z"
       id="path120" />
    <path
       inkscape:connector-curvature="0"
       d="m 2966,713 c -6,-14 -5,-15 5,-6 7,7 10,15 7,18 -3,3 -9,-2 -12,-12 z"
       id="path122" />
    <path
       inkscape:connector-curvature="0"
       d="m 1796,588 c 10,-14 21,-24 23,-22 3,3 -6,15 -18,27 l -24,22 z"
       id="path124" />
    <path
       inkscape:connector-curvature="0"
       d="m 2875,590 c -10,-11 -16,-22 -14,-24 2,-2 12,7 22,20 22,29 17,32 -8,4 z"
       id="path126" />
    <path
       inkscape:connector-curvature="0"
       d="m 1821,530 c 0,-14 7,-56 15,-95 l 14,-70 -4,75 c -1,42 -8,85 -14,95 -11,19 -11,18 -11,-5 z"
       id="path128" />
    <path
       inkscape:connector-curvature="0"
       d="m 2842,515 c -7,-22 -12,-65 -11,-95 l 1,-55 14,80 c 16,89 14,131 -4,70 z"
       id="path130" />
    <path
       inkscape:connector-curvature="0"
       d="m 2102,370 c 0,-14 2,-19 5,-12 2,6 2,18 0,25 -3,6 -5,1 -5,-13 z"
       id="path132" />
    <path
       inkscape:connector-curvature="0"
       d="m 2572,370 c 0,-14 2,-19 5,-12 2,6 2,18 0,25 -3,6 -5,1 -5,-13 z"
       id="path134" />
    <path
       inkscape:connector-curvature="0"
       d="m 2281,364 c 0,-11 3,-14 6,-6 3,7 2,16 -1,19 -3,4 -6,-2 -5,-13 z"
       id="path136" />
    <path
       inkscape:connector-curvature="0"
       d="m 2087,339 c 7,-7 15,-10 18,-7 3,3 -2,9 -12,12 -14,6 -15,5 -6,-5 z"
       id="path138" />
    <path
       inkscape:connector-curvature="0"
       d="m 2580,340 c -9,-6 -10,-10 -3,-10 6,0 15,5 18,10 8,12 4,12 -15,0 z"
       id="path140" />
    <path
       inkscape:connector-curvature="0"
       d="m 2291,294 c 0,-11 3,-14 6,-6 3,7 2,16 -1,19 -3,4 -6,-2 -5,-13 z"
       id="path142" />
    <path
       inkscape:connector-curvature="0"
       d="m 2092,245 c 0,-16 2,-22 5,-12 2,9 2,23 0,30 -3,6 -5,-1 -5,-18 z"
       id="path144" />
    <path
       inkscape:connector-curvature="0"
       d="m 2281,254 c 0,-11 3,-14 6,-6 3,7 2,16 -1,19 -3,4 -6,-2 -5,-13 z"
       id="path146" />
    <path
       inkscape:connector-curvature="0"
       d="m 2581,213 c 0,-35 2,-63 7,-63 4,0 6,21 4,48 -5,75 -10,82 -11,15 z"
       id="path148" />
    <path
       inkscape:connector-curvature="0"
       d="m 1751,134 c -1,-35 21,-134 30,-134 11,0 1,72 -17,120 -9,24 -13,29 -13,14 z"
       id="path150" />
    <path
       inkscape:connector-curvature="0"
       d="m 2601,93 c -1,-26 14,-31 23,-7 3,8 2,13 -3,9 -5,-3 -12,1 -14,7 -3,7 -6,3 -6,-9 z"
       id="path152" />
    <path
       inkscape:connector-curvature="0"
       d="m 2036,57 c 3,-10 9,-15 12,-12 3,3 0,11 -7,18 -10,9 -11,8 -5,-6 z"
       id="path154" />
  </g>
</svg>
