<?xml version="1.0" encoding="UTF-8" standalone="no"?>
<!-- Created with Inkscape (http://www.inkscape.org/) -->

<svg
   xmlns:dc="http://purl.org/dc/elements/1.1/"
   xmlns:cc="http://creativecommons.org/ns#"
   xmlns:rdf="http://www.w3.org/1999/02/22-rdf-syntax-ns#"
   xmlns:svg="http://www.w3.org/2000/svg"
   xmlns="http://www.w3.org/2000/svg"
   xmlns:xlink="http://www.w3.org/1999/xlink"
   xmlns:sodipodi="http://sodipodi.sourceforge.net/DTD/sodipodi-0.dtd"
   xmlns:inkscape="http://www.inkscape.org/namespaces/inkscape"
   width="190mm"
   height="190mm"
   viewBox="0 0 190 190"
   version="1.1"
   id="svg19"
   inkscape:version="0.92.1 r15371"
   sodipodi:docname="bugBurgaDrank.svg">
  <defs
     id="defs13">
    <pattern
       inkscape:collect="always"
       xlink:href="#Wavywhite"
       id="pattern6530"
       patternTransform="translate(8.5044643,12.284226)" />
    <pattern
       inkscape:isstock="true"
       inkscape:stockid="Wavy white"
       id="Wavywhite"
       height="5.1805778"
       width="30.066020"
       patternUnits="userSpaceOnUse"
       inkscape:collect="always">
      <path
         id="path6435"
         d="M 7.597,0.061 C 5.079,-0.187 2.656,0.302 -0.01,1.788 L -0.01,3.061 C 2.773,1.431 5.173,1.052 7.472,1.280 C 9.770,1.508 11.969,2.361 14.253,3.218 C 18.820,4.931 23.804,6.676 30.066,3.061 L 30.062,1.788 C 23.622,5.497 19.246,3.770 14.691,2.061 C 12.413,1.207 10.115,0.311 7.597,0.061 z "
         style="fill:white;stroke:none;" />
    </pattern>
  </defs>
  <sodipodi:namedview
     id="base"
     pagecolor="#ffffff"
     bordercolor="#666666"
     borderopacity="1.0"
     inkscape:pageopacity="0.0"
     inkscape:pageshadow="2"
     inkscape:zoom="0.7"
     inkscape:cx="-82.22748"
     inkscape:cy="330.36682"
     inkscape:document-units="mm"
     inkscape:current-layer="layer1"
     showgrid="false"
     inkscape:snap-page="true"
     inkscape:window-width="1920"
     inkscape:window-height="1056"
     inkscape:window-x="0"
     inkscape:window-y="24"
     inkscape:window-maximized="1"
     fit-margin-top="0"
     fit-margin-left="0"
     fit-margin-right="0"
     fit-margin-bottom="0" />
  <metadata
     id="metadata16">
    <rdf:RDF>
      <cc:Work
         rdf:about="">
        <dc:format>image/svg+xml</dc:format>
        <dc:type
           rdf:resource="http://purl.org/dc/dcmitype/StillImage" />
        <dc:title></dc:title>
      </cc:Work>
    </rdf:RDF>
  </metadata>
  <g
     inkscape:label="Layer 1"
     inkscape:groupmode="layer"
     id="layer1"
     transform="translate(-60.571496,-48.259441)">
    <g
       id="g52"
       transform="translate(50.447423,-1.7127674)">
      <path
         d="m 142.43494,104.67638 a 42.921947,6.0375471 0 0 1 -55.969995,2.42587 42.921947,6.0375471 0 0 1 -21.071033,-7.686545 42.921947,6.0375471 0 0 1 53.058898,-3.487817 42.921947,6.0375471 0 0 1 28.40147,7.204682"
         sodipodi:open="true"
         sodipodi:end="0.24453459"
         sodipodi:start="0.52106805"
         sodipodi:ry="6.0375471"
         sodipodi:rx="42.921947"
         sodipodi:cy="101.67085"
         sodipodi:cx="105.20925"
         sodipodi:type="arc"
         id="path5048"
         style="opacity:1;vector-effect:none;fill:#eaeaea;fill-opacity:1;stroke:none;stroke-width:182.22099304px;stroke-linecap:butt;stroke-linejoin:round;stroke-miterlimit:4;stroke-dasharray:none;stroke-dashoffset:0;stroke-opacity:1" />
      <g
         transform="matrix(1.3017576,0.17957094,-0.11938176,0.99369423,86.320881,12.323313)"
         id="g6572">
        <path
           inkscape:connector-curvature="0"
           id="rect5072-3"
           d="m 34.58482,33.361607 h 3.023809 V 146.75447 H 34.58482 Z"
           style="opacity:1;vector-effect:none;fill:#ff0000;fill-opacity:1;stroke:none;stroke-width:181.10812378px;stroke-linecap:butt;stroke-linejoin:round;stroke-miterlimit:4;stroke-dasharray:none;stroke-dashoffset:0;stroke-opacity:1" />
        <path
           inkscape:connector-curvature="0"
           id="rect5072"
           d="m 34.58482,33.361607 h 3.023809 V 146.75447 H 34.58482 Z"
           style="opacity:1;vector-effect:none;fill:url(#pattern6530);fill-opacity:1;stroke:none;stroke-width:181.10812378px;stroke-linecap:butt;stroke-linejoin:round;stroke-miterlimit:4;stroke-dasharray:none;stroke-dashoffset:0;stroke-opacity:1" />
      </g>
      <path
         sodipodi:nodetypes="cscccc"
         inkscape:connector-curvature="0"
         id="rect4496"
         d="m 62.2738,101.62598 c 0,0 27.966147,6.95768 42.23662,6.99256 14.70483,0.0359 43.5569,-6.99256 43.5569,-6.99256 l -5.87993,127.48755 c -23.36474,10.3858 -47.898648,11.52453 -74.03366,0 z"
         style="opacity:1;vector-effect:none;fill:#dadada;fill-opacity:1;stroke:none;stroke-width:181.10812378px;stroke-linecap:butt;stroke-linejoin:round;stroke-miterlimit:4;stroke-dasharray:none;stroke-dashoffset:0;stroke-opacity:1" />
      <path
         sodipodi:nodetypes="scssccsscccccccscccccccccc"
         inkscape:connector-curvature="0"
         id="path5043"
         transform="scale(0.26458333)"
         d="m 396.04688,358.19922 c -65.21338,-0.28323 -129.16401,7.03764 -167.11524,21.64453 3.74402,116.48276 10.9052,234.12849 17.9546,351.95564 0.16492,2.75661 2.47264,6.22761 2.6374,8.9844 2.6079,43.63708 3.04629,86.58161 5.42167,130.2123 122.75924,47.15149 208.17413,31.15776 285.70703,-1.70898 3.36804,-43.88447 5.2549,-86.1684 8.31724,-130.36075 0.19702,-2.84313 1.82156,-7.47249 2.01643,-10.31662 7.92254,-115.63031 14.02538,-232.07265 14.72102,-348.20935 -24.48082,-8.31533 -55.41131,-14.15376 -89.32422,-17.78906 l -0.85547,7.01172 c 28.78663,3.03576 57.17037,7.72284 84.09766,14.47461 -115.20411,27.06095 -219.76823,26.32692 -323.04883,0.4707 47.46317,-15.78698 135.73781,-24.11455 224.06641,-16.58984 l 0.80469,-6.77149 c -21.10212,-1.79588 -43.66263,-2.9134 -65.40039,-3.00781 z m -159.35352,34.66406 c 101.18835,30.95994 203.62781,24.61843 322.56055,0.0117 -5.46089,116.949 -9.74279,229.44631 -15.51005,336.35714 -1.35642,34.94434 -287.05902,31.79837 -289.90597,2.51981 C 247.09268,606.15567 238.62676,432.6685 236.69336,392.86328 Z m 306.37695,344.33203 c -3.70267,68.08414 -7.14231,120.10753 -9.20508,124.70508 -70.2652,29.60515 -156.97808,44.99154 -271.99023,2.07617 -1.33949,-12.36127 -4.27208,-62.39113 -7.69141,-125.77539 -2.81617,27.85123 285.92027,37.29919 288.88672,-1.00586 z"
         style="opacity:1;vector-effect:none;fill:#b6751d;fill-opacity:1;stroke:none;stroke-width:684.50317383px;stroke-linecap:butt;stroke-linejoin:round;stroke-miterlimit:4;stroke-dasharray:none;stroke-dashoffset:0;stroke-opacity:1" />
      <flowRoot
         style="font-style:normal;font-weight:normal;font-size:40px;line-height:125%;font-family:sans-serif;letter-spacing:0px;word-spacing:0px;fill:#000000;fill-opacity:1;stroke:none;stroke-width:1px;stroke-linecap:butt;stroke-linejoin:miter;stroke-opacity:1"
         id="flowRoot6585"
         xml:space="preserve"><flowRegion
           id="flowRegion6587"><rect
             y="552.51971"
             x="254.28572"
             height="120"
             width="284.28571"
             id="rect6589" /></flowRegion><flowPara
           id="flowPara6591" /></flowRoot>      <path
         d="m 139.80541,151.39479 a 24.321527,25.123335 0 0 1 -31.71515,10.09449 24.321527,25.123335 0 0 1 -11.939803,-31.98513 24.321527,25.123335 0 0 1 30.065583,-14.51344 24.321527,25.123335 0 0 1 16.09356,29.98"
         sodipodi:open="true"
         sodipodi:end="0.24453459"
         sodipodi:start="0.52106805"
         sodipodi:ry="25.123335"
         sodipodi:rx="24.321527"
         sodipodi:cy="138.88823"
         sodipodi:cx="118.71164"
         sodipodi:type="arc"
         id="path6657"
         style="opacity:1;vector-effect:none;fill:#ffffff;fill-opacity:1;stroke:none;stroke-width:181.10812378px;stroke-linecap:butt;stroke-linejoin:round;stroke-miterlimit:4;stroke-dasharray:none;stroke-dashoffset:0;stroke-opacity:1" />
      <path
         sodipodi:nodetypes="cccscccccccccccccccccccccccccccccccccccccccc"
         inkscape:connector-curvature="0"
         id="path6645"
         transform="scale(0.26458333)"
         d="m 431.69142,463.17335 c -0.16948,0.0537 -26.77933,9.33388 -26.43728,10.21179 0.15647,0.40188 26.57294,-7.88494 26.83146,-7.35369 2.33635,4.79989 8.93461,16.34122 8.25229,16.65605 -6.84117,3.15659 -12.91621,9.70089 -17.06836,18.82422 -0.35176,0.77284 -26.85068,0.94046 -27.17383,1.75 -0.0279,0.0699 -12.7987,18.2732 -12.15429,18.35937 0.26619,0.0355 13.61788,-13.38545 13.97656,-13.34765 5.95559,0.62751 23.21588,-1.73384 23.03711,-1.24024 -0.57846,1.59746 -0.47169,1.87036 -0.93555,3.59375 -1.62323,6.03096 -2.36882,12.28144 -2.32422,18.42578 0.004,0.59063 -21.82944,-0.58663 -21.81054,0.002 0.004,0.12023 -10.28516,18.5664 -10.28516,18.5664 0.51043,0.0994 12.51367,-16.35351 12.51367,-16.35351 5.4851,0.96105 19.65866,0.63141 19.67383,0.93945 0.31994,6.2078 1.4459,12.24816 3.28906,17.77735 0.1183,0.35488 -26.40326,7.40121 -26.27929,7.75195 0.0431,0.12178 -6.38086,15.94922 -6.38086,15.94922 0,0 9.67469,-14.06061 10.14257,-14.16016 6.54634,-1.39277 23.36697,-7.15292 23.53516,-6.72266 3.10314,7.93834 7.75659,14.61755 13.66992,18.91211 12.37642,8.98842 30.77035,-5.4106 40.25,-21.05273 0.27086,-0.44693 13.98473,5.77077 22.5918,7.70312 0.74021,0.16618 11.91052,14.71134 12.53906,14.84571 0,0 -9.12017,-16.70281 -9.04492,-16.83789 0.23286,-0.418 -24.54334,-8.41198 -24.32422,-8.83008 1.30713,-2.49413 2.36516,-4.98278 3.11328,-7.37695 0.9826,-3.14458 2.24037,-4.50469 2.3086,-8.19922 0.005,-0.27124 11.77643,-0.026 18.4707,-0.006 0.67715,0.002 13.17074,27.52862 13.72656,27.52539 1.62796,-0.009 -9.96638,-29.71763 -9.9668,-29.79883 -0.003,-0.54765 -22.99522,-2.10969 -23.01562,-2.66406 -0.21127,-5.73019 -1.62524,-12.54687 -3.53711,-18.31836 -0.21654,-0.65367 15.79057,-2.3909 22.22461,-3.54102 1.061,-0.18967 15.6099,18.38279 16.25781,18.22461 0,0 -13.86201,-21.11187 -13.9082,-21.23437 -0.32471,-0.86122 -25.92014,2.95865 -26.27734,2.11718 -4.09797,-9.65304 -10.28745,-17.86144 -17.50391,-21.36328 -0.40573,-0.19687 3.59355,-11.67702 4.82949,-16.26453 0.0999,-0.37081 24.84961,2.03047 24.9286,1.71563 0.28157,-1.12018 -25.59796,-4.52882 -25.71512,-4.57531 -0.46602,-0.18553 -6.6461,18.03314 -7.11328,17.88007 -3.5833,-1.17309 -7.19086,-1.39411 -10.68946,-0.75586 -0.92934,0.16955 -13.30543,-18.02399 -14.21678,-17.73485 z"
         style="opacity:1;vector-effect:none;fill:#a48fab;fill-opacity:1;stroke:none;stroke-width:684.50317383px;stroke-linecap:butt;stroke-linejoin:round;stroke-miterlimit:4;stroke-dasharray:none;stroke-dashoffset:0;stroke-opacity:1" />
      <path
         d="m 118.84405,131.69163 a 1.503391,0.68487817 0 0 1 -1.96041,0.27518 1.503391,0.68487817 0 0 1 -0.73804,-0.87193 1.503391,0.68487817 0 0 1 1.85845,-0.39565 1.503391,0.68487817 0 0 1 0.99479,0.81728"
         sodipodi:open="true"
         sodipodi:end="0.24453459"
         sodipodi:start="0.52106805"
         sodipodi:ry="0.68487817"
         sodipodi:rx="1.503391"
         sodipodi:cy="131.35069"
         sodipodi:cx="117.54018"
         sodipodi:type="arc"
         id="path6650"
         style="opacity:1;vector-effect:none;fill:#ffffff;fill-opacity:1;stroke:none;stroke-width:181.10812378px;stroke-linecap:butt;stroke-linejoin:round;stroke-miterlimit:4;stroke-dasharray:none;stroke-dashoffset:0;stroke-opacity:1" />
      <path
         d="m 123.17363,131.62494 a 1.6537303,0.86862594 0 0 1 -2.15645,0.34901 1.6537303,0.86862594 0 0 1 -0.81184,-1.10586 1.6537303,0.86862594 0 0 1 2.04429,-0.5018 1.6537303,0.86862594 0 0 1 1.09427,1.03654"
         sodipodi:open="true"
         sodipodi:end="0.24453459"
         sodipodi:start="0.52106805"
         sodipodi:ry="0.86862594"
         sodipodi:rx="1.6537303"
         sodipodi:cy="131.19254"
         sodipodi:cx="121.73937"
         sodipodi:type="arc"
         id="path6652"
         style="opacity:1;vector-effect:none;fill:#ffffff;fill-opacity:1;stroke:none;stroke-width:181.10812378px;stroke-linecap:butt;stroke-linejoin:round;stroke-miterlimit:4;stroke-dasharray:none;stroke-dashoffset:0;stroke-opacity:1" />
      <path
         inkscape:connector-curvature="0"
         id="path6654"
         d="m 120.90377,134.71221 a 1.3697574,1.2695308 0 0 1 -1.78616,0.51009 1.3697574,1.2695308 0 0 1 -0.67244,-1.61627 1.3697574,1.2695308 0 0 1 1.69326,-0.73339 1.3697574,1.2695308 0 0 1 0.90637,1.51495"
         style="opacity:1;vector-effect:none;fill:#ffffff;fill-opacity:1;stroke:none;stroke-width:85.19921112px;stroke-linecap:butt;stroke-linejoin:round;stroke-miterlimit:4;stroke-dasharray:none;stroke-dashoffset:0;stroke-opacity:1" />
      <flowRoot
         transform="scale(0.26458333)"
         style="font-style:normal;font-weight:normal;font-size:40px;line-height:125%;font-family:sans-serif;letter-spacing:0px;word-spacing:0px;fill:#000000;fill-opacity:1;stroke:none;stroke-width:1px;stroke-linecap:butt;stroke-linejoin:miter;stroke-opacity:1"
         id="flowRoot6659"
         xml:space="preserve"><flowRegion
           id="flowRegion6661"><rect
             y="824.01959"
             x="288.14603"
             height="41.668793"
             width="226.02164"
             id="rect6663" /></flowRegion><flowPara
           id="flowPara6665">NO</flowPara></flowRoot>      <text
         transform="scale(0.5558066,1.799187)"
         id="text6669"
         y="127.60213"
         x="134.64299"
         style="font-style:normal;font-weight:normal;font-size:19.04139519px;line-height:125%;font-family:sans-serif;letter-spacing:0px;word-spacing:0px;fill:#d6d6d6;fill-opacity:1;stroke:none;stroke-width:0.47603488px;stroke-linecap:butt;stroke-linejoin:miter;stroke-opacity:1"
         xml:space="preserve"><tspan
           style="fill:#d6d6d6;fill-opacity:1;stroke-width:0.47603488px"
           y="127.60213"
           x="134.64299"
           id="tspan6667"
           sodipodi:role="line">NO REFILLS</tspan></text>
    </g>
  </g>
</svg>
