<?xml version="1.0" encoding="UTF-8" standalone="no"?>
<!-- Created with Inkscape (http://www.inkscape.org/) -->

<svg
   xmlns:dc="http://purl.org/dc/elements/1.1/"
   xmlns:cc="http://creativecommons.org/ns#"
   xmlns:rdf="http://www.w3.org/1999/02/22-rdf-syntax-ns#"
   xmlns:svg="http://www.w3.org/2000/svg"
   xmlns="http://www.w3.org/2000/svg"
   xmlns:xlink="http://www.w3.org/1999/xlink"
   xmlns:sodipodi="http://sodipodi.sourceforge.net/DTD/sodipodi-0.dtd"
   xmlns:inkscape="http://www.inkscape.org/namespaces/inkscape"
   width="151.48427mm"
   height="231.3407mm"
   viewBox="0 0 151.48427 231.3407"
   version="1.1"
   id="svg8"
   inkscape:version="0.92.1 r15371"
   sodipodi:docname="charlieBeatingHeart.svg">
  <defs
     id="defs2">
    <linearGradient
       inkscape:collect="always"
       id="linearGradient1011">
      <stop
         style="stop-color:#96003f;stop-opacity:1;"
         offset="0"
         id="stop1007" />
      <stop
         style="stop-color:#96003f;stop-opacity:0;"
         offset="1"
         id="stop1009" />
    </linearGradient>
    <linearGradient
       inkscape:collect="always"
       id="linearGradient1003">
      <stop
         style="stop-color:#630042;stop-opacity:1;"
         offset="0"
         id="stop999" />
      <stop
         style="stop-color:#630042;stop-opacity:0;"
         offset="1"
         id="stop1001" />
    </linearGradient>
    <linearGradient
       inkscape:collect="always"
       id="linearGradient955">
      <stop
         style="stop-color:#ff6161;stop-opacity:1;"
         offset="0"
         id="stop951" />
      <stop
         style="stop-color:#ff6161;stop-opacity:0;"
         offset="1"
         id="stop953" />
    </linearGradient>
    <linearGradient
       inkscape:collect="always"
       xlink:href="#linearGradient955"
       id="linearGradient957"
       x1="104.67599"
       y1="237.55925"
       x2="95.25"
       y2="61.520832"
       gradientUnits="userSpaceOnUse" />
    <linearGradient
       inkscape:collect="always"
       xlink:href="#linearGradient1003"
       id="linearGradient1005"
       x1="151.56845"
       y1="78.907738"
       x2="147.7887"
       y2="86.089287"
       gradientUnits="userSpaceOnUse" />
    <linearGradient
       inkscape:collect="always"
       xlink:href="#linearGradient1011"
       id="linearGradient1013"
       x1="155.74519"
       y1="125.88749"
       x2="142.11905"
       y2="127.66666"
       gradientUnits="userSpaceOnUse" />
  </defs>
  <sodipodi:namedview
     id="base"
     pagecolor="#ffffff"
     bordercolor="#666666"
     borderopacity="1.0"
     inkscape:pageopacity="0.0"
     inkscape:pageshadow="2"
     inkscape:zoom="0.35"
     inkscape:cx="307.47601"
     inkscape:cy="354.25072"
     inkscape:document-units="mm"
     inkscape:current-layer="layer1"
     showgrid="false"
     inkscape:measure-start="534.286,422.857"
     inkscape:measure-end="471.429,462.857"
     inkscape:window-width="884"
     inkscape:window-height="795"
     inkscape:window-x="881"
     inkscape:window-y="252"
     inkscape:window-maximized="0"
     fit-margin-top="0"
     fit-margin-left="0"
     fit-margin-right="0"
     fit-margin-bottom="0" />
  <metadata
     id="metadata5">
    <rdf:RDF>
      <cc:Work
         rdf:about="">
        <dc:format>image/svg+xml</dc:format>
        <dc:type
           rdf:resource="http://purl.org/dc/dcmitype/StillImage" />
        <dc:title></dc:title>
      </cc:Work>
    </rdf:RDF>
  </metadata>
  <g
     inkscape:label="Layer 1"
     inkscape:groupmode="layer"
     id="layer1"
     transform="translate(-54.760151,-25.369456)">
    <path
       style="fill:#3e0088;fill-opacity:1;stroke-width:0.26458332"
       d="m 98.522871,28.504782 12.126709,0.156613 c 0,0 4.46871,32.004009 -0.47834,44.418042 -6.90667,17.331443 -37.98266,43.863683 -37.98266,43.863683 l -4.796646,46.47846 c 0,0 4.883266,25.12471 6.958775,37.75089 2.364728,14.38562 6.257239,43.28614 6.257239,43.28614 l -11.997009,-0.0649 c 0,0 -3.581796,-27.89375 -5.443703,-41.83126 -1.814974,-13.58619 -5.583299,-40.73984 -5.583299,-40.73984 l 0.0159,-29.98811 c 0,0 32.522286,-48.798633 40.020769,-67.583769 3.969244,-9.943719 0.902265,-35.745949 0.902265,-35.745949 z"
       id="rect837"
       inkscape:connector-curvature="0"
       sodipodi:nodetypes="ccsccaccaccscc" />
    <path
       style="fill:#96003f;fill-opacity:1;stroke-width:0.26458332"
       d="M 120.95018,164.24291 C 113.13321,196.75493 83.365884,220.60085 71.720363,201.12825 58.703799,179.36311 53.308767,165.72925 55.091332,131.17828 56.598675,101.96185 97.96973,59.86364 115.5401,74.061891 133.11048,88.26014 128.71875,130.73512 121.13949,163.441"
       id="path823"
       inkscape:connector-curvature="0"
       sodipodi:nodetypes="csssc" />
    <path
       style="fill:#960000;fill-opacity:1;stroke-width:0.26458332"
       d="m 174.32403,225.10021 c -14.81316,37.90425 -31.54189,35.34371 -50.03051,24.91855 -8.4648,-4.77305 -30.351519,-25.54931 -41.690737,-35.47572 C 58.109474,193.10147 69.693237,188.28335 82.475834,134.37687 94.116402,85.286562 108.4719,53.667447 149.72408,74.176032 c 41.25219,20.50859 45.41856,74.200208 24.59995,150.924178"
       id="path15"
       inkscape:connector-curvature="0"
       sodipodi:nodetypes="cssssc" />
    <path
       style="fill:url(#linearGradient1013);fill-opacity:1;stroke-width:0.26458332"
       d="m 177.45036,212.77191 c -9.70995,6.61419 -22.51067,-21.01518 -24.39089,-32.9693 -7.63375,-48.534 -5.69769,-66.8867 -1.34648,-82.619449 3.03918,-10.988808 2.15514,-34.506518 19.20163,-23.312215 17.04649,11.194303 11.12263,7.522397 14.11717,9.587905 9.93109,6.850028 3.2351,54.560709 0.84105,85.080929"
       id="path832"
       inkscape:connector-curvature="0"
       sodipodi:nodetypes="csszsc" />
    <path
       style="fill:url(#linearGradient1005);fill-opacity:1;stroke-width:0.26458332"
       d="m 201.96811,93.703406 c -1.14472,2.723053 -8.97457,-4.175645 -17.5889,-10.504196 -8.1228,-5.967437 -17.08978,-11.312698 -17.08978,-11.312698 -17.09761,-1.646745 -6.72995,22.52231 -22.88169,14.918699 -17.09447,-8.04741 -1.31271,-6.488873 -7.35379,-24.356183 -6.3564,-18.799916 -21.05357,-19.006518 -17.81012,-22.34566 12.31196,-12.67522 19.63592,4.476364 35.8043,14.375942 2.97723,1.822901 7.18307,5.025543 11.44584,6.935775 5.6262,2.521211 11.20406,5.907938 17.751,9.396081 7.63756,4.069214 13.13488,10.411262 21.99945,17.413215"
       id="path826"
       inkscape:connector-curvature="0"
       sodipodi:nodetypes="cssssssssc" />
    <path
       style="fill:#960000;fill-opacity:1;stroke-width:0.26458332"
       d="m 130.26597,76.033755 c -7.39213,18.062228 7.16672,15.746874 -9.39942,7.736232 -16.56614,-8.010645 -9.50871,-24.921479 -2.2288,-43.037973 3.86953,-9.629573 26.00784,-16.916753 40.18132,-15.077076 12.49165,1.62138 24.7629,32.950203 25.47462,45.21937 -5.40409,-2.815695 -5.32712,-2.83312 -17.90626,-9.452166 -2.5981,-7.43822 -0.13639,-12.077739 -11.05803,-16.632266 -11.05429,-4.609845 -20.93704,7.181688 -23.81926,14.488412"
       id="path829"
       inkscape:connector-curvature="0"
       sodipodi:nodetypes="csssccsc" />
    <path
       style="fill:#96003f;fill-opacity:1;stroke-width:0.26458332"
       id="path835"
       sodipodi:type="arc"
       sodipodi:cx="181.23958"
       sodipodi:cy="108.57887"
       sodipodi:rx="3.2127976"
       sodipodi:ry="7.7485118"
       sodipodi:start="0.42026656"
       sodipodi:end="0.40671757"
       sodipodi:open="true"
       d="m 184.1728,111.7403 a 3.2127976,7.7485118 0 0 1 -4.23411,3.92348 3.2127976,7.7485118 0 0 1 -1.64115,-10.19833 3.2127976,7.7485118 0 0 1 4.223,-3.99258 3.2127976,7.7485118 0 0 1 1.66975,10.17129" />
    <path
       style="fill:url(#linearGradient957);fill-opacity:1;stroke-width:0.26458332"
       d="m 85.640012,156.98566 c 7.077508,22.1527 13.196658,37.8418 28.791838,66.6679 -9.92831,-14.88849 -9.64498,-13.26958 -13.33009,-20.55814 -7.121783,-14.0857 -16.499804,-45.20724 -16.724217,-44.29946 -2.519361,10.19116 -5.291015,30.44804 -5.32259,31.04081 -0.188798,3.54433 0.975971,10.59856 4.092684,14.56192 8.870163,11.27973 13.220041,12.54495 23.607233,29.3808 -7.755676,-6.97665 -22.207149,-24.7829 -26.46254,-28.50345 -10.502237,-9.18227 7.721069,-66.54803 12.336225,-87.3142 4.615154,-20.766164 14.195725,-50.027761 24.729225,-40.986181 5.38813,4.624975 -2.30372,-3.537338 -9.88435,7.144661 -6.13983,8.651743 -12.466139,33.41185 -15.485273,46.1357 -0.184484,0.77749 20.241673,36.86069 21.591593,46.25629 0.19779,1.37662 -22.315832,-44.11976 -22.537841,-43.10214"
       id="path932"
       inkscape:connector-curvature="0"
       sodipodi:nodetypes="ccassscssssssc" />
    <path
       sodipodi:nodetypes="ccsccaccaccscc"
       inkscape:connector-curvature="0"
       id="path4502"
       d="m 98.522871,28.504782 12.126709,0.156613 c 0,0 4.46871,32.004009 -0.47834,44.418042 -6.90667,17.331443 -37.98266,43.863683 -37.98266,43.863683 l -4.796646,46.47846 c 0,0 4.883266,25.12471 6.958775,37.75089 2.364728,14.38562 6.257239,43.28614 6.257239,43.28614 l -11.997009,-0.0649 c 0,0 -3.581796,-27.89375 -5.443703,-41.83126 -1.814974,-13.58619 -5.583299,-40.73984 -5.583299,-40.73984 l 0.0159,-29.98811 c 0,0 32.522286,-48.798633 40.020769,-67.583769 3.969244,-9.943719 0.902265,-35.745949 0.902265,-35.745949 z"
       style="fill:#3e0088;fill-opacity:1;stroke-width:0.26458332" />
  </g>
</svg>
