<?xml version="1.0" encoding="UTF-8" standalone="no"?>
<svg
   xmlns:dc="http://purl.org/dc/elements/1.1/"
   xmlns:cc="http://creativecommons.org/ns#"
   xmlns:rdf="http://www.w3.org/1999/02/22-rdf-syntax-ns#"
   xmlns:svg="http://www.w3.org/2000/svg"
   xmlns="http://www.w3.org/2000/svg"
   xmlns:sodipodi="http://sodipodi.sourceforge.net/DTD/sodipodi-0.dtd"
   xmlns:inkscape="http://www.inkscape.org/namespaces/inkscape"
   version="1.0"
   width="64.000000pt"
   height="64.000000pt"
   viewBox="0 0 64.000000 64.000000"
   preserveAspectRatio="xMidYMid meet"
   id="svg8"
   sodipodi:docname="masterKey.svg"
   inkscape:version="0.92.1 r15371">
  <defs
     id="defs12" />
  <sodipodi:namedview
     pagecolor="#ffffff"
     bordercolor="#666666"
     borderopacity="1"
     objecttolerance="10"
     gridtolerance="10"
     guidetolerance="10"
     inkscape:pageopacity="0"
     inkscape:pageshadow="2"
     inkscape:window-width="1920"
     inkscape:window-height="1056"
     id="namedview10"
     showgrid="false"
     inkscape:pagecheckerboard="true"
     inkscape:zoom="5.6568543"
     inkscape:cx="-17.454396"
     inkscape:cy="64.058218"
     inkscape:window-x="0"
     inkscape:window-y="24"
     inkscape:window-maximized="1"
     inkscape:current-layer="svg8" />
  <metadata
     id="metadata2">
Created by potrace 1.13, written by Peter Selinger 2001-2015
<rdf:RDF>
  <cc:Work
     rdf:about="">
    <dc:format>image/svg+xml</dc:format>
    <dc:type
       rdf:resource="http://purl.org/dc/dcmitype/StillImage" />
    <dc:title />
  </cc:Work>
</rdf:RDF>
</metadata>
  <g
     transform="translate(0.000000,64.000000) scale(0.100000,-0.100000)"
     id="g6"
     stroke="none"
     fill="#ffffff"
     style="fill:#b3b3b3">
    <path
       style="fill:#b3b3b3;stroke-width:0.13333334"
       d="M 61.800781,3.625 C 61.232077,3.640062 53.350872,7.1480987 52.563372,7.4230987 48.130451,10.849703 47.242571,11.045214 47.037616,20.207735 l 0.565339,10.490403 c -8.264337,13.640743 -22.897041,26.985577 -28.534831,42.087396 0,0.4 1.465209,1.880482 6.931876,1.880482 8.666667,0 8.146342,-0.0094 8.977292,-1.887084 1.025225,-4.116777 18.056729,-32.075102 18.230482,-32.104361 8.175179,-4.924076 19.892888,-12.348284 27.128164,-16.317149 1.267365,-2.95576 -0.07885,-7.726505 -0.6875,-12.054688 C 75.604584,10.097689 66.085461,3.8435347 61.800781,3.625 Z m 4.844208,14.955989 -5.037166,2.809375 0.105944,-5.766663 z"
       id="path4"
       inkscape:connector-curvature="0"
       sodipodi:nodetypes="cccccsccccccccc"
       transform="matrix(7.4999998,0,0,-7.4999998,0,640)" />
  </g>
  <path
     sodipodi:nodetypes="cccccccscccccccccccccccccscccccsccsscsccscc"
     style="fill:#666666;fill-opacity:1;stroke:none;stroke-width:0.1"
     id="path4-3"
     d="m 40,4.2 -6,2.2 0.3,8 0.3,8 -11.4,16.5 -11.5,16.5 6.2,0.8 8.842725,0.617157 c 0.171866,0.01199 2.283264,-0.138815 2.283264,-0.138815 l -0.505955,-2.636029 2.876307,-1.314275 -0.682765,-3.083445 3.07314,-1.016662 -0.516657,-3.150954 3.198346,-1.242798 -0.956563,-3.392357 3.333358,-1.126896 -0.930288,-3.634358 3.021287,-1.71749 c 0,0 -1.717802,-2.141915 -1.206786,-3.232893 0.312143,-1.148982 1.654105,0.09867 2.654105,0.498663 0.9,0.3 1.916484,0.07115 3.316484,-1.728848 1.2,-1.7 5.2,-4.8 8.8,-7 L 61.2,19 60.7,13.7 C 60.5,10.8 60,8.1 59.6,7.7 59.1,7.2 46.3,1.8 46.1,2 46,2 43.3,3 40,4.2 Z m 10.459322,2.208475 c 4.4,1.8 6.837288,5.69322 7.379661,10.442372 C 55.058234,20.430365 48.129664,22.758682 43.9,27.2 c -0.4,1.2 -1.2,1.5 -2.8,1.1 -2,-0.5 -1.789151,-0.227334 -4.689151,5.772666 -3.27584,6.647451 -6.615861,12.612904 -10.705215,20.271835 -0.220984,0.631384 -2.750942,0.519773 -4.384669,0.569649 -1.103327,0.03368 16.10888,-26.762016 16.10888,-26.762016 0.32269,-0.516502 -0.209381,-2.328661 -0.209381,-2.328661 0,0 -19.178905,28.887104 -19.972902,28.638524 -1.152808,-0.360915 -1.650842,-0.561688 -1.650842,-1.038784 0,0 15.529652,-20.192215 20.30328,-27.723213 1.1,-1.6 1.6,-4.6 1.6,-9.9 V 8.2 C 43.411724,5.904406 46.198273,4.565838 50.459322,6.408475 Z"
     inkscape:connector-curvature="0" />
  <g
     id="g3718"
     transform="rotate(30.951408,44.10878,20.939575)"
     style="fill:#808000">
    <path
       inkscape:connector-curvature="0"
       id="rect11"
       d="m 41.23252,11.911504 -2.15625,3.75 h 4.3125 z"
       style="opacity:1;vector-effect:none;fill:#666666;fill-opacity:1;stroke:none;stroke-width:464.38122559px;stroke-linecap:butt;stroke-linejoin:round;stroke-miterlimit:4;stroke-dasharray:none;stroke-dashoffset:0;stroke-opacity:1" />
    <path
       inkscape:connector-curvature="0"
       id="rect11-3"
       d="m 45.54502,11.911504 -2.15625,3.75 h 4.3125 z"
       style="opacity:1;vector-effect:none;fill:#666666;fill-opacity:1;stroke:none;stroke-width:464.38122559px;stroke-linecap:butt;stroke-linejoin:round;stroke-miterlimit:4;stroke-dasharray:none;stroke-dashoffset:0;stroke-opacity:1" />
    <path
       inkscape:connector-curvature="0"
       id="rect11-3-6"
       d="m 43.38877,8.161504 -2.15625,3.75 h 4.3125 z"
       style="opacity:1;vector-effect:none;fill:#666666;fill-opacity:1;stroke:none;stroke-width:464.38122559px;stroke-linecap:butt;stroke-linejoin:round;stroke-miterlimit:4;stroke-dasharray:none;stroke-dashoffset:0;stroke-opacity:1" />
  </g>
</svg>
