<?xml version="1.0" encoding="UTF-8" standalone="no"?>
<!-- Created with Inkscape (http://www.inkscape.org/) -->

<svg
   xmlns:dc="http://purl.org/dc/elements/1.1/"
   xmlns:cc="http://creativecommons.org/ns#"
   xmlns:rdf="http://www.w3.org/1999/02/22-rdf-syntax-ns#"
   xmlns:svg="http://www.w3.org/2000/svg"
   xmlns="http://www.w3.org/2000/svg"
   xmlns:sodipodi="http://sodipodi.sourceforge.net/DTD/sodipodi-0.dtd"
   xmlns:inkscape="http://www.inkscape.org/namespaces/inkscape"
   width="100mm"
   height="100mm"
   viewBox="0 0 99.999999 100"
   version="1.1"
   id="svg8"
   inkscape:version="0.92.2 (5c3e80d, 2017-08-06)"
   sodipodi:docname="shockCollar.svg">
  <defs
     id="defs2" />
  <sodipodi:namedview
     id="base"
     pagecolor="#ffffff"
     bordercolor="#666666"
     borderopacity="1.0"
     inkscape:pageopacity="0.0"
     inkscape:pageshadow="2"
     inkscape:zoom="1"
     inkscape:cx="230.43358"
     inkscape:cy="148.2373"
     inkscape:document-units="mm"
     inkscape:current-layer="layer1"
     showgrid="false"
     inkscape:pagecheckerboard="true"
     inkscape:window-width="1920"
     inkscape:window-height="1056"
     inkscape:window-x="0"
     inkscape:window-y="24"
     inkscape:window-maximized="1"
     inkscape:snap-page="true"
     fit-margin-top="0"
     fit-margin-left="0"
     fit-margin-right="0"
     fit-margin-bottom="0" />
  <metadata
     id="metadata5">
    <rdf:RDF>
      <cc:Work
         rdf:about="">
        <dc:format>image/svg+xml</dc:format>
        <dc:type
           rdf:resource="http://purl.org/dc/dcmitype/StillImage" />
        <dc:title></dc:title>
      </cc:Work>
    </rdf:RDF>
  </metadata>
  <g
     inkscape:label="Layer 1"
     inkscape:groupmode="layer"
     id="layer1"
     transform="translate(-28.740651,-147.0794)">
    <g
       id="g4592"
       transform="matrix(2.1372973,0,0,2.1372973,-32.686665,-311.2678)">
      <path
         sodipodi:nodetypes="ssccssccs"
         inkscape:connector-curvature="0"
         id="rect4532-5"
         d="m 38.18674,235.41099 8.302416,0.0604 c 1.484074,0.0108 3.616617,1.47839 3.560351,2.15628 l -0.699641,8.42941 c -0.05626,0.67788 -1.292259,1.12479 -2.771287,1.00203 l -9.294603,-0.77146 c -1.479029,-0.12276 -3.740642,-1.43705 -3.684376,-2.11494 l 1.815852,-7.75968 c 0.05626,-0.67788 1.287212,-1.01283 2.771288,-1.00203 z"
         style="opacity:1;vector-effect:none;fill:#1a1a1a;fill-opacity:1;stroke:none;stroke-width:183.91615295px;stroke-linecap:butt;stroke-linejoin:round;stroke-miterlimit:4;stroke-dasharray:none;stroke-dashoffset:0;stroke-opacity:1" />
      <path
         transform="matrix(0.26458333,0,0,0.26458333,0,197)"
         sodipodi:nodetypes="cccccc"
         inkscape:connector-curvature="0"
         id="path4501"
         d="m 108.62687,134.19495 0.40099,19.21964 c 5.80754,-26.82259 176.0383,-24.97874 175.84128,-3.05717 l 0.57557,-16.15471 c 1.3051,-19.56485 -174.44185,-19.69497 -176.81784,-0.008 z"
         style="opacity:1;vector-effect:none;fill:#151515;fill-opacity:1;stroke:none;stroke-width:684.50317383px;stroke-linecap:butt;stroke-linejoin:round;stroke-miterlimit:4;stroke-dasharray:none;stroke-dashoffset:0;stroke-opacity:1" />
      <path
         sodipodi:nodetypes="ccccc"
         inkscape:connector-curvature="0"
         id="rect4527"
         d="m 28.740651,232.5114 c 0.905132,10.42522 47.220927,9.18441 46.785005,0 l -0.15403,4.27067 c 1.056695,10.01401 -44.980627,11.37489 -46.524672,0.80887 z"
         style="opacity:1;vector-effect:none;fill:#333333;fill-opacity:1;stroke:none;stroke-width:181.24107361px;stroke-linecap:butt;stroke-linejoin:round;stroke-miterlimit:4;stroke-dasharray:none;stroke-dashoffset:0;stroke-opacity:1" />
      <path
         sodipodi:nodetypes="ssccssccs"
         inkscape:connector-curvature="0"
         id="rect4532"
         d="m 37.604236,235.36989 8.302416,0.0604 c 1.484074,0.0108 3.616617,1.47839 3.560351,2.15628 l -0.699641,8.42941 c -0.05626,0.67788 -1.292259,1.12479 -2.771287,1.00203 l -9.294603,-0.77146 c -1.479029,-0.12276 -3.740642,-1.43705 -3.684376,-2.11494 l 1.815852,-7.75968 c 0.05626,-0.67788 1.287212,-1.01283 2.771288,-1.00203 z"
         style="opacity:1;vector-effect:none;fill:#1a1a1a;fill-opacity:1;stroke:none;stroke-width:183.91615295px;stroke-linecap:butt;stroke-linejoin:round;stroke-miterlimit:4;stroke-dasharray:none;stroke-dashoffset:0;stroke-opacity:1" />
      <path
         inkscape:connector-curvature="0"
         id="rect4532-7"
         d="m 36.479756,234.60921 9.294603,0.77146 c 1.479028,0.12276 2.62443,0.76732 2.568164,1.44521 l -0.699641,8.42941 c -0.05626,0.67788 -1.292259,1.12479 -2.771287,1.00203 l -9.294603,-0.77146 c -1.479029,-0.12276 -2.624431,-0.76732 -2.568165,-1.44521 l 0.699641,-8.42941 c 0.05626,-0.67788 1.292259,-1.12479 2.771288,-1.00203 z"
         style="opacity:1;vector-effect:none;fill:#1e1e1e;fill-opacity:1;stroke:none;stroke-width:183.91615295px;stroke-linecap:butt;stroke-linejoin:round;stroke-miterlimit:4;stroke-dasharray:none;stroke-dashoffset:0;stroke-opacity:1" />
      <path
         d="m 43.556841,242.01769 a 3.2411458,3.1253905 0 0 1 -4.226437,1.25578 3.2411458,3.1253905 0 0 1 -1.591128,-3.97901 3.2411458,3.1253905 0 0 1 4.006613,-1.8055 3.2411458,3.1253905 0 0 1 2.144667,3.72957"
         sodipodi:open="true"
         sodipodi:end="0.24453459"
         sodipodi:start="0.52106805"
         sodipodi:ry="3.1253905"
         sodipodi:rx="3.2411458"
         sodipodi:cy="240.46185"
         sodipodi:cx="40.745834"
         sodipodi:type="arc"
         id="path4568"
         style="opacity:1;vector-effect:none;fill:#222222;fill-opacity:1;stroke:none;stroke-width:181.10812378px;stroke-linecap:butt;stroke-linejoin:round;stroke-miterlimit:4;stroke-dasharray:none;stroke-dashoffset:0;stroke-opacity:1" />
      <path
         d="m 42.925799,241.77073 a 2.5135415,2.6292968 0 0 1 -3.277645,1.05645 2.5135415,2.6292968 0 0 1 -1.233936,-3.34742 2.5135415,2.6292968 0 0 1 3.107169,-1.51892 2.5135415,2.6292968 0 0 1 1.663211,3.13758"
         sodipodi:open="true"
         sodipodi:end="0.24453459"
         sodipodi:start="0.52106805"
         sodipodi:ry="2.6292968"
         sodipodi:rx="2.5135415"
         sodipodi:cy="240.46185"
         sodipodi:cx="40.745834"
         sodipodi:type="arc"
         id="path4568-3"
         style="opacity:1;vector-effect:none;fill:#008100;fill-opacity:1;stroke:none;stroke-width:146.28485107px;stroke-linecap:butt;stroke-linejoin:round;stroke-miterlimit:4;stroke-dasharray:none;stroke-dashoffset:0;stroke-opacity:1" />
    </g>
  </g>
</svg>
