<?xml version="1.0" encoding="UTF-8" standalone="no"?>
<svg
   xmlns:dc="http://purl.org/dc/elements/1.1/"
   xmlns:cc="http://creativecommons.org/ns#"
   xmlns:rdf="http://www.w3.org/1999/02/22-rdf-syntax-ns#"
   xmlns:svg="http://www.w3.org/2000/svg"
   xmlns="http://www.w3.org/2000/svg"
   xmlns:sodipodi="http://sodipodi.sourceforge.net/DTD/sodipodi-0.dtd"
   xmlns:inkscape="http://www.inkscape.org/namespaces/inkscape"
   version="1.0"
   width="64.000000pt"
   height="64.000000pt"
   viewBox="0 0 64.000000 64.000000"
   preserveAspectRatio="xMidYMid meet"
   id="svg8"
   sodipodi:docname="remmyApartmentLocationKey.svg"
   inkscape:version="0.92.1 r15371">
  <defs
     id="defs12" />
  <sodipodi:namedview
     pagecolor="#ffffff"
     bordercolor="#666666"
     borderopacity="1"
     objecttolerance="10"
     gridtolerance="10"
     guidetolerance="10"
     inkscape:pageopacity="0"
     inkscape:pageshadow="2"
     inkscape:window-width="1920"
     inkscape:window-height="1056"
     id="namedview10"
     showgrid="false"
     inkscape:pagecheckerboard="true"
     inkscape:zoom="22.125"
     inkscape:cx="72.708427"
     inkscape:cy="52.404324"
     inkscape:window-x="0"
     inkscape:window-y="24"
     inkscape:window-maximized="1"
     inkscape:current-layer="svg8" />
  <metadata
     id="metadata2">
Created by potrace 1.13, written by Peter Selinger 2001-2015
<rdf:RDF>
  <cc:Work
     rdf:about="">
    <dc:format>image/svg+xml</dc:format>
    <dc:type
       rdf:resource="http://purl.org/dc/dcmitype/StillImage" />
    <dc:title></dc:title>
  </cc:Work>
</rdf:RDF>
</metadata>
  <g
     transform="translate(0.000000,64.000000) scale(0.100000,-0.100000)"
     fill="#ffffff"
     stroke="none"
     id="g6">
    <path
       style="stroke-width:0.13333334"
       d="M 61.800781,3.625 C 61.232077,3.640062 53.350872,7.1480987 52.563372,7.4230987 48.130451,10.849703 47.242571,11.045214 47.037616,20.207735 l 0.565339,10.490403 c -8.264337,13.640743 -22.897041,26.985577 -28.534831,42.087396 0,0.4 1.465209,1.880482 6.931876,1.880482 8.666667,0 7.44323,-0.329023 8.27418,-2.20668 1.025225,-4.116777 18.759841,-31.755506 18.933594,-31.784765 8.175179,-4.924076 19.892888,-12.348284 27.128164,-16.317149 1.267365,-2.95576 -0.07885,-7.726505 -0.6875,-12.054688 C 75.604584,10.097689 66.085461,3.8435347 61.800781,3.625 Z m 3.722437,11.537264 c 6.066878,3.674957 3.787003,6.828526 -1.267082,5.005741 -5.439531,-1.915327 -6.942621,-9.978694 1.267082,-5.005741 z"
       id="path4"
       inkscape:connector-curvature="0"
       sodipodi:nodetypes="cccccscccccscs"
       transform="matrix(7.4999998,0,0,-7.4999998,0,640)" />
  </g>
  <g
     style="fill:#999999;stroke:none;fill-opacity:1"
     transform="matrix(0.1,0,0,-0.1,0.5,63.9)"
     id="g8">
    <path
       inkscape:connector-curvature="0"
       d="m 395,597 -60,-22 3,-80 3,-80 L 227,250 112,85 174,77 c 67,-8 136.95166,5.590655 138.03554,14.266711 1.25319,10.031379 -29.3087,26.388679 -20.57791,43.224819 9.95902,19.20462 60.20735,-6.46727 67.29209,13.87172 0,0 -52.03519,20.55897 -47.47587,31.59287 9.72139,23.52647 51.31569,-3.47144 56.71101,12.08509 0,0 -41.76359,15.81324 -34.34991,29.75075 9.80591,18.43486 47.97901,-17.72047 58.07657,1.08441 0,0 -54.60671,15.29705 -41.08914,38.32548 6.34298,10.80586 40.79064,-14.01057 44.42976,-2.28427 0,0 -32.83629,16.90779 -27.59882,30.7788 C 372.37341,302.72684 400,288 400,301 c 0,15 5,19 15,15 9,-3 23,6 37,24 12,17 52,48 88,70 l 67,39 -5,53 c -2,29 -7,56 -11,60 -5,5 -133,59 -135,57 -1,0 -28,-10 -61,-22 z m 104.59322,-22.08475 c 44,-18 68.37288,-56.9322 73.79661,-104.42372 C 545.58234,434.69635 476.29664,411.41318 434,367 c -4,-12 -12,-15 -28,-11 -20,5 -27,-3 -56,-63 -19,-37 -48,-88 -65,-113 -18,-25 -29.94366,-75.44501 -32.94366,-84.445006 -2.20984,-6.313847 -27.50942,-5.19773 -43.84669,-5.696496 -11.03327,-0.336839 161.0888,267.620162 161.0888,267.620162 3.2269,5.16502 -2.09381,23.28661 -2.09381,23.28661 0,0 -191.78905,-288.871042 -199.72902,-286.385238 -11.52808,3.609151 -16.50842,5.616879 -16.50842,10.387838 0,0 155.29652,201.92215 203.0328,277.23213 11,16 16,46 16,99 v 76 c 59.11724,22.95594 86.98273,36.34162 129.59322,17.91525 z"
       id="path4-3"
       style="fill:#999999;fill-opacity:1"
       sodipodi:nodetypes="cccccccssssssssssscccccscccccscccsscsccscc" />
    <path
       inkscape:connector-curvature="0"
       d="m 435.83516,533.79394 c -10.97327,-30.65489 60.35709,-74.29403 83.23212,-51.12363 12.03831,12.19375 -13.05602,34.1791 -27.46425,43.45332 -15.77825,10.15607 -49.44394,25.33685 -55.76787,7.67031 z m 73.68544,-42.83515 c -5.44841,-10.35899 -22.58057,6.97998 -32.61816,13 -10.83865,6.50046 -36.15869,14.06618 -28.96982,24.461 7.27454,10.51869 22.59598,-12.01911 33.50557,-18.69313 9.60421,-5.87544 33.32341,-8.80325 28.08241,-18.76787 z"
       id="path6"
       style="fill:#999999;fill-opacity:1"
       sodipodi:nodetypes="aaaaaaaaa" />
  </g>
  <text
     xml:space="preserve"
     style="font-style:normal;font-weight:normal;font-size:3.52167368px;line-height:125%;font-family:sans-serif;letter-spacing:0px;word-spacing:0px;fill:#cccccc;fill-opacity:1;stroke:none;stroke-width:0.08804184px;stroke-linecap:butt;stroke-linejoin:miter;stroke-opacity:1;"
     x="37.844143"
     y="-11.190507"
     id="text4494"
     transform="matrix(0.83903088,0.58124175,-0.72123755,0.69221127,0,0)"><tspan
       sodipodi:role="line"
       id="tspan4492"
       x="37.844143"
       y="-11.190507"
       style="stroke-width:0.08804184px;fill:#cccccc;">W001</tspan></text>
</svg>
