<?xml version="1.0" encoding="UTF-8" standalone="no"?>
<svg
   xmlns:dc="http://purl.org/dc/elements/1.1/"
   xmlns:cc="http://creativecommons.org/ns#"
   xmlns:rdf="http://www.w3.org/1999/02/22-rdf-syntax-ns#"
   xmlns:svg="http://www.w3.org/2000/svg"
   xmlns="http://www.w3.org/2000/svg"
   xmlns:sodipodi="http://sodipodi.sourceforge.net/DTD/sodipodi-0.dtd"
   xmlns:inkscape="http://www.inkscape.org/namespaces/inkscape"
   version="1.0"
   width="151.000000pt"
   height="184.000000pt"
   viewBox="0 0 151.000000 184.000000"
   preserveAspectRatio="xMidYMid meet"
   id="svg34"
   sodipodi:docname="Pandora-bg.svg.2017_09_16_23_56_59.0.svg"
   inkscape:version="0.92.1 r15371">
  <defs
     id="defs38" />
  <sodipodi:namedview
     pagecolor="#ffffff"
     bordercolor="#666666"
     borderopacity="1"
     objecttolerance="10"
     gridtolerance="10"
     guidetolerance="10"
     inkscape:pageopacity="0"
     inkscape:pageshadow="2"
     inkscape:window-width="742"
     inkscape:window-height="480"
     id="namedview36"
     showgrid="false"
     showguides="false"
     inkscape:pagecheckerboard="true"
     inkscape:zoom="1.923913"
     inkscape:cx="53.971288"
     inkscape:cy="160.35367"
     inkscape:window-x="710"
     inkscape:window-y="472"
     inkscape:window-maximized="0"
     inkscape:current-layer="svg34" />
  <metadata
     id="metadata28">
Created by potrace 1.13, written by Peter Selinger 2001-2015
<rdf:RDF>
  <cc:Work
     rdf:about="">
    <dc:format>image/svg+xml</dc:format>
    <dc:type
       rdf:resource="http://purl.org/dc/dcmitype/StillImage" />
    <dc:title></dc:title>
  </cc:Work>
</rdf:RDF>
</metadata>
  <g
     transform="translate(0.000000,184.000000) scale(0.100000,-0.100000)"
     fill="#ffffff"
     stroke="none"
     id="g32">
    <path
       d="M 1007,1540 H 881 c -74,0 -163,-7 -215,-16 l -89,-17 c -109.41782,-77.8594 -156.27229,-120.2051 -216.21741,-219.9739 -16,-53 -1.37826,-12.4044 -17.37826,-65.4044 l -43.75652,-92.1347 c -56,-122 -74.1087,-147.487 -124.1087,-155.487 -28.24348,-24.29563 -52.64781,-18.51304 -60.64781,-38.51304 -27.000005,-72 42,-184.35218 173,-295.35218 49,-42 102.37825,-83.37826 116.37825,-89.37826 26,-12 26,-10.62174 22,-111.62174 -4,-81 -8.62174,-120.64782 -29.62174,-167.64782 -46,-100 -58.75651,-110 -224.75651,-193.999996 L 38,2 H 386 C 592,1 927,1 1130,2 L 1479.0152,2.243482 1381,98 C 1312.5544,145.17609 1243.5544,201.1087 1223.5544,221.1087 1182.5544,264.1087 1160,348 1160,426 v 52 l 66.7978,53.26955 c 125,78 232.1761,210.73045 232.1761,290.73045 0,11 -14.5543,59.93261 -36.5543,109.93261 -21,50 -51.3783,118.62179 -64.3783,154.62179 -13,36 -27.6891,71.3108 -31.6891,79.3108 -89,183 -82.7301,177.6594 -99.337,207.8087 C 1182.5964,1457.2825 1091.1313,2182.3798 1007,1540 Z"
       id="path30"
       inkscape:connector-curvature="0"
       sodipodi:nodetypes="csccccccccccccccccccsccscsccc" />
  </g>
  <g
     style="fill:#e4822c;stroke:none"
     transform="matrix(0.1,0,0,-0.1,0,184)"
     id="g20">
    <path
       inkscape:connector-curvature="0"
       d="m 1050,1806 c -5,-13 -13,-58 -19,-101 -6,-42 -13,-81 -16,-86 -3,-4 -6,-24 -7,-44 l -1,-35 H 881 c -112,0 -153,-4 -276,-26 -28,-5 -36,1 -110,85 -43,50 -92,113 -108,139 -51,83 -69,88 -126,37 -43,-39 -77,-109 -92,-191 -9,-49 -8,-60 15,-109 26,-57 80,-105 142,-125 36,-12 40,-23 24,-66 l -11,-27 -23,22 c -34,32 -45,7 -13,-27 l 26,-27 -34,-77 C 236,1014 205,979 135,968 82,959 94,858 159,762 199,704 346,571 394,549 419,537 420,533 420,459 420,370 395,277 352,210 326,169 308,157 167,85 39,20 15,4 38,2 56,-1 97,15 163,49 l 98,51 32,-37 c 18,-20 37,-43 43,-51 6,-8 18,-13 28,-11 15,3 10,14 -30,58 -36,40 -45,56 -34,59 8,3 32,23 52,45 l 37,40 38,-18 c 75,-36 193,-28 193,13 0,9 -27,41 -60,71 -81,70 -112,132 -109,214 2,46 -1,62 -12,65 -8,3 -34,19 -59,35 -125,85 -243,235 -244,310 -1,54 21,59 51,12 28,-43 70,-65 139,-72 66,-7 81,13 42,55 -31,33 -74,108 -82,144 -7,30 9,49 16,20 7,-25 76,-58 91,-43 8,8 5,23 -11,54 -12,25 -22,56 -22,70 0,14 -5,27 -11,29 -7,2 -9,13 -5,26 6,18 11,20 26,12 10,-6 31,-10 47,-10 26,0 28,-3 30,-44 3,-86 65,-160 157,-189 61,-20 182,-75 237,-109 54,-33 69,-21 69,54 -1,74 -16,121 -54,171 -36,47 -131,110 -206,138 -66,24 -95,59 -106,130 -7,41 -20,51 -31,22 -6,-14 5,-52 32,-115 5,-14 2,-18 -14,-18 -12,0 -21,4 -21,8 0,4 -15,13 -32,20 -58,21 -82,46 -74,75 9,37 68,93 124,119 26,12 51,23 55,26 5,2 4,-5 -2,-16 -28,-52 4,-102 64,-102 64,0 97,65 60,117 -15,21 -14,22 27,28 24,3 113,5 198,3 l 155,-3 v -27 c 1,-37 21,-56 63,-60 27,-2 38,-8 40,-22 3,-14 0,-17 -12,-13 -19,8 -64,-8 -88,-30 -29,-26 -9,-34 33,-13 33,17 43,19 62,8 12,-7 25,-11 29,-10 4,1 17,-17 29,-39 l 21,-42 -21,-26 c -73,-92 -92,-165 -82,-311 5,-60 9,-75 23,-78 11,-2 24,10 38,39 12,23 40,64 61,91 30,39 39,59 39,89 0,47 16,51 25,7 4,-18 27,-77 51,-132 24,-54 44,-107 44,-118 0,-32 -49,-118 -97,-169 -42,-45 -172,-136 -217,-153 -27,-9 -5,-30 23,-21 42,13 168,104 219,158 56,60 102,145 102,188 0,15 -16,62 -36,105 -20,44 -48,113 -64,154 -15,41 -30,83 -35,93 -5,12 -3,17 9,17 31,0 75,30 92,61 23,45 2,60 -23,17 -13,-22 -32,-37 -56,-45 -46,-14 -55,-2 -23,30 28,28 42,68 32,93 -8,21 -26,8 -26,-20 0,-13 -9,-31 -21,-42 l -21,-19 3,44 c 4,48 -14,68 -26,31 -7,-21 -8,-20 -27,11 l -21,34 22,37 c 33,58 30,158 -9,235 -32,63 -136,173 -165,173 -8,0 -20,-11 -25,-24 z M 460,1224 c 0,-8 -65,-3 -79,5 -8,5 -11,16 -6,30 6,20 6,20 46,-6 21,-14 39,-27 39,-29 z m 824,-89 c -4,-81 -14,-107 -63,-169 -27,-33 -31,-36 -31,-17 0,12 4,20 10,16 16,-10 40,52 40,105 0,38 -4,52 -16,57 -14,5 -9,13 22,44 22,20 40,37 41,38 0,1 -1,-33 -3,-74 z m -604,30 c 105,-53 111,-60 108,-121 -3,-60 -16,-71 -36,-30 -9,19 -10,35 -3,61 6,23 6,37 -1,41 -18,11 -30,-14 -31,-65 -1,-41 4,-56 24,-77 l 24,-26 -30,7 c -101,24 -207,74 -230,109 -23,34 -35,86 -28,114 6,24 8,24 77,20 51,-4 86,-13 126,-33 z m 530,-98 c 0,-24 -7,-52 -15,-63 -13,-17 -14,-16 -9,21 12,94 24,114 24,42 z m -349,-61 c 23,-50 25,-91 5,-83 -8,3 -31,9 -50,13 l -36,6 20,25 c 11,14 20,41 20,60 0,43 15,35 41,-21 z"
       id="path4" />
    <path
       inkscape:connector-curvature="0"
       d="m 703,1360 c -58,-33 -70,-47 -55,-62 7,-7 23,0 50,22 52,41 109,50 136,21 22,-24 46,-28 46,-7 0,20 -62,56 -96,56 -16,0 -52,-14 -81,-30 z"
       id="path6" />
    <path
       inkscape:connector-curvature="0"
       d="m 1140,779 c -14,-4 -70,-8 -125,-8 -159,-2 -168,-32 -26,-88 l 82,-33 72,48 c 47,32 73,56 75,70 3,19 -1,22 -25,20 -15,-1 -39,-5 -53,-9 z m -32,-68 -43,-28 -55,24 c -29,13 -56,26 -59,28 -2,3 41,5 98,4 l 102,-1 z"
       id="path8" />
    <path
       inkscape:connector-curvature="0"
       d="m 535,728 c -111,-60 5,-186 194,-210 42,-5 90,-16 108,-25 30,-14 34,-14 62,6 16,12 32,17 35,13 3,-5 37,-4 78,3 40,7 78,11 85,8 6,-3 22,2 34,10 12,9 27,13 33,11 20,-8 118,69 138,107 21,42 16,67 -18,75 -31,8 -79,-9 -150,-53 -89,-54 -145,-52 -339,15 -152,53 -219,63 -260,40 z m 70,-136 c -8,-9 -67,32 -77,53 -9,20 -8,29 7,45 17,19 18,19 45,-38 15,-31 26,-58 25,-60 z m 93,97 c 99,-37 276,-88 307,-89 22,0 33,-7 42,-25 10,-22 9,-25 -10,-25 -12,0 -33,-3 -47,-6 -24,-6 -24,-6 -5,9 14,11 17,19 10,26 -7,7 -30,-2 -72,-29 l -62,-39 -26,31 c -14,17 -35,48 -46,69 -11,22 -24,39 -29,39 -6,0 -32,-16 -60,-36 l -49,-35 -31,60 c -16,33 -30,63 -30,66 0,12 54,4 108,-16 z m 586,3 c 8,-13 -30,-63 -65,-86 l -34,-21 23,37 c 13,21 20,43 16,49 -3,6 0,15 7,20 18,11 46,12 53,1 z m -102,-54 c -17,-24 -41,-53 -55,-66 l -25,-23 -21,28 -22,27 28,11 c 15,5 39,17 53,26 27,18 63,38 68,39 2,0 -10,-19 -26,-42 z M 771,583 c 7,-16 15,-31 17,-36 2,-4 -16,-5 -40,-1 -72,10 -75,12 -37,39 43,30 43,30 60,-2 z"
       id="path10" />
    <path
       inkscape:connector-curvature="0"
       d="m 1133,433 c -7,-18 31,-181 46,-196 5,-5 14,-7 19,-3 6,4 1,35 -14,81 -13,42 -24,89 -24,105 0,33 -17,40 -27,13 z"
       id="path12" />
    <path
       inkscape:connector-curvature="0"
       d="m 1033,313 c -19,-58 -50,-107 -86,-138 -32,-27 -38,-38 -29,-47 17,-17 117,87 127,133 l 8,34 13,-30 c 19,-45 17,-103 -7,-152 -12,-24 -18,-47 -15,-51 10,-9 68,25 110,63 l 36,33 v -33 c 0,-17 -11,-53 -25,-79 -22,-41 -22,-46 -7,-46 28,0 54,59 60,132 6,91 -11,99 -70,33 l -43,-47 v 74 c -1,50 -6,83 -18,106 -19,35 -44,42 -54,15 z"
       id="path14" />
    <path
       inkscape:connector-curvature="0"
       d="m 1245,91 c 4,-42 9,-79 12,-84 10,-18 23,7 23,46 v 42 l 30,-47 c 17,-27 37,-48 45,-48 22,0 20,6 -25,73 -22,33 -35,55 -28,50 7,-5 45,-36 85,-67 47,-38 79,-56 93,-54 33,5 -170,162 -211,164 l -30,2 z"
       id="path16" />
    <path
       inkscape:connector-curvature="0"
       d="M 316,111 C 307,97 391,0 413,0 c 22,0 24,-4 -43,78 -35,43 -45,49 -54,33 z"
       id="path18" />
  </g>
</svg>
