<?xml version="1.0" encoding="UTF-8" standalone="no"?>
<svg
   xmlns:dc="http://purl.org/dc/elements/1.1/"
   xmlns:cc="http://creativecommons.org/ns#"
   xmlns:rdf="http://www.w3.org/1999/02/22-rdf-syntax-ns#"
   xmlns:svg="http://www.w3.org/2000/svg"
   xmlns="http://www.w3.org/2000/svg"
   xmlns:sodipodi="http://sodipodi.sourceforge.net/DTD/sodipodi-0.dtd"
   xmlns:inkscape="http://www.inkscape.org/namespaces/inkscape"
   version="1.0"
   width="162.000000pt"
   height="162.000000pt"
   viewBox="0 0 162.000000 162.000000"
   preserveAspectRatio="xMidYMid meet"
   id="svg38"
   sodipodi:docname="alBuilding-bg.svg"
   inkscape:version="0.92.1 r15371">
  <defs
     id="defs42" />
  <sodipodi:namedview
     pagecolor="#ffffff"
     bordercolor="#666666"
     borderopacity="1"
     objecttolerance="10"
     gridtolerance="10"
     guidetolerance="10"
     inkscape:pageopacity="0"
     inkscape:pageshadow="2"
     inkscape:window-width="709"
     inkscape:window-height="480"
     id="namedview40"
     showgrid="false"
     inkscape:zoom="1.0925926"
     inkscape:cx="135.32499"
     inkscape:cy="111.00977"
     inkscape:window-x="776"
     inkscape:window-y="223"
     inkscape:window-maximized="0"
     inkscape:current-layer="svg38"
     inkscape:pagecheckerboard="true" />
  <metadata
     id="metadata32">
Created by potrace 1.13, written by Peter Selinger 2001-2015
<rdf:RDF>
  <cc:Work
     rdf:about="">
    <dc:format>image/svg+xml</dc:format>
    <dc:type
       rdf:resource="http://purl.org/dc/dcmitype/StillImage" />
    <dc:title></dc:title>
  </cc:Work>
</rdf:RDF>
</metadata>
  <g
     transform="matrix(0.1,0,0,-0.1,-7.5,157.5)"
     id="g36"
     style="fill:#ffffff;stroke:none">
    <path
       d="m 745,1490 -39,-40 H 520 334 l -42,-43 -42,-43 V 712 60 h 214 c 133,0 217,4 221,10 3,5 17,10 31,10 30,0 33,-29 4,-50 C 709,22 700,12 700,8 700,4 745,0 801,0 h 101 l 38,40 38,40 h 244 c 243,0 245,0 266,23 l 22,23 v 662 662 h -173 -173 l -39,40 -39,40 H 935 784 Z"
       id="path34"
       inkscape:connector-curvature="0" />
  </g>
  <g
     style="fill:#d16d59;stroke:none"
     transform="matrix(0.1,0,0,-0.1,-7,158)"
     id="g24">
    <path
       inkscape:connector-curvature="0"
       d="M 935,1540 H 774 l -39,-40 -39,-40 H 510 324 l -42,-43 -42,-43 V 712 50 h 220 c 155,0 226,4 240,12 10,7 22,9 26,5 4,-4 -3,-15 -14,-26 C 700,31 690,18 690,11 690,4 726,0 805,0 h 114 l 35,35 35,35 h 244 c 242,0 244,0 265,23 l 22,23 v 672 672 h -173 -173 l -39,40 -39,40 z m 0,-30 h 141 l 39,-40 39,-40 h 149 c 96,0 146,-4 142,-10 -4,-6 -133,-10 -354,-10 -335,0 -349,-1 -366,-20 -17,-19 -31,-20 -228,-20 H 286 l 29,30 29,30 h 186 186 l 39,40 39,40 z m 547,-110 c 4,0 8,-285 8,-633 0,-479 -3,-636 -12,-645 -7,-7 -16,-12 -20,-12 -4,0 -8,285 -8,633 0,479 3,636 12,645 7,7 16,12 20,12 z m -395,-30 h 333 V 735 100 H 1170 920 V 215 330 H 835 750 V 215 c 0,-96 -3,-115 -15,-115 -13,0 -15,75 -15,617 0,560 2,618 17,635 15,17 39,18 350,18 z M 480,1340 H 690 V 722 C 690,255 687,101 678,92 669,83 609,80 468,80 H 270 v 630 630 z M 835,300 h 55 V 200 100 h -55 -55 v 100 100 z"
       id="path4" />
    <path
       inkscape:connector-curvature="0"
       d="m 840,1180 h -60 v -80 -80 h 60 60 v 80 80 z m 0,-30 c 29,0 30,-1 30,-50 0,-49 -1,-50 -30,-50 -29,0 -30,1 -30,50 0,49 1,50 30,50 z"
       id="path6" />
    <path
       inkscape:connector-curvature="0"
       d="m 1190,1180 h -60 v -80 -80 h 60 60 v 80 80 z m 0,-30 c 29,0 30,-1 30,-50 0,-49 -1,-50 -30,-50 -29,0 -30,1 -30,50 0,49 1,50 30,50 z"
       id="path8" />
    <path
       inkscape:connector-curvature="0"
       d="m 840,740 h -60 v -80 -80 h 60 60 v 80 80 z m 0,-30 c 29,0 30,-1 30,-50 0,-49 -1,-50 -30,-50 -29,0 -30,1 -30,50 0,49 1,50 30,50 z"
       id="path10" />
    <path
       inkscape:connector-curvature="0"
       d="m 1190,740 h -60 v -80 -80 h 60 60 v 80 80 z m 0,-30 c 29,0 30,-1 30,-50 0,-49 -1,-50 -30,-50 -29,0 -30,1 -30,50 0,49 1,50 30,50 z"
       id="path12" />
    <path
       inkscape:connector-curvature="0"
       d="m 1190,330 h -60 v -80 -80 h 60 60 v 80 80 z m 0,-30 c 29,0 30,-1 30,-50 0,-49 -1,-50 -30,-50 -29,0 -30,1 -30,50 0,49 1,50 30,50 z"
       id="path14" />
    <path
       inkscape:connector-curvature="0"
       d="m 480,1160 h -60 v -80 -80 h 60 60 v 80 80 z m 0,-30 c 29,0 30,-1 30,-50 0,-49 -1,-50 -30,-50 -29,0 -30,1 -30,50 0,49 1,50 30,50 z"
       id="path16" />
    <path
       inkscape:connector-curvature="0"
       d="m 480,720 h -60 v -80 -80 h 60 60 v 80 80 z m 0,-30 c 29,0 30,-1 30,-50 0,-49 -1,-50 -30,-50 -29,0 -30,1 -30,50 0,49 1,50 30,50 z"
       id="path18" />
    <path
       inkscape:connector-curvature="0"
       d="m 480,310 h -60 v -80 -80 h 60 60 v 80 80 z m 0,-30 c 29,0 30,-1 30,-50 0,-49 -1,-50 -30,-50 -29,0 -30,1 -30,50 0,49 1,50 30,50 z"
       id="path20" />
    <path
       inkscape:connector-curvature="0"
       d="m 800,200 c -5,0 -10,-4 -10,-10 0,-5 5,-10 10,-10 6,0 10,5 10,10 0,6 -4,10 -10,10 z"
       id="path22" />
  </g>
</svg>
