<?xml version="1.0" encoding="UTF-8" standalone="no"?>
<!-- Created with Inkscape (http://www.inkscape.org/) -->

<svg
   xmlns:dc="http://purl.org/dc/elements/1.1/"
   xmlns:cc="http://creativecommons.org/ns#"
   xmlns:rdf="http://www.w3.org/1999/02/22-rdf-syntax-ns#"
   xmlns:svg="http://www.w3.org/2000/svg"
   xmlns="http://www.w3.org/2000/svg"
   xmlns:sodipodi="http://sodipodi.sourceforge.net/DTD/sodipodi-0.dtd"
   xmlns:inkscape="http://www.inkscape.org/namespaces/inkscape"
   version="1.1"
   id="svg2"
   width="351"
   height="351"
   viewBox="0 0 351 351"
   sodipodi:docname="bugBurgaDelux.svg"
   inkscape:version="0.92.1 r15371">
  <metadata
     id="metadata8">
    <rdf:RDF>
      <cc:Work
         rdf:about="">
        <dc:format>image/svg+xml</dc:format>
        <dc:type
           rdf:resource="http://purl.org/dc/dcmitype/StillImage" />
        <dc:title />
      </cc:Work>
    </rdf:RDF>
  </metadata>
  <defs
     id="defs6" />
  <sodipodi:namedview
     pagecolor="#ffffff"
     bordercolor="#666666"
     borderopacity="1"
     objecttolerance="10"
     gridtolerance="10"
     guidetolerance="10"
     inkscape:pageopacity="0"
     inkscape:pageshadow="2"
     inkscape:window-width="1920"
     inkscape:window-height="1056"
     id="namedview4"
     showgrid="false"
     inkscape:pagecheckerboard="true"
     inkscape:zoom="7.606938"
     inkscape:cx="176.89767"
     inkscape:cy="62.362114"
     inkscape:window-x="0"
     inkscape:window-y="24"
     inkscape:window-maximized="1"
     inkscape:current-layer="svg2"
     inkscape:snap-to-guides="false"
     inkscape:snap-grids="false" />
  <path
     style="opacity:1;vector-effect:none;fill:#a48fab;fill-opacity:1;stroke:none;stroke-width:0.81334078;stroke-linecap:butt;stroke-linejoin:miter;stroke-miterlimit:4;stroke-dasharray:none;stroke-dashoffset:0;stroke-opacity:1"
     d="m 322.40558,238.84419 c -1.04676,0.70288 -5.7725,7.56582 -9.79828,9.85976 -17.82793,10.15858 -28.64031,15.42283 -59.684,15.0701 -43.68603,-0.49638 -90.68336,12.39701 -117.7635,-16.55159 -10.78175,-11.52567 -8.40558,-42.4797 -3.45154,-47.22153 4.95403,-4.74182 171.60338,0.0333 184.21932,1.61053"
     id="path4616"
     inkscape:connector-curvature="0"
     sodipodi:nodetypes="casasc" />
  <path
     inkscape:connector-curvature="0"
     id="path4519-6"
     d="m 327.39582,258.55382 c -9.64591,8.61459 -42.55358,19.1638 -76.01036,23.32501 -30.35743,3.77573 -60.60948,1.85085 -84.81279,-3.26473 C 151.24988,275.37549 123.03722,266.35977 123.5,257.5 c -1.12854,-7.10367 -14.33093,-16.42045 1.53357,-30.63559 8.14694,-7.29995 3.14954,12.76631 7.62342,17.13082 9.8498,9.60902 25.28131,13.5471 39.38173,16.64149 2.19092,0.48081 1.52287,5.30217 3.73988,5.65701 2.37646,0.38035 4.52227,-5.0527 6.95223,-4.95532 13.61087,0.54542 28.15046,2.90604 41.14959,2.51612 22.78095,-0.68333 44.38043,0.45656 66.49864,-6.74924 9.19476,-2.99552 19.13161,-4.60604 28.24186,-12.88905 2.43121,-2.21044 2.50315,-9.24566 4.95003,-11.92547 5.42117,12.22618 12.0394,18.92681 3.82487,26.26305 z"
     style="fill:#e4cda9"
     sodipodi:nodetypes="ssscsssssssscs" />
  <path
     style="opacity:1;vector-effect:none;fill:#dadada;fill-opacity:1;stroke:none;stroke-width:0.81334078;stroke-linecap:butt;stroke-linejoin:miter;stroke-miterlimit:4;stroke-dasharray:none;stroke-dashoffset:0;stroke-opacity:1"
     d="m 37.025543,52.307816 84.335927,-11.504095 86.05874,-7.114171 14.02122,27.370811 21.00347,70.528599 c 0,0 -56.79299,2.39273 -79.03101,13.4844 -16.64358,8.30133 -36.11404,31.08305 -33.07232,63.55661 0.48151,5.14059 -3.79941,15.38096 -3.79941,15.38096 l -3.10328,14.52567 -2.84818,19.04846 54.28025,23.34226 80.38503,1.43668 73.25181,-23.87317 1.49221,-9.41191 18.68226,7.20103 -18.06917,31.23215 -4.78563,8.27186 L 206.45137,317.80742 153.20123,301.03617 99.34972,278.60597 84.942764,238.48515 50.438103,241.22533 24.312536,198.01652 1.8545089,144.0682 5.8974527,123.90085 15.170997,101.19882 Z"
     id="rect4521"
     inkscape:connector-curvature="0"
     sodipodi:nodetypes="cccccsscccccccccccccccccccc" />
  <path
     inkscape:connector-curvature="0"
     id="path4519"
     d="m 321.11418,198.41204 c -19.08832,15.62415 -93.02758,18.7295 -143.90525,7.97606 -15.32279,-3.23861 -48.67377,-1.87103 -48.21099,-10.7308 -1.12854,-7.10367 8.28302,-27.91922 24.14752,-42.13436 8.14694,-7.29995 18.31093,-11.76201 26.21453,-15.03178 18.78284,-7.77058 44.20311,-5.70549 62.40722,-5.79642 18.34906,-0.0916 39.06286,6.33185 53.5658,17.70492 5.00407,3.92413 11.21175,5.84649 16.79589,12.02202 10.36728,11.46524 18.12131,28.51235 8.98528,35.99036 z"
     style="fill:#e4cda9"
     sodipodi:nodetypes="sscssssss" />
  <path
     inkscape:connector-curvature="0"
     id="path4515"
     d="m 127.91894,211.19369 c 0.6236,-0.20787 2.7243,-2.5248 2.7243,-6.19217 -0.0866,-2.47934 0.83054,-3.85428 1.01227,-4.98221 0.46837,-2.90703 1.24375,-1.79308 5.89795,-0.47818 13.86217,3.96422 24.46729,7.11186 47.06572,8.31397 12.63931,0.67235 34.62297,-1.61299 51.94845,-1.86317 19.12714,-0.2762 40.24911,1.15438 57.386,0.40011 11.11507,-0.48923 7.64326,-3.51214 19.23645,-4.61079 6.12897,-1.89323 6.82778,8.5604 0.15102,16.58393 -2.78482,3.34655 -7.38458,6.1023 -12.0142,10.01087 -3.55554,3.00177 -6.80516,7.43841 -11.23235,8.75154 -2.66808,0.79137 -5.80419,-5.53794 -8.56361,-4.91578 l -4.31125,3.13304 c -5.57804,4.0509 1.22993,-3.2229 1.05948,4.43757 -0.22528,2.77243 -3.44638,6.21758 -5.81323,6.21758 -0.72187,0 -2.58452,-1.05485 -4.13921,-2.34411 -2.68854,-2.22951 -3.3899,-2.32156 -14.34707,-1.88295 l -11.52034,0.46115 -0.29344,6.13295 C 241.85914,254.77808 239.99347,259 237.46716,259 235.01899,259 232.53233,255.23992 232,250.73312 l -0.5,-4.23312 -8,-0.60442 c -4.4,-0.33242 -10.83703,-0.16946 -14.30452,0.36215 -10.72321,-1.0588 -9.75983,-13.58016 -12.08084,2.43857 -0.52679,3.76164 -0.21425,9.32506 -4.03053,10.38035 -1.41249,0.39059 -5.61171,-14.53366 -8.17947,-14.4239 -1.70081,-0.45989 -7.83012,3.79215 -12.03547,4.74908 -4.96532,1.12987 -11.41692,2.90663 -15.23754,1.09363 -15.69066,-10.48859 -32.59878,-35.76486 -29.71269,-39.30175 z M 231.24389,237.54182 263.5,237.5 l 10.24434,-2.82979 c 2.65745,1.27439 4.66559,-1.86528 7.50472,-0.90977 3.30486,1.11226 5.54955,4.25728 8.81554,3.29118 4.1731,-1.23443 6.96786,-6.98929 10.82168,-9.35666 4.50401,-2.76678 10.467,-4.11435 13.48303,-7.77168 4.03991,-4.89893 3.87591,-11.38847 3.54573,-14.78158 -0.38178,-3.92333 -1.80515,-4.08342 -10.41134,1.0757 -2.74797,1.07889 -6.28398,1.74944 -6.56101,2.15564 -0.27704,0.40619 -5.78297,1.66612 -14.89102,3.70959 l -13.54411,3.03873 -3.63574,9.31795 c -2.47124,6.33348 -5.90802,5.22532 -7.34263,-1.30641 -0.61851,-2.81605 -0.82579,-2.90017 -8.83128,-3.58396 -4.50885,-0.38512 -15.62291,-1.82902 -24.69791,-3.20868 -17.76343,-2.70055 -27.29773,-3.47269 -45.46769,-4.42933 -6.325,-0.33301 -14.36684,-1.48764 -14.91684,-1.88419 -0.55,-0.39655 -6.81266,-1.08791 -12.31266,-2.33971 -5.5,-1.25181 -12.3563,-3.7369 -15.47724,-4.71907 -3.12093,-0.98218 -7.11656,-2.77562 -7.43313,-2.45906 -0.31656,0.31657 -0.31265,3.75444 -0.31265,6.43468 0,5.74579 3.22085,12.71119 7.53211,16.33888 5.54094,4.6624 22.01498,9.63775 31.46737,9.63775 3.14864,0 6.93466,0.63219 8.33304,1.16385 2.96754,1.12826 2.16275,9.13903 3.70121,6.14837 0.80387,-1.56266 7.14972,17.35344 11.53677,17.79774 2.27587,0.23048 2.83565,-17.86024 4.3398,-18.07839 12.28345,-1.78153 25.97144,-2.4001 32.2538,-2.40996 z m -2.45871,4.65688 c -152.523453,72.5342 -76.26173,36.2671 0,0 z"
     style="fill:#f3c40e"
     sodipodi:nodetypes="ccscsascssscccscscsssccccscaccccccssssscscsssssscccsssccsscccc" />
  <path
     style="fill:#b6751d"
     d="m 206.5,31.060547 -9,0.951172 c -4.95,0.523626 -12.16231,0.960931 -16.02734,0.970703 -3.86503,0.0098 -13.31503,0.881241 -21,1.9375 -7.68497,1.05626 -17.34766,2.211575 -21.47266,2.566406 -9.02836,0.776619 -35.53171,4.22807 -42.5,5.535156 -2.75,0.515835 -9.95,1.662991 -16,2.548828 -6.05,0.885842 -17.3,2.744063 -25,4.128907 -7.7,1.384845 -15.661811,2.739625 -17.693359,3.009765 -3.502323,0.465712 -3.897513,0.912625 -7.632813,8.640625 C 26.396957,69.163615 19.204381,86.355477 11.703125,105.5 2.8879979,127.99775 1.0889359,134.4141 1.0351562,143.55664 0.99114504,151.03861 4.5698573,160.41532 16.470703,184 c 18.940592,37.5358 23.888624,46.11315 30.427735,52.74609 l 4.441406,4.50391 11.580078,-0.86133 c 12.415366,-0.92465 21.775062,-1.02572 22.55664,-0.24414 0.265423,0.26542 1.622997,4.86664 3.015626,10.22656 1.392623,5.35993 3.651115,12.407 5.019531,15.65821 C 94.880135,269.28051 96,272.99452 96,274.2832 c 0,3.40134 4.50892,7.07979 12.5,10.19922 5.99631,2.34075 14.92903,6.06181 37.5,15.6211 5.138,2.17605 39.51412,13.76113 51.5,17.35546 4.4,1.31947 9.88309,2.42955 12.18555,2.46875 3.88449,0.0662 23.05677,-4.03311 25.27539,-5.40429 1.80377,-1.1148 28.43022,-7.20879 36.53906,-8.36328 4.4,-0.62644 14.525,-2.068 22.5,-3.20313 22.82906,-3.24942 31.18194,-4.84596 33.57812,-6.41601 1.22355,-0.80169 3.52289,-3.38946 5.11133,-5.75 C 336.19236,285.58545 350,257.52498 350,255.61133 c 0,-2.10828 -2.08949,-3.28951 -6.9043,-3.90235 -2.42192,-0.30827 -5.72773,-1.54062 -7.34765,-2.73828 -1.61991,-1.19765 -3.68421,-2.28562 -4.58594,-2.41797 -1.08888,-0.15981 -1.88744,-1.69533 -2.37891,-4.57421 -0.69477,-4.06982 -2.21062,-6.88893 -3.17968,-5.91211 -0.23643,0.23833 -0.0389,2.45859 0.43945,4.93359 0.47832,2.475 0.89006,7.07392 0.91406,10.21875 l 0.043,5.7168 -8.75,2.61914 c -4.8125,1.44066 -14.375,4.85366 -21.25,7.58398 -10.89475,4.32672 -35.6434,12.10452 -43,13.51367 -2.18629,0.41879 -2.29828,0.31459 -0.89844,-0.83593 1.32887,-1.09219 -3.511,-1.257 -28.5,-0.96875 -26.50504,0.30574 -39.31345,-0.23454 -57.60156,-2.42969 -3.72732,-0.44739 -22.48025,-8.30695 -35.5,-14.87891 l -8,-4.03906 -0.29297,-7.23438 c -0.14369,-3.54183 1.62306,-18.87467 2.60938,-23.90039 0.66299,-0.50596 1.4582,-2.14679 1.68359,-2.98437 0.0417,1.65047 -0.20603,2.92478 -0.70703,3.42578 -0.83422,0.83422 -0.79867,2.58584 0.13672,6.76563 2.59222,11.58323 4.78827,14.38156 16.375,20.84961 4.84315,2.70357 8.15888,3.71166 15.19531,4.61718 13.20847,1.6998 13.21875,1.70199 13.89062,4.37891 0.33621,1.33953 1.39726,2.64112 2.35938,2.89258 3.52838,0.92215 4.79539,0.64648 6.01758,-1.31055 0.68696,-1.1 2.10784,-2 3.1582,-2 1.05035,0 2.62221,-0.27357 3.49219,-0.60742 2.9039,-1.11433 1.62735,-2.39258 -2.38867,-2.39258 -3.23993,0 -4.37182,0.54472 -6.15821,2.96094 -2.51586,3.40289 -3.38056,3.23784 -4.1875,-0.79688 -0.72338,-3.6169 -3.26263,-4.59761 -15.48047,-5.98633 -7.57096,-0.86055 -10.44748,-1.70252 -15.5,-4.53125 -10.918,-6.1126 -13.8273,-11.11061 -14.34765,-24.64648 -0.17972,-4.675 -0.38599,-8.725 -0.45899,-9 -0.073,-0.275 -0.0696,-0.87084 0.01,-1.32422 0.0394,-0.22669 -0.0532,-0.35358 -0.23437,-0.375 -0.18118,-0.0214 -0.45141,0.0617 -0.76563,0.25586 -0.72319,0.44695 -0.92959,2.25205 -0.56445,4.91602 0.0682,0.49757 0.0973,0.95952 0.12304,1.41601 -0.0714,0.0141 -0.18094,0.0995 -0.34765,0.29688 -4.27618,0.26997 -37.432389,10.32035 -40.05469,12.2539 -1.122483,0.82767 -1.306238,0.71023 -0.839844,-0.53711 C 87.439624,231.64617 83.13027,215.46131 75.464844,194.5 68.688146,175.96894 54.37521,132.59309 51.046875,120.5 49.230383,113.9 46.471816,103.94652 44.916016,98.380859 42.290256,88.987564 40.344227,78.821951 38.169922,63.138672 l -0.88086,-6.361328 3.197266,-1.335938 C 42.245173,54.706514 47.91747,53.394722 53.091797,52.527344 66.236997,50.323802 80.421804,48.071102 87.5,47.0625 c 3.3,-0.470232 13.875,-1.986645 23.5,-3.369141 9.625,-1.382496 23.125,-3.036323 30,-3.675781 6.875,-0.639458 16.775,-1.801992 22,-2.583984 5.225,-0.781991 12.78896,-1.424535 16.80859,-1.427735 4.01963,-0.0032 11.55987,-0.527466 16.75586,-1.166015 5.19599,-0.638549 9.78203,-0.802129 10.19141,-0.363282 0.40938,0.438846 0.15056,1.007661 -0.57422,1.265626 -0.72478,0.257961 -4.54978,3.059369 -8.5,6.224609 -6.81171,5.458107 -13.54547,12.109301 -36.27539,35.826172 -14.5496,15.18135 -16.30909,16.113577 -34.73437,18.396484 C 110.23565,98.225912 90.2371,103.16147 68,110.66992 c -15.979381,5.39551 -17.587083,6.14339 -16.195312,7.53516 0.692861,0.69286 6.415987,-0.75539 17.857421,-4.51953 30.987231,-10.19454 35.315911,-11.2252 63.515621,-15.117191 13.85366,-1.912014 17.81283,-4.588257 36.14063,-24.4375 14.32689,-15.516197 25.93856,-26.594101 34.18164,-32.607421 2.2,-1.604901 4.31704,-3.385068 4.70508,-3.957032 0.93802,-1.382605 6.89459,11.654037 10.7207,23.464844 4.81223,14.854837 18.53075,59.38622 20.78516,67.46875 0.30682,1.1 1.06046,2.3303 1.67383,2.73438 0.61337,0.40405 -7.43477,0.74445 -17.88477,0.75585 -22.11996,0.024 -37.89402,2.20335 -49.02734,6.77539 -9.43792,3.87585 -20.78404,11.35125 -27.19141,17.91407 -5.70303,5.8414 -13.16205,17.7448 -16.20508,25.85937 C 128.5562,189.25882 127.40066,197 128.91797,197 c 0.62971,0 1.30274,-0.5625 1.49609,-1.25 2.83402,-10.07696 6.09851,-18.46778 9.23242,-23.73242 10.30388,-17.30949 28.48426,-29.98995 49.36133,-34.42969 4.12111,-0.8764 9.29219,-2.03108 11.49219,-2.56641 2.2,-0.53533 15.025,-1.05293 28.5,-1.14843 9.19637,-0.0652 22.18213,-0.64566 32.80859,2.02539 13.91002,3.49639 26.48249,10.54489 39.09571,17.9707 4.89936,2.8844 7.68557,5.51715 11.85351,11.20117 8.41634,11.47777 9.59838,14.27928 9.67578,22.92969 l 0.0664,7.5 -6.47461,3.42383 c -13.35939,7.06352 -13.51985,7.07736 -79.45703,7.06836 -66.24129,-0.009 -77.40034,-0.79514 -99.01563,-6.97657 C 131.09244,197.1681 129,197.13265 129,198.87109 c 0,0.91246 14.33041,5.32701 26,8.00977 10.27349,2.36181 39.6513,3.467 93,3.5 44.43496,0.0275 52.17163,-0.76692 66.30469,-6.82227 3.71611,-1.59218 3.78005,-1.58482 2.75,0.33985 -0.58001,1.08376 -1.05469,3.85924 -1.05469,6.16797 0,6.67162 -3.05434,10.51097 -11.50781,14.46875 -6.6075,3.09353 -10.17707,6.09875 -13.0293,10.96679 -1.37948,2.35443 -4.79592,1.25562 -6.28906,-2.02148 -1.5371,-3.37357 -4.06038,-3.18666 -14.21094,1.05469 L 262.5,238.07227 231.25391,237.91016 C 200.19998,237.74968 197,238.05054 197,241.12305 c 0,1.01291 2.36042,1.1845 3.30469,0.24023 0.35055,-0.35056 15.51542,-0.6881 33.70117,-0.75 20.76866,-0.0707 33.33064,-0.48516 33.7793,-1.11328 0.39286,-0.55 3.18984,-2.04592 6.21484,-3.32422 3.025,-1.2783 6.05184,-2.55952 6.72656,-2.84766 0.67471,-0.28811 1.73789,0.59461 2.36133,1.9629 2.60652,5.72069 9.28546,5.34099 12.16211,-0.69141 1.19057,-2.49664 3.37884,-4.10121 9.89648,-7.25781 4.60224,-2.22894 8.9308,-4.72959 9.61719,-5.55664 2.05001,-2.47011 4.21301,-10.92647 4.22461,-16.50977 0.01,-4.77097 0.26809,-5.35639 2.9668,-6.75195 7.50597,-3.88148 4.48315,-18.67412 -6.97266,-34.11719 -6.83497,-9.21393 -10.65807,-12.19342 -21.03515,-16.39648 -1.89601,-0.76795 -3.67227,-1.68523 -3.94727,-2.03907 -2.43466,-3.13262 -17.90186,-8.37674 -27.36858,-11.0598 -3.93722,-1.11589 -11.85185,-2.02524 -12.1034,-2.05663 -5.58549,-0.69702 -7.19404,-0.805 -7.19404,-2.15505 0,-2.38943 -7.67988,-29.18879 -8.45703,-29.51172 -0.41341,-0.17179 -2.82054,-6.921786 -5.34961,-15 C 226.99826,78.109277 223.7945,67.9 222.4082,63.5 218.50341,51.106528 212.12607,36.782951 209.17383,33.779297 Z M 34.035156,60 c 0.443556,0 1.096444,3.0375 1.451172,6.75 0.904673,9.468069 3.183022,20.982646 6.580078,33.25 1.599204,5.775 4.312854,15.675 6.03125,22 3.064951,11.28135 16.887913,53.62656 21.375,65.48242 8.490565,22.43391 12.508638,35.5088 13.205078,42.9668 l 0.582032,6.22851 -12.939454,0.61915 c -7.116443,0.34039 -13.586569,0.83602 -14.378906,1.0996 C 49.949068,240.38988 43.041452,230.74689 24.142578,194 10.927339,168.30435 4.2077171,152.64357 3.3964844,145.65039 2.3692778,136.79543 6.8124881,123.01176 24.720703,79.5 30.994783,64.255811 33.028162,60 34.035156,60 Z M 146.38086,99.548828 c -0.20605,-0.01452 -0.38746,0.05738 -0.54492,0.214844 -0.5569,0.556898 1.1074,4.990998 4.23242,11.277348 4.1664,8.38122 8.76912,19.38603 12.42578,29.70898 0.74598,2.10595 2.50586,1.38703 2.50586,-1.02344 0,-2.75275 -4.3212,-14.02625 -10.05273,-26.22656 -4.45173,-9.47606 -7.12405,-13.849536 -8.56641,-13.951172 z M 217.99414,142 c -1.61715,0 -2.17698,2.07302 -0.95703,3.54297 1.55733,1.8765 4.38001,1.86331 5.94922,-0.0273 1.02134,-1.23061 0.77482,-1.65665 -1.44336,-2.5 C 220.07239,142.45638 218.47587,142 217.99414,142 Z m 42.13867,2.10547 c -0.0993,-0.008 -0.20811,-0.007 -0.32812,0.002 -0.13716,0.0106 -0.28799,0.0307 -0.45313,0.0625 -1.00613,0.19376 -1.98788,1.17551 -2.18164,2.18164 -0.25442,1.32108 0.15744,1.73294 1.47852,1.47852 1.00613,-0.19376 1.98788,-1.17551 2.18164,-2.18164 0.19479,-1.01146 -0.002,-1.48879 -0.69727,-1.54297 z m -93.46679,13.9375 c -4.30795,-0.0492 -4.71891,2.06649 -0.58399,3.00586 1.32962,0.30206 3.99297,1.30805 5.91797,2.23437 4.15112,1.99754 8.5,1.85238 8.5,-0.2832 0,-1.8526 -8.49296,-4.89603 -13.83398,-4.95703 z m 115.14843,1.10547 c -2.08247,0.005 -2.67501,2.34133 -0.56445,3.18554 1.89144,0.75658 3.25,0.16309 3.25,-1.41796 0,-0.77917 -1.0125,-1.56058 -2.25,-1.73633 -0.15172,-0.0215 -0.29672,-0.0316 -0.43555,-0.0312 z M 229.08398,176 c -2.07732,0 -2.70058,1.04942 -1.39648,2.35352 0.92647,0.92647 2.59687,0.29532 3.08398,-1.16602 0.22111,-0.66333 -0.52375,-1.1875 -1.6875,-1.1875 z m 90.31446,42.29297 c -0.3644,0.041 -0.28339,1.14285 0.20898,3.70703 0.47525,2.475 0.87091,7.95817 0.87891,12.18555 0.0128,7.16222 -0.18773,7.89691 -2.94336,10.77148 -4.38969,4.57916 -18.8302,8.72119 -55.64063,15.95899 -8.24901,1.62195 -14.2343,2.06933 -27,2.01953 -17.85156,-0.0697 -38.37104,-1.28014 -41.15234,-2.42774 -1.51755,-0.62616 -1.75,-0.1123 -1.75,3.87305 0,4.29161 0.16565,4.58398 2.50195,4.39062 1.38952,-0.115 2.75337,-0.99807 3.06641,-1.98437 0.52753,-1.66208 2.17735,-1.73344 25.74805,-1.12891 23.01595,0.59031 26.0877,0.46663 35.68359,-1.42773 5.775,-1.14007 12.3,-2.35396 14.5,-2.69727 6.99904,-1.09222 21.67769,-4.66434 31.76562,-7.73047 16.39743,-4.98382 20.47146,-11.11607 17.41602,-26.21289 -0.88041,-4.35005 -2.12675,-8.40005 -2.76953,-9 -0.22198,-0.20719 -0.39221,-0.31053 -0.51367,-0.29687 z m -195.5293,8.39453 C 122.73676,228.30419 120,243.64782 120,248.80664 c 0,4.12486 -0.4109,7.21414 -0.93359,7.02734 -0.51299,-0.18333 -7.46137,-3.48398 -15.44141,-7.33398 -10.813311,-5.21693 -14.523086,-7.47434 -14.566406,-8.85938 -0.0462,-1.47713 0.439959,-1.73126 2.373047,-1.24609 1.852612,0.46498 2.579117,0.14429 3.050781,-1.3418 0.340543,-1.07295 1.383993,-2.16562 2.318359,-2.42968 0.934367,-0.26406 7.938399,-2.1868 15.564449,-4.27149 5.3464,-1.46152 9.11114,-2.64922 11.50391,-3.66406 z m 25.625,1.38086 c -1.08935,-0.0675 -1.53177,0.32068 -1.25,1.16602 0.73116,2.19345 13.74674,5.66084 21.44922,5.71484 6.14092,0.043 7.60503,0.40587 10,2.48047 3.80565,3.29657 5.68111,1.49162 2.13476,-2.05469 -2.33153,-2.33157 -3.66113,-2.67604 -12.96289,-3.35742 -5.70099,-0.41762 -12.10862,-1.49279 -14.23828,-2.38867 -2.30774,-0.97078 -4.04346,-1.4931 -5.13281,-1.56055 z m -57.779296,18.60937 c 1.889148,0.0465 6.863581,2.66055 18.267576,8.35938 C 151.82297,275.94572 196.2865,293 208.95703,293 c 4.93962,0 21.21751,-2.79076 32.04297,-5.49414 20.38165,-5.08978 43.47818,-12.03741 55,-16.54297 5.775,-2.25829 15.225,-5.57787 21,-7.37695 8.89599,-2.77137 14.11509,-4.30859 28.25,-8.32227 1.10903,-0.31492 1.75,0.0526 1.75,1.00195 0,1.75296 -12.67196,27.67071 -16.47266,33.69141 -3.19259,5.05737 -5.2324,5.90097 -18.52734,7.66992 -5.775,0.76838 -12.975,1.82241 -16,2.3418 -3.025,0.5194 -12.025,1.87531 -20,3.01367 -12.66294,1.80752 -36.12067,6.79004 -54.23438,11.51953 -11.24789,2.93684 -21.35646,1.17714 -54.26562,-9.44922 -13.36759,-4.31639 -15.73607,-5.22634 -43,-16.52734 -22.11759,-9.16781 -24.5,-10.31477 -24.5,-11.79687 0,-0.71387 -1.556166,-5.11293 -3.457031,-9.7754 -1.900866,-4.66244 -4.114129,-11.30368 -4.919922,-14.75781 -0.840094,-3.60116 -1.575108,-5.55859 0.0918,-5.51758 z M 330,249.07812 l 4.33008,2.21094 c 2.38179,1.2158 3.84429,2.49633 3.25,2.84571 -0.59429,0.34938 -2.54258,0.94825 -4.33008,1.33007 -3.1854,0.68041 -3.25,0.62388 -3.25,-2.8457 z m -149.87109,32.01172 c 0.74178,-0.0366 2.03118,0.0505 3.87109,0.26172 3.025,0.34728 18.55,0.66353 34.5,0.70313 18.41505,0.0458 28.17539,0.40258 26.74219,0.97851 -1.24134,0.49884 -7.76634,2.0508 -14.5,3.44727 -15.76155,3.26875 -23.99775,3.84581 -29.74219,2.08398 -2.475,-0.75908 -8.24385,-2.50413 -12.82031,-3.87695 -7.57049,-2.27094 -10.27612,-3.48776 -8.05078,-3.59766 z"
     id="path4509"
     inkscape:connector-curvature="0"
     sodipodi:nodetypes="cccsssssssssscccccssssscccsccscccccccccscssccccccsccscccscscscssscccsccccssscccsssssssccssssssssscsccccsssccsscacscccscssssssssccccscssscccssccsccacscssccsssssccccssssccscsccscccscccccccscsssccsccsscscccsscssscssccccccscssccssccccscccccssssccscccscssscscccscsccccccccc" />
  <path
     style="fill:#704f7b"
     d="m 130.06492,199.53675 c -0.45,0.36125 0.3412,10.5756 -0.21336,10.38122 -1.25539,-0.44005 6.68577,11.93229 6.82422,12.34765 0.30421,0.91265 3.79099,4.91937 9.54727,7.39291 7.83746,3.36785 18.99176,6.19289 23.32383,6.22819 5.2418,0.0427 7.90087,0.0559 10.14736,1.54372 0.52648,0.34868 2.02071,1.73325 3.49521,5.06761 1.19993,2.71345 1.85579,7.48433 3.23633,10.14843 2.41711,4.66443 5.54112,7.55452 4.60547,7.71094 -2.12613,0.35545 -4.84682,-1.10156 -6.56055,-1.10156 -3.23993,0 -4.18431,0.96269 -5.9707,3.37891 -2.51586,3.40289 -2.45087,3.47026 -3.25781,-0.56446 -0.72338,-3.6169 -3.82123,-4.50386 -16.03907,-5.89258 -7.57096,-0.86055 -10.35372,-2.26111 -15.40624,-5.08984 -10.90808,-6.10704 -13.23214,-9.96398 -13.72657,-23.40234 -0.17298,-4.70173 -0.2637,-8.70856 -0.91211,-9.3125 -0.21871,-0.20372 0.0156,-2.50268 -1.21875,-2.46875 -1.23439,0.0339 -1.33355,2.70342 -1.83007,4.2832 -0.29968,0.95344 -0.76388,2.01955 -0.63868,2.99609 0.0668,0.52097 1.57048,-0.0405 1.625,0.29297 0.24251,1.48347 -0.94346,1.9708 -1.51172,2.53906 -0.83422,0.83422 0.22477,3.79482 1.16016,7.97461 2.59222,11.58323 5.02069,14.28974 16.60742,20.75782 4.84315,2.70357 7.83271,3.75659 14.86914,4.66211 13.20847,1.6998 12.80079,1.09847 13.47266,3.77539 0.33621,1.33953 1.81522,4.96533 2.77734,5.21679 3.52838,0.92215 5.07469,-1.44531 6.29688,-3.40234 0.68696,-1.1 2.10784,-2 3.1582,-2 1.00588,0 5.9845,0.14068 7.2793,-0.15234 -0.002,4.26216 1.01482,8.8587 3.34335,8.66598 1.38952,-0.115 2.98619,-3.69336 3.29923,-4.67966 0.52753,-1.66208 1.89805,-1.78031 25.46875,-1.17578 23.01595,0.59031 26.506,0.83845 36.10189,-1.05591 5.775,-1.14007 12.20704,-2.44691 14.40704,-2.79022 6.99904,-1.09222 21.35235,-4.94321 31.44028,-8.00934 6.18856,-1.88094 11.13291,-3.85845 14.14773,-6.75052 4.97336,-4.77087 5.49592,-11.55053 3.59363,-20.94966 -0.88041,-4.35005 -2.08027,-7.88879 -2.72305,-8.48874 -0.88791,-0.82876 -1.93721,0.92055 -1.28072,4.33971 0.47525,2.475 1.47512,8.00465 1.48312,12.23203 0.0128,7.16222 -1.76797,8.59408 -4.5236,11.46865 -4.38969,4.57916 -16.55279,7.51276 -53.36322,14.75056 -8.24901,1.62195 -14.93147,2.58059 -27.69717,2.53079 -13.17602,-0.0515 -28.17888,0.23188 -35.7494,-2.1156 -1.51727,-0.47048 -1.39799,-11.73782 -1.1881,-12.45472 0.40391,-1.37988 0.7298,-3.53727 1.07422,-4.58984 0.45128,-1.37913 1.12178,-2.26826 1.26563,-2.41211 0.1915,-0.1915 2.39346,-0.32138 8.01036,-0.47356 0.92878,-0.0252 1.60894,0.7878 2.83287,0.76575 6.17792,-0.11128 16.80761,0.51502 23.69454,0.49158 10.64596,-0.0362 18.21857,-0.10104 23.81136,-0.69326 5.3179,-0.56311 8.91266,-1.64764 9.13134,-1.95379 0.39286,-0.55 4.81656,-1.90649 7.84156,-3.18479 3.025,-1.2783 3.40261,-1.76939 4.07733,-2.05753 0.67471,-0.2881 2.43506,0.0833 3.0585,1.45164 1.42306,3.12329 4.80769,4.62886 7.46509,4.07501 2.20994,-0.46059 4.13456,-2.0275 5.44066,-4.76642 1.19057,-2.49664 3.23941,-4.28712 9.75705,-7.44372 4.60224,-2.22894 8.65193,-4.96198 9.33832,-5.78903 0.87385,-1.05293 2.31617,-3.45626 3.07845,-6.07996 0.95074,-3.27231 1.12768,-6.96488 1.11491,-9.7052 -0.0121,-2.60823 -0.058,-3.65889 -0.42383,-3.64062 -0.21948,0.011 -2.02258,0.0762 -2.53316,0.75127 -0.80751,1.06762 -0.27891,5.15224 -0.27891,7.5947 -0.43896,7.24567 -6.60089,11.18397 -11.18246,13.36503 -6.6075,3.09353 -10.40946,5.63397 -13.26169,10.50201 -1.37948,2.35443 -4.74944,1.25562 -6.24258,-2.02148 -0.71593,-1.57129 -1.47612,-2.54035 -3.25864,-2.30146 -2.04456,0.274 -5.3901,2.01984 -10.81287,4.28571 l -7.95163,3.02585 -31.61792,-0.0227 c -31.05393,-0.16048 -35.0905,0.0939 -35.0905,3.16641 0,0.32594 -1.78112,14.70516 -1.75206,16.53158 -2.48486,-2.53179 -4.88736,-5.33398 -5.41797,-6.66406 -0.99356,-2.49051 -1.11729,-5.74331 -2.19922,-7.97071 -1.53531,-3.16069 -4.56343,-7.38844 -5.3703,-8.14645 -2.07122,-1.94581 -3.98822,-1.79951 -12.75079,-2.44144 -5.67184,-0.41551 -11.8235,-2.18605 -13.95316,-3.08193 -1.87365,-0.78817 -10.06642,-2.32059 -15.55661,-6.97276 -1.29783,-1.09973 -4.63238,-5.42251 -6.05859,-10.75586 -0.90695,-3.39152 0.0539,-7.8189 -0.73047,-10.06835 -0.54893,-1.73127 -1.93846,-2.6202 -2.44875,-1.59799 z"
     id="path4507"
     inkscape:connector-curvature="0"
     sodipodi:nodetypes="ccsscccscscscsccccccsccscccscccssccsccccsscscccssssssccscscscccccscscccsccccscsccc" />
</svg>
