<?xml version="1.0" encoding="UTF-8" standalone="no"?>
<!-- Created with Inkscape (http://www.inkscape.org/) -->

<svg
   xmlns:dc="http://purl.org/dc/elements/1.1/"
   xmlns:cc="http://creativecommons.org/ns#"
   xmlns:rdf="http://www.w3.org/1999/02/22-rdf-syntax-ns#"
   xmlns:svg="http://www.w3.org/2000/svg"
   xmlns="http://www.w3.org/2000/svg"
   xmlns:sodipodi="http://sodipodi.sourceforge.net/DTD/sodipodi-0.dtd"
   xmlns:inkscape="http://www.inkscape.org/namespaces/inkscape"
   version="1.1"
   id="svg2"
   width="351"
   height="351"
   viewBox="0 0 351 351"
   sodipodi:docname="bugBurga.svg"
   inkscape:version="0.92.1 r15371">
  <metadata
     id="metadata8">
    <rdf:RDF>
      <cc:Work
         rdf:about="">
        <dc:format>image/svg+xml</dc:format>
        <dc:type
           rdf:resource="http://purl.org/dc/dcmitype/StillImage" />
        <dc:title />
      </cc:Work>
    </rdf:RDF>
  </metadata>
  <defs
     id="defs6" />
  <sodipodi:namedview
     pagecolor="#ffffff"
     bordercolor="#666666"
     borderopacity="1"
     objecttolerance="10"
     gridtolerance="10"
     guidetolerance="10"
     inkscape:pageopacity="0"
     inkscape:pageshadow="2"
     inkscape:window-width="1920"
     inkscape:window-height="1056"
     id="namedview4"
     showgrid="false"
     inkscape:pagecheckerboard="true"
     inkscape:zoom="10.757835"
     inkscape:cx="156.45115"
     inkscape:cy="65.155748"
     inkscape:window-x="0"
     inkscape:window-y="24"
     inkscape:window-maximized="1"
     inkscape:current-layer="svg2"
     inkscape:snap-to-guides="false"
     inkscape:snap-grids="false" />
  <path
     style="opacity:1;vector-effect:none;fill:#a48fab;fill-opacity:1;stroke:none;stroke-width:0.81334078;stroke-linecap:butt;stroke-linejoin:miter;stroke-miterlimit:4;stroke-dasharray:none;stroke-dashoffset:0;stroke-opacity:1"
     d="m 322.40558,238.84419 c -1.04676,0.70288 -5.7725,7.56582 -9.79828,9.85976 -17.82793,10.15858 -28.64031,15.42283 -59.684,15.0701 -26.24151,-0.29817 -53.34951,4.80301 -76.84854,2.10082 -15.62141,-1.79633 -29.55625,-7.62802 -40.91496,-18.65241 -7.50363,-7.28278 -10.24601,-26.17879 -5.29197,-30.92062 1.28244,-1.22751 7.28624,8.06031 25.63604,12.76433 16.44185,4.21492 44.14344,3.81673 65.08287,4.21744 23.34925,0.44683 50.75978,1.62284 69.04186,-2.3974 17.70873,-3.89416 26.60911,-12.98839 29.76984,-12.59324"
     id="path4616"
     inkscape:connector-curvature="0"
     sodipodi:nodetypes="casssssssc" />
  <path
     inkscape:connector-curvature="0"
     id="path4519-6"
     d="m 327.39582,258.55382 c -9.64591,8.61459 -42.55358,19.1638 -76.01036,23.32501 -30.35743,3.77573 -60.60948,1.85085 -84.81279,-3.26473 C 151.24988,275.37549 123.03722,266.35977 123.5,257.5 c -1.12854,-7.10367 -14.33093,-16.42045 1.53357,-30.63559 8.14694,-7.29995 3.14954,12.76631 7.62342,17.13082 9.8498,9.60902 25.28131,13.5471 39.38173,16.64149 2.19092,0.48081 1.52287,5.30217 3.73988,5.65701 2.37646,0.38035 4.52227,-5.0527 6.95223,-4.95532 13.61087,0.54542 28.15046,2.90604 41.14959,2.51612 22.78095,-0.68333 44.38043,0.45656 66.49864,-6.74924 9.19476,-2.99552 19.13161,-4.60604 28.24186,-12.88905 2.43121,-2.21044 2.50315,-9.24566 4.95003,-11.92547 5.42117,12.22618 12.0394,18.92681 3.82487,26.26305 z"
     style="fill:#e4cda9"
     sodipodi:nodetypes="ssscsssssssscs" />
  <path
     style="opacity:1;vector-effect:none;fill:#dadada;fill-opacity:1;stroke:none;stroke-width:0.81334078;stroke-linecap:butt;stroke-linejoin:miter;stroke-miterlimit:4;stroke-dasharray:none;stroke-dashoffset:0;stroke-opacity:1"
     d="m 37.025543,52.307816 84.335927,-11.504095 86.05874,-7.114171 14.02122,27.370811 26.78766,97.872059 c 0,0 -52.06046,-4.70605 -74.29848,6.38562 -16.64358,8.30133 -31.90736,18.20007 -43.58904,43.31193 -2.1777,4.68136 -3.79941,15.38096 -3.79941,15.38096 l -3.10328,14.52567 -2.84818,19.04846 54.28025,23.34226 80.38503,1.43668 73.25181,-23.87317 1.49221,-9.41191 18.68226,7.20103 -18.06917,31.23215 -4.78563,8.27186 L 206.45137,317.80742 151.88249,301.38037 99.34972,278.60597 84.942764,238.48515 50.438103,241.22533 24.312536,198.01652 1.8545089,144.0682 5.8974527,123.90085 15.170997,101.19882 Z"
     id="rect4521"
     inkscape:connector-curvature="0"
     sodipodi:nodetypes="cccccsscccccccccccccccccccc" />
  <path
     inkscape:connector-curvature="0"
     id="path4519"
     d="m 319.25507,223.69594 c -19.08832,14.93178 -93.02758,11.05787 -143.90525,7.97606 -15.63265,-0.94692 -48.67377,-1.87103 -48.21099,-10.7308 -1.12854,-7.10367 8.28302,-27.91922 24.14752,-42.13436 8.14694,-7.29995 18.31093,-11.76201 26.21453,-15.03178 18.78284,-7.77058 44.20311,-5.70549 62.40722,-5.79642 18.34906,-0.0916 39.06286,6.33185 53.5658,17.70492 5.00407,3.92413 11.21175,5.84649 16.79589,12.02202 10.36728,11.46524 18.2844,28.71615 8.98528,35.99036 z"
     style="fill:#e4cda9"
     sodipodi:nodetypes="sscssssss" />
  <path
     inkscape:connector-curvature="0"
     id="path4515"
     d="M 280.13828,234.20509 C 279.913,236.97752 274.83279,246 272.46594,246 c -0.72187,0 -2.58452,-1.05485 -4.13921,-2.34411 -2.68854,-2.22951 -3.3899,-2.32156 -14.34707,-1.88295 l -11.52034,0.46115 -0.29344,6.13295 C 241.85914,254.77808 239.99347,259 237.46716,259 235.01899,259 232.53233,255.23992 232,250.73312 l -1.24364,-17.24689 -13.76325,-0.0467 c -24.44555,-1.23926 -12.97897,0.28794 -44.12394,15.96229 -4.63923,2.09964 -11.41692,2.90663 -15.23754,1.09363 3.42469,-2.56314 -18.85475,-25.0708 -15.11403,-23.60115 48.10419,18.89907 116.83129,-0.33745 137.62068,7.31078 z"
     style="fill:#f3c40e"
     sodipodi:nodetypes="cscscsssccccscc" />
  <path
     style="fill:#b6751d"
     d="m 206.5,31.060547 -9,0.951172 c -4.95,0.523626 -12.16231,0.960931 -16.02734,0.970703 -3.86503,0.0098 -13.31503,0.881241 -21,1.9375 -7.68497,1.05626 -17.34766,2.211575 -21.47266,2.566406 -9.02836,0.776619 -35.53171,4.22807 -42.5,5.535156 -2.75,0.515835 -9.95,1.662991 -16,2.548828 -6.05,0.885842 -17.3,2.744063 -25,4.128907 -7.7,1.384845 -15.661811,2.739625 -17.693359,3.009765 -3.502323,0.465712 -3.897513,0.912625 -7.632813,8.640625 C 26.396957,69.163615 19.204381,86.355477 11.703125,105.5 2.8879979,127.99775 1.0889359,134.4141 1.0351562,143.55664 0.99114519,151.03861 4.5698576,160.41532 16.470703,184 c 18.940592,37.5358 23.888624,46.11315 30.427735,52.74609 l 4.441406,4.50391 11.580078,-0.86133 c 12.415366,-0.92465 21.775065,-1.02572 22.55664,-0.24414 0.265423,0.26542 1.622997,4.86664 3.015626,10.22656 1.392623,5.35993 3.651115,12.407 5.019531,15.65821 0.93046,2.21067 1.71586,4.58182 2.142578,6.3125 C 95.855148,273.15641 96,273.87077 96,274.2832 c 0,3.40134 4.50892,7.07979 12.5,10.19922 5.99631,2.34075 14.92903,6.06181 37.5,15.6211 5.138,2.17605 39.51412,13.76113 51.5,17.35546 4.4,1.31947 9.88309,2.42955 12.18555,2.46875 3.88449,0.0662 23.05677,-4.03311 25.27539,-5.40429 1.80377,-1.1148 28.43022,-7.20879 36.53906,-8.36328 4.4,-0.62644 14.525,-2.068 22.5,-3.20313 22.82906,-3.24942 31.18194,-4.84596 33.57812,-6.41601 1.22355,-0.80169 3.52289,-3.38946 5.11133,-5.75 C 336.19236,285.58545 350,257.52498 350,255.61133 c 0,-2.10828 -2.08949,-3.28951 -6.9043,-3.90235 -2.42192,-0.30827 -5.72773,-1.54062 -7.34765,-2.73828 -1.61991,-1.19765 -3.68421,-2.28562 -4.58594,-2.41797 -1.08888,-0.15981 -1.88744,-1.69533 -2.37891,-4.57421 -0.69477,-4.06982 -4.24319,-10.66457 -5.21225,-9.68775 -0.23643,0.23833 1.99367,6.23423 2.47202,8.70923 0.47832,2.475 0.89006,7.07392 0.91406,10.21875 l 0.043,5.7168 -8.75,2.61914 c -4.8125,1.44066 -14.375,4.85366 -21.25,7.58398 -10.89475,4.32672 -35.6434,12.10452 -43,13.51367 -2.18629,0.41879 -2.29828,0.31459 -0.89844,-0.83593 1.32887,-1.09219 -3.511,-1.257 -28.5,-0.96875 -26.50504,0.30574 -39.31345,-0.23454 -57.60156,-2.42969 -3.72732,-0.44739 -22.48025,-8.30695 -35.5,-14.87891 -4.45702,-1.91345 -8.72767,-3.38515 -9.03906,-8.07422 0.0793,-1.13029 0.17472,-2.26189 0.27929,-3.39648 0.79504,-8.62602 1.73072,-16.08392 3.87186,-24.69512 0,0.72999 10.07123,2.59293 19.84103,5.19707 2.44223,0.65098 4.89869,1.27794 7.23243,1.81446 10.27349,2.36181 39.6513,3.467 93,3.5 21.42383,-2.0083 46.70816,7.36441 74.73437,-13.28125 2.05001,-2.47011 1.4312,-2.56425 1.60547,-3.24414 1.12647,-12.79804 -0.0382,-17.36337 -9.35742,-29.44922 -6.83497,-9.21393 -10.65808,-12.19343 -21.03516,-16.39649 -1.89601,-0.76795 -3.67226,-1.68522 -3.94726,-2.03906 -2.43466,-3.13262 -17.90242,-8.37749 -27.36914,-11.06055 -3.93722,-1.11588 -12.10352,-2.05664 -12.10352,-2.05664 -5.51264,-14.48101 -10.80848,-42.76174 -14.33594,-57.16992 -0.10646,-0.43484 -2.82054,-6.921786 -5.34961,-15 C 226.99821,78.109277 223.7945,67.9 222.4082,63.5 218.50341,51.106528 212.12607,36.782951 209.17383,33.779297 Z m -1.7793,3.169922 c 1.14012,0.0019 1.88164,0.08153 2.03516,0.246093 0.40938,0.438846 0.15056,1.007661 -0.57422,1.265626 -0.72478,0.257961 -4.54978,3.059369 -8.5,6.224609 -6.81171,5.458107 -13.54547,12.109301 -36.27539,35.826172 -14.5496,15.18135 -16.30909,16.113577 -34.73437,18.396484 C 110.23565,98.225912 90.2371,103.16147 68,110.66992 c -15.979381,5.39551 -17.587083,6.14339 -16.195312,7.53516 0.692861,0.69286 6.415987,-0.75539 17.857421,-4.51953 30.987231,-10.19454 35.315911,-11.2252 63.515621,-15.117191 13.85366,-1.912014 17.81283,-4.588257 36.14063,-24.4375 14.32689,-15.516197 25.93856,-26.594101 34.18164,-32.607421 2.2,-1.604901 4.31704,-3.385068 4.70508,-3.957032 0.93802,-1.382605 6.89459,11.654037 10.7207,23.464844 4.81223,14.854837 12.2202,38.089357 14.47461,46.17187 0.30682,1.1 11.83976,49.3928 12.45313,49.79688 0.61337,0.40405 -13.21797,0.48274 -23.66797,0.49414 -22.11996,0.024 -37.89403,2.20335 -49.02735,6.77539 -0.89929,0.36931 -1.82003,0.78017 -2.74804,1.21094 0.0643,-0.32183 0.11132,-0.66299 0.11132,-1.03906 -5.8884,-17.05212 -7.22008,-32.78125 -15.57421,-50.94141 -4.45173,-9.47606 -7.12405,-13.849536 -8.56641,-13.951172 -0.20605,-0.01452 -0.38746,0.05738 -0.54492,0.214844 -0.5569,0.556898 1.1074,4.990998 4.23242,11.277348 4.1664,8.38122 14.55428,44.88994 18.21094,55.21289 0.028,0.079 0.0579,0.14198 0.0879,0.21093 -8.25316,4.12567 -17.04849,10.23701 -22.40039,15.71875 -5.70303,5.8414 -13.16205,17.74481 -16.20508,25.85938 -2.51997,6.71976 -4.53449,14.95743 -3.01718,14.95743 -4.27618,0.26997 -37.059739,10.5055 -39.68204,12.43905 -1.122483,0.82767 -1.306238,0.71023 -0.839844,-0.53711 C 87.439364,231.64614 83.13027,215.46131 75.464844,194.5 68.688146,175.96894 54.37521,132.59309 51.046875,120.5 49.230383,113.9 46.471816,103.94652 44.916016,98.380859 42.290256,88.987564 40.344227,78.821951 38.169922,63.138672 l -0.88086,-6.361328 3.197266,-1.335938 C 42.245173,54.706514 47.91747,53.394722 53.091797,52.527344 66.236997,50.323802 80.421804,48.071102 87.5,47.0625 c 3.3,-0.470232 13.875,-1.986645 23.5,-3.369141 9.625,-1.382496 23.125,-3.036323 30,-3.675781 6.875,-0.639458 16.775,-1.801992 22,-2.583984 5.225,-0.781991 12.78896,-1.424535 16.80859,-1.427735 4.01963,-0.0032 11.55987,-0.527466 16.75586,-1.166015 3.2475,-0.399093 6.25606,-0.612469 8.15625,-0.609375 z M 34.035156,60 c 0.443556,0 1.096444,3.0375 1.451172,6.75 0.904673,9.468069 3.183022,20.982646 6.580078,33.25 1.599204,5.775 4.312854,15.675 6.03125,22 3.064951,11.28135 16.887913,53.62656 21.375,65.48242 8.490565,22.43391 12.508638,35.5088 13.205078,42.9668 l 0.582032,6.22851 -12.939454,0.61915 c -7.116443,0.34039 -13.586569,0.83602 -14.378906,1.0996 C 49.949068,240.38988 43.041452,230.74689 24.142578,194 10.927339,168.30435 4.2077171,152.64357 3.3964844,145.65039 2.3692778,136.79543 6.8124884,123.01176 24.720703,79.5 30.994783,64.255811 33.028162,60 34.035156,60 Z m 205.271484,99.28516 c 6.9836,0.0488 14.54596,0.44778 21.1875,2.11718 13.91002,3.4964 26.48248,10.5449 39.0957,17.97071 4.89936,2.8844 7.68558,5.51715 11.85352,11.20117 8.41634,11.47777 9.59838,14.27928 9.67578,22.92969 l -0.0508,6.57031 -6.35742,4.35351 c -13.35939,7.06352 -13.51985,7.07736 -79.45703,7.06836 -66.24129,-0.009 -77.40034,-0.79513 -99.01563,-6.97656 -5.96989,-1.70728 -7.69914,-2.84405 -8.06872,-1.52271 2.83402,-10.07696 7.02856,-20.2107 10.16247,-25.47534 10.30388,-17.30949 28.48426,-29.98994 49.36133,-34.42968 4.12111,-0.8764 9.29219,-2.03108 11.49219,-2.56641 2.2,-0.53533 15.025,-1.05294 28.5,-1.14844 3.44864,-0.0245 7.43093,-0.12106 11.62109,-0.0918 z m -22.62695,8.21875 c -1.61715,0 -2.17698,2.073 -0.95703,3.54297 1.55733,1.87647 4.37999,1.86316 5.94922,-0.0273 1.02134,-1.23061 0.77482,-1.65665 -1.44336,-2.5 -1.47058,-0.55929 -3.0671,-1.01562 -3.54883,-1.01562 z m 42.10351,2.0625 c -0.0642,-0.0156 -0.20296,0.0382 -0.29297,0.0449 -0.13716,0.0106 -0.28798,0.0307 -0.45312,0.0625 -1.00613,0.19376 -1.98788,1.17551 -2.18164,2.18164 -0.25442,1.32108 0.15743,1.73293 1.47851,1.47851 1.00613,-0.19376 1.98789,-1.17551 2.18164,-2.18164 0.1948,-1.01146 -0.002,-1.48881 -0.69726,-1.54296 0,-0.0249 -0.0138,-0.0378 -0.0352,-0.043 z m -93.43164,13.98047 c -4.30795,-0.0492 -4.7189,2.06648 -0.58398,3.00585 1.32962,0.30206 3.99297,1.30806 5.91797,2.23438 4.15112,1.99754 8.5,1.85238 8.5,-0.2832 0,-1.8526 -8.49297,-4.89605 -13.83399,-4.95703 z m 114.91602,0.55273 c -0.60194,0.002 -2.04686,3.05236 -0.33203,3.73828 1.89144,0.75658 3.25,0.16308 3.25,-1.41797 0,-0.77917 -1.0125,-1.56058 -2.25,-1.73633 -0.15172,-0.0215 -0.43555,0.10748 -0.43555,-0.0312 0,-0.39046 -0.0935,-0.55326 -0.23242,-0.55273 z m -52.49805,17.4043 c -2.07732,0 -2.70058,1.04941 -1.39648,2.35351 0.92647,0.92647 2.59687,0.29533 3.08398,-1.16601 0.22111,-0.66333 -0.52375,-1.1875 -1.6875,-1.1875 z M 123.86914,226.6875 C 122.73676,228.30419 120,243.64782 120,248.80664 c 0,1.37966 -0.0579,2.56674 -0.13867,3.63086 -0.16067,2.11734 -0.44706,3.5208 -0.79492,3.39648 -0.11108,-0.0397 -1.47126,-0.68627 -2.13086,-0.99218 -2.38682,-1.10695 -7.05834,-3.3254 -13.31055,-6.3418 -10.813311,-5.21693 -14.523086,-7.47434 -14.566406,-8.85938 -0.0462,-1.47712 0.439959,-1.73126 2.373047,-1.24609 1.852612,0.46498 2.579117,0.14429 3.050781,-1.3418 0.340543,-1.07295 1.383993,-2.16562 2.318359,-2.42968 0.934367,-0.26406 7.938399,-2.1868 15.564449,-4.27149 5.3464,-1.46152 9.11114,-2.64922 11.50391,-3.66406 z m -32.154296,19.99023 c 1.889148,0.0465 6.863587,2.66055 18.267576,8.35938 1.39661,0.69792 2.8,1.37952 4.20117,2.06836 C 154.75973,277.05323 196.70944,293 208.95703,293 c 4.93962,0 21.21751,-2.79076 32.04297,-5.49414 20.38165,-5.08978 43.47818,-12.03741 55,-16.54297 5.775,-2.25829 15.225,-5.57787 21,-7.37695 8.89599,-2.77137 14.11509,-4.30859 28.25,-8.32227 1.10903,-0.31492 1.75,0.0526 1.75,1.00195 0,1.75296 -12.67196,27.67071 -16.47266,33.69141 -3.19259,5.05737 -5.2324,5.90097 -18.52734,7.66992 -5.775,0.76838 -12.975,1.82241 -16,2.3418 -3.025,0.5194 -12.025,1.87531 -20,3.01367 -12.66294,1.80752 -36.12067,6.79004 -54.23438,11.51953 -11.24789,2.93684 -21.35646,1.17714 -54.26562,-9.44922 -13.36759,-4.31639 -15.73607,-5.22634 -43,-16.52734 -22.11759,-9.16781 -24.5,-10.31477 -24.5,-11.79687 0,-0.52804 -0.857768,-3.08208 -2.070312,-6.25782 -0.426752,-1.11769 -0.891875,-2.3038 -1.386719,-3.51758 -1.900866,-4.66244 -4.114129,-11.30368 -4.919922,-14.75781 -0.840094,-3.60116 -1.575117,-5.55859 0.0918,-5.51758 z M 330,249.07812 l 4.33008,2.21094 c 2.38179,1.2158 3.84429,2.49633 3.25,2.84571 -0.59429,0.34938 -2.54258,0.94825 -4.33008,1.33007 -3.1854,0.68041 -3.25,0.62388 -3.25,-2.8457 z m -149.87109,32.01172 c 0.74178,-0.0366 2.03118,0.0505 3.87109,0.26172 3.025,0.34728 18.55,0.66353 34.5,0.70313 18.41505,0.0458 28.17539,0.40258 26.74219,0.97851 -1.24134,0.49884 -7.76634,2.0508 -14.5,3.44727 -15.76155,3.26875 -23.99775,3.84581 -29.74219,2.08398 -2.475,-0.75908 -8.24385,-2.50413 -12.82031,-3.87695 -7.57049,-2.27094 -10.27612,-3.48776 -8.05078,-3.59766 z"
     id="path4509"
     inkscape:connector-curvature="0"
     sodipodi:nodetypes="cccsssssssssscccccsssssscccsccscccccccccscsscccccccccccccccsccscscccssssssssscscccccccccsccsscccssscccsssssssssssssccccssscsscscccscccssccscccsscsccccscccsccccsscsscccsccsssccsscccccssccscccscsssccscccsccccccccccccccc" />
  <path
     style="fill:#704f7b"
     d="m 191.03125,260.35742 c -4.23772,0.25685 -9.55189,-1.724 -12.53125,2.27735 -2.51586,3.40289 -2.45087,3.47026 -3.25781,-0.56446 -0.72338,-3.6169 -3.82123,-4.50386 -16.03907,-5.89258 -7.57096,-0.86055 -10.35372,-2.26111 -15.40624,-5.08984 -10.90808,-6.10704 -13.23214,-9.96398 -13.72657,-23.40234 -0.17298,-4.70173 -0.2637,-8.70856 -0.91211,-9.3125 -0.21871,-0.20372 0.0156,-2.50268 -1.21875,-2.46875 -1.23439,0.0339 -1.33355,2.70342 -1.83007,4.2832 -0.29968,0.95344 -0.76388,2.01955 -0.63868,2.99609 0.0668,0.52097 1.57048,-0.0405 1.625,0.29297 0.24251,1.48347 -0.94346,1.9708 -1.51172,2.53906 -0.83422,0.83422 0.22477,3.79482 1.16016,7.97461 2.59222,11.58323 5.02069,14.28974 16.60742,20.75782 4.84315,2.70357 7.83271,3.75659 14.86914,4.66211 13.20847,1.6998 12.80079,1.09847 13.47266,3.77539 0.33621,1.33953 1.81522,4.96533 2.77734,5.21679 3.52838,0.92215 5.07469,-1.44531 6.29688,-3.40234 0.68696,-1.1 2.10784,-2 3.1582,-2 1.00588,0 5.9845,0.14068 7.2793,-0.15234 -0.002,4.26216 1.01482,8.8587 3.34335,8.66598 1.38952,-0.115 2.98619,-3.69336 3.29923,-4.67966 0.52753,-1.66208 1.89805,-1.78031 25.46875,-1.17578 23.01595,0.59031 26.506,0.83845 36.10189,-1.05591 5.775,-1.14007 12.20704,-2.44691 14.40704,-2.79022 6.99904,-1.09222 21.35235,-4.94321 31.44028,-8.00934 6.18856,-1.88094 11.13291,-3.85845 14.14773,-6.75052 4.97336,-4.77087 5.39733,-11.4355 3.49504,-20.83463 l -1.35698,-3.77838 -2.09915,1.50323 c 0.47525,2.475 1.02607,6.01574 1.03407,10.24312 0.0128,7.16222 -1.76797,8.59408 -4.5236,11.46865 -4.38969,4.57916 -16.55279,7.51276 -53.36322,14.75056 -8.24901,1.62195 -18.42754,2.38051 -27.69717,2.53079 -14.647,0.23746 -29.249,-3.46438 -43.87109,-2.57813 z"
     id="path4507"
     inkscape:connector-curvature="0"
     sodipodi:nodetypes="acscsccccccsccscccscccssccsccccssaa" />
</svg>
