<?xml version="1.0" encoding="UTF-8" standalone="no"?>
<svg
   xmlns:dc="http://purl.org/dc/elements/1.1/"
   xmlns:cc="http://creativecommons.org/ns#"
   xmlns:rdf="http://www.w3.org/1999/02/22-rdf-syntax-ns#"
   xmlns:svg="http://www.w3.org/2000/svg"
   xmlns="http://www.w3.org/2000/svg"
   xmlns:sodipodi="http://sodipodi.sourceforge.net/DTD/sodipodi-0.dtd"
   xmlns:inkscape="http://www.inkscape.org/namespaces/inkscape"
   version="1.0"
   width="64.000000pt"
   height="64.000000pt"
   viewBox="0 0 64.000000 64.000000"
   preserveAspectRatio="xMidYMid meet"
   id="svg8"
   sodipodi:docname="key-bg.svg"
   inkscape:version="0.92.1 r15371">
  <defs
     id="defs12" />
  <sodipodi:namedview
     pagecolor="#ffffff"
     bordercolor="#666666"
     borderopacity="1"
     objecttolerance="10"
     gridtolerance="10"
     guidetolerance="10"
     inkscape:pageopacity="0"
     inkscape:pageshadow="2"
     inkscape:window-width="640"
     inkscape:window-height="480"
     id="namedview10"
     showgrid="false"
     inkscape:pagecheckerboard="true"
     inkscape:zoom="2.765625"
     inkscape:cx="48.965325"
     inkscape:cy="68.885868"
     inkscape:window-x="653"
     inkscape:window-y="302"
     inkscape:window-maximized="0"
     inkscape:current-layer="svg8" />
  <metadata
     id="metadata2">
Created by potrace 1.13, written by Peter Selinger 2001-2015
<rdf:RDF>
  <cc:Work
     rdf:about="">
    <dc:format>image/svg+xml</dc:format>
    <dc:type
       rdf:resource="http://purl.org/dc/dcmitype/StillImage" />
    <dc:title></dc:title>
  </cc:Work>
</rdf:RDF>
</metadata>
  <g
     transform="translate(0.000000,64.000000) scale(0.100000,-0.100000)"
     fill="#ffffff"
     stroke="none"
     id="g6">
    <path
       d="M 388,592 340,576 342.71186,491.32203 346,416 230,249 C 170,161 120,88 120,85 c 0,-3 34,-5 75,-5 65,0 75,2 75,18 0,10 7,28 16,40 12,17 21,21 41,16 23,-6 24,-5 14,14 -15,28 -14,35 4,28 10,-4 15,1 15,15 0,16 4,19 20,14 15,-5 18,-3 14,9 -3,9 -13,16 -21,16 -8,0 -13,6 -10,13 2,6 10,11 16,10 10,-3 12,2 15,37 1,8 9,14 18,12 9,-1 25,8 35,22 11,13 48,42 84,63 69,42 74,53 65,117 -6,40 -8,42 -69,64 -71,25 -76,26 -139,4 z"
       id="path4"
       inkscape:connector-curvature="0"
       sodipodi:nodetypes="cccccsssccccscssccccccccc" />
  </g>
  <g
     style="fill:#000000;stroke:none"
     transform="matrix(0.1,0,0,-0.1,0.5,63.9)"
     id="g8">
    <path
       inkscape:connector-curvature="0"
       d="m 395,597 -60,-22 3,-80 3,-80 L 227,250 112,85 174,77 c 67,-8 110,-2 101,14 -4,5 1,21 9,34 12,18 26,25 48,25 25,0 29,3 20,12 -18,18 -15,38 4,31 13,-5 15,-2 9,15 -6,20 -4,21 20,12 24,-9 25,-8 15,11 -6,11 -18,23 -27,26 -13,5 -12,8 5,14 13,5 22,17 22,30 0,15 5,19 15,15 9,-3 23,6 37,24 12,17 52,48 88,70 l 67,39 -5,53 c -2,29 -7,56 -11,60 -5,5 -133,59 -135,57 -1,0 -28,-10 -61,-22 z m 129,-37 c 44,-18 46,-21 46,-59 0,-39 -2,-41 -65,-78 -36,-21 -67,-46 -71,-56 -4,-12 -12,-15 -28,-11 -20,5 -27,-3 -56,-63 -19,-37 -48,-88 -65,-113 -18,-25 -35,-53 -38,-62 -7,-20 -27,-25 -27,-7 0,6 33,63 73,127 66,106 77,132 54,124 -5,-1 -1,8 7,20 11,16 16,46 16,99 v 76 l 33,11 c 48,15 71,14 121,-8 z M 263,228 c -60,-99 -79,-125 -88,-117 -5,5 132,209 141,209 2,0 -22,-42 -53,-92 z"
       id="path4-3" />
    <path
       inkscape:connector-curvature="0"
       d="m 432,529 c 4,-31 50,-63 77,-54 31,10 26,30 -15,54 -46,27 -66,27 -62,0 z m 78,-39 c 0,-10 -27,-3 -47,13 -25,19 -13,27 17,12 17,-9 30,-20 30,-25 z"
       id="path6" />
  </g>
</svg>
