<?xml version="1.0" encoding="UTF-8" standalone="no"?>
<!-- Created with Inkscape (http://www.inkscape.org/) -->

<svg
   xmlns:dc="http://purl.org/dc/elements/1.1/"
   xmlns:cc="http://creativecommons.org/ns#"
   xmlns:rdf="http://www.w3.org/1999/02/22-rdf-syntax-ns#"
   xmlns:svg="http://www.w3.org/2000/svg"
   xmlns="http://www.w3.org/2000/svg"
   xmlns:sodipodi="http://sodipodi.sourceforge.net/DTD/sodipodi-0.dtd"
   xmlns:inkscape="http://www.inkscape.org/namespaces/inkscape"
   width="100mm"
   height="100mm"
   viewBox="0 0 100 100"
   version="1.1"
   id="svg8"
   inkscape:version="0.92.1 r15371"
   sodipodi:docname="straponHorseBlack.svg">
  <defs
     id="defs2" />
  <sodipodi:namedview
     id="base"
     pagecolor="#ffffff"
     bordercolor="#666666"
     borderopacity="1.0"
     inkscape:pageopacity="0.0"
     inkscape:pageshadow="2"
     inkscape:zoom="3.959798"
     inkscape:cx="204.39141"
     inkscape:cy="278.23609"
     inkscape:document-units="mm"
     inkscape:current-layer="layer1"
     showgrid="false"
     inkscape:pagecheckerboard="true"
     fit-margin-top="0"
     fit-margin-left="0"
     fit-margin-right="0"
     fit-margin-bottom="0"
     inkscape:window-width="1920"
     inkscape:window-height="1056"
     inkscape:window-x="0"
     inkscape:window-y="24"
     inkscape:window-maximized="1" />
  <metadata
     id="metadata5">
    <rdf:RDF>
      <cc:Work
         rdf:about="">
        <dc:format>image/svg+xml</dc:format>
        <dc:type
           rdf:resource="http://purl.org/dc/dcmitype/StillImage" />
        <dc:title />
      </cc:Work>
    </rdf:RDF>
  </metadata>
  <g
     inkscape:label="Layer 1"
     inkscape:groupmode="layer"
     id="layer1"
     transform="translate(-132.71351,-117.625)">
    <g
       id="g4551"
       transform="matrix(1.2983873,0,0,1.2983873,-26.470572,-65.897617)">
      <g
         id="g4585">
        <path
           inkscape:connector-curvature="0"
           id="path4530"
           d="m 153.21265,176.80357 c 6.27493,-7.68607 13.5591,-14.73143 18.42634,-23.37783 1.38027,-2.45198 2.36109,-4.37372 2.56196,-5.83629 0.3251,-2.36703 -1.01079,-2.81708 -0.61808,-4.30662 0.56765,-2.1531 10.00553,0.36724 11.90455,0.89871 2.07038,0.57943 4.72539,4.824 3.14127,5.64882 -3.2825,1.70914 -5.85985,4.96424 -8.86588,11.69335 -1.89115,4.23341 -4.3808,8.86218 -5.92753,13.46692 -0.57059,1.69868 -1.81417,3.04404 -2.19681,4.65756 -0.43458,1.83254 -0.52893,2.65201 -1.47373,3.91248 -3.89818,5.20062 -6.75896,10.22309 -8.7241,16.75013 1.13407,0.66546 11.46762,0.25797 9.32455,10.14607 -1.72095,7.94045 -13.54841,6.65268 -16.16488,6.84704 -4.11362,0.30557 -9.51461,-6.57447 -11.01367,-8.07275 -5.53576,-5.53287 -8.48449,-6.93283 -9.70937,-10.7681 -0.13607,-0.42607 2.78006,-1.53077 4.69138,-4.19982 1.94327,-2.71367 4.73978,-5.45292 7.47518,-8.70925 2.3915,-2.84693 3.53556,-5.23744 7.16882,-8.75042 z"
           style="fill:#515151;fill-opacity:1;stroke-width:0.26458332"
           sodipodi:nodetypes="cssssssssscssssssc" />
      </g>
      <path
         style="fill:#242424;fill-opacity:1;stroke-width:0.99999994"
         d="m 235.66992,49.705078 c -2.44779,6.631239 2.07806,9.979989 2.25196,17.523438 0.0475,9.4097 -38.29803,65.735524 -58.51563,85.953124 -4.12203,4.12203 -9.40197,8.54418 -11.73242,9.82813 -3.6762,2.02533 -4.3989,2.99474 -5.45313,7.31835 -0.99212,4.06889 -2.9019,5.42193 -7.10937,10.48438 -18.1921,21.88881 -28.9893,31.54157 -46.63846,55.06914 -4.63865,6.18364 -11.728782,14.09996 -18.142792,16.97774 -3.433398,1.54044 -6.726712,3.70499 -7.318359,4.81054 -1.282659,2.39652 5.16498,10.05633 5.767945,11.36255 20.530166,20.7399 45.947256,51.9266 69.657836,60.97144 35.02237,4.41932 69.72178,-9.79798 70.83984,-36.00782 0.40473,-16.12903 -14.31125,-26.81226 -30.27539,-27.18359 -9.13276,0.0852 -5.84554,-2.52441 -3.16992,-8.29297 4.49368,-11.54342 9.71312,-23.66083 14.50977,-33.20703 7.28284,-14.4429 9.35152,-17.69028 13.75195,-21.58984 4.6811,-4.14815 5.16315,-4.96637 5.01953,-8.5 -0.16018,-3.93903 0.37081,-5.32761 7.60547,-19.91016 13.70259,-28.51739 22.07885,-61.78947 41.80273,-87.566406 4.91294,-5.301599 11.87504,-6.819627 16.70899,-12.408203 1.64396,-5.977716 -0.7757,-12.414996 -3.87891,-15.650391 -8.91314,-6.927158 -34.58281,-18.259087 -55.68164,-9.982422 z M 290.62891,62.3125 c 2.51077,4.412863 2.99329,10.224419 1.05859,12.748047 -5.29733,5.512101 -12.25504,8.535959 -17.13771,14.884616 -22.71646,32.229417 -29.93159,68.341147 -48.56151,98.238427 -1.08302,1.22536 -1.12862,1.07243 -0.23242,5.375 1.10551,5.30752 0.70782,4.37482 -2.23242,6.68555 -1.63374,1.28394 -3.04532,1.64189 -4.69532,3.07422 -9.67045,15.7378 -17.85213,34.31044 -26.24218,51.00781 -3.57774,7.07441 -3.9724,7.50202 -5.57813,6.04883 -2.76567,-2.50288 -6.07031,-2.02546 -6.07031,0.87695 1.2148,8.95657 13.38269,10.86126 20.19922,11.52149 19.41442,1.59546 24.89532,7.62161 23.67741,22.77635 -1.84841,29.71458 -47.66723,36.64394 -68.36963,30.27427 -25.56024,-16.39768 -45.69275,-40.09325 -65.001973,-58.48507 -1.947303,-1.84709 -4.678187,-5.01756 -4.079246,-6.88782 0.535446,-1.67195 1.525345,-1.82428 9.748047,-1.5 10.158542,0.40048 12.329622,-0.81184 6.638672,-3.70703 -7.169898,-2.56735 0.359,-8.55628 3.09375,-12.6543 17.8683,-20.23365 36.58709,-44.13933 54.00195,-62.15039 4.63794,-5.06382 19.11586,-3.36029 22.94727,-1.61133 3.56526,1.82212 10.83623,3.86735 17.85156,9.09961 2.8639,2.13597 14.60999,10.34766 15.18359,10.34766 0.36114,0 2.08635,0.0174 1.56836,-0.57617 -1.94887,-2.23348 -9.80592,-8.62555 -11.63476,-10.57227 0,0 -2.59413,-1.34306 -2.17383,-2.31445 0.35393,-0.81799 2.67383,0 2.67383,0 1.48165,0 12.66982,6.93952 15.49219,7.55078 0.95758,0.20742 -3.85157,-4.33689 -3.85157,-4.70312 0,-2.38303 -14.83906,-11.84766 -17.83789,-11.84766 -1.20124,0 -4.8583,-1.35001 -8.12695,-3 -5.88763,-2.97207 -11,-3.91092 -11,-2.01953 0,0.53953 1.23751,1.24483 2.75,1.56836 6.31786,1.35182 11.92748,3.98583 14.64258,6.87305 2.7309,2.90398 2.77921,3.09411 0.83789,3.38476 -1.95802,0.29333 -9.66227,-3.31959 -17.22461,-8.07812 -3.07075,-1.20488 -5.05205,-2.20156 -9.75,-2.2129 -6.57963,-0.0163 -7.93685,-0.92599 -3.75586,-2.51562 1.48139,-0.56323 2.5,-1.74258 2.5,-2.89258 0,-1.06737 1.77943,-3.3491 3.95508,-5.07226 14.20994,-15.2642 23.96149,-29.23576 35.20117,-45.05078 17.57318,-24.708256 29.84375,-46.027114 29.84375,-51.853521 -2.24601,-6.498043 -5.29182,-10.717436 -2.22885,-14.687827 13.89308,-4.403024 43.5171,2.029681 51.92026,12.056968 z M 116.68164,262.13672 c -0.11339,0.005 -0.2097,0.0223 -0.28906,0.0527 -2.18121,0.83702 -1.04205,2.28224 3.71094,4.70703 8.7671,5.87739 17.88803,13.07248 24.83398,19.52149 3.63625,3.42637 8.88866,6.81688 15.5,10.00586 14.13354,5.84209 18.17877,14.59137 23.72266,25.74609 1.1707,2.26269 2.47797,1.17219 3.69922,-3.08594 1.54196,-11.43189 -14.2425,-22.24666 -23.08399,-26.7207 -17.27771,-5.65664 -29.33436,-28.95601 -48.09375,-30.22656 z"
         transform="matrix(0.26458333,0,0,0.26458333,111.02834,129.87091)"
         id="path4520"
         inkscape:connector-curvature="0"
         sodipodi:nodetypes="ccscssscccccccccccccccccccccccccccccccccccccscscscsscscccccsscccccccccccccc" />
    </g>
  </g>
</svg>
